%TF.GenerationSoftware,KiCad,Pcbnew,(6.0.2)*%
%TF.CreationDate,2022-12-08T21:29:48-08:00*%
%TF.ProjectId,touch_sensor_light,746f7563-685f-4736-956e-736f725f6c69,rev?*%
%TF.SameCoordinates,Original*%
%TF.FileFunction,Legend,Top*%
%TF.FilePolarity,Positive*%
%FSLAX46Y46*%
G04 Gerber Fmt 4.6, Leading zero omitted, Abs format (unit mm)*
G04 Created by KiCad (PCBNEW (6.0.2)) date 2022-12-08 21:29:48*
%MOMM*%
%LPD*%
G01*
G04 APERTURE LIST*
G04 Aperture macros list*
%AMRoundRect*
0 Rectangle with rounded corners*
0 $1 Rounding radius*
0 $2 $3 $4 $5 $6 $7 $8 $9 X,Y pos of 4 corners*
0 Add a 4 corners polygon primitive as box body*
4,1,4,$2,$3,$4,$5,$6,$7,$8,$9,$2,$3,0*
0 Add four circle primitives for the rounded corners*
1,1,$1+$1,$2,$3*
1,1,$1+$1,$4,$5*
1,1,$1+$1,$6,$7*
1,1,$1+$1,$8,$9*
0 Add four rect primitives between the rounded corners*
20,1,$1+$1,$2,$3,$4,$5,0*
20,1,$1+$1,$4,$5,$6,$7,0*
20,1,$1+$1,$6,$7,$8,$9,0*
20,1,$1+$1,$8,$9,$2,$3,0*%
G04 Aperture macros list end*
%ADD10C,0.150000*%
%ADD11C,0.120000*%
%ADD12RoundRect,0.250000X0.250000X0.475000X-0.250000X0.475000X-0.250000X-0.475000X0.250000X-0.475000X0*%
%ADD13R,1.700000X1.700000*%
%ADD14R,1.500000X2.000000*%
%ADD15R,3.800000X2.000000*%
%ADD16O,1.700000X1.700000*%
%ADD17RoundRect,0.250000X-0.625000X0.312500X-0.625000X-0.312500X0.625000X-0.312500X0.625000X0.312500X0*%
%ADD18C,2.200000*%
%ADD19RoundRect,0.250000X0.312500X0.625000X-0.312500X0.625000X-0.312500X-0.625000X0.312500X-0.625000X0*%
%ADD20RoundRect,0.150000X-0.825000X-0.150000X0.825000X-0.150000X0.825000X0.150000X-0.825000X0.150000X0*%
%ADD21R,0.400000X1.350000*%
%ADD22C,1.450000*%
%ADD23O,1.200000X1.900000*%
%ADD24R,1.200000X1.900000*%
%ADD25R,1.500000X1.900000*%
%ADD26R,2.700000X3.500000*%
%ADD27C,5.700000*%
%ADD28RoundRect,0.250000X-0.250000X-0.475000X0.250000X-0.475000X0.250000X0.475000X-0.250000X0.475000X0*%
%ADD29RoundRect,0.250000X-0.475000X0.250000X-0.475000X-0.250000X0.475000X-0.250000X0.475000X0.250000X0*%
%ADD30RoundRect,0.150000X-0.512500X-0.150000X0.512500X-0.150000X0.512500X0.150000X-0.512500X0.150000X0*%
%ADD31RoundRect,0.250000X-0.262500X-0.450000X0.262500X-0.450000X0.262500X0.450000X-0.262500X0.450000X0*%
%ADD32RoundRect,0.250000X0.475000X-0.250000X0.475000X0.250000X-0.475000X0.250000X-0.475000X-0.250000X0*%
G04 APERTURE END LIST*
D10*
X133381809Y-53554380D02*
X133477047Y-53554380D01*
X133572285Y-53602000D01*
X133619904Y-53649619D01*
X133667523Y-53744857D01*
X133715142Y-53935333D01*
X133715142Y-54173428D01*
X133667523Y-54363904D01*
X133619904Y-54459142D01*
X133572285Y-54506761D01*
X133477047Y-54554380D01*
X133381809Y-54554380D01*
X133286571Y-54506761D01*
X133238952Y-54459142D01*
X133191333Y-54363904D01*
X133143714Y-54173428D01*
X133143714Y-53935333D01*
X133191333Y-53744857D01*
X133238952Y-53649619D01*
X133286571Y-53602000D01*
X133381809Y-53554380D01*
X134000857Y-53554380D02*
X134334190Y-54554380D01*
X134667523Y-53554380D01*
X112256071Y-63230285D02*
X112256071Y-63992190D01*
X111875119Y-63611238D02*
X112637023Y-63611238D01*
X112875119Y-64944571D02*
X112875119Y-64468380D01*
X112398928Y-64420761D01*
X112446547Y-64468380D01*
X112494166Y-64563619D01*
X112494166Y-64801714D01*
X112446547Y-64896952D01*
X112398928Y-64944571D01*
X112303690Y-64992190D01*
X112065595Y-64992190D01*
X111970357Y-64944571D01*
X111922738Y-64896952D01*
X111875119Y-64801714D01*
X111875119Y-64563619D01*
X111922738Y-64468380D01*
X111970357Y-64420761D01*
X112875119Y-65277904D02*
X111875119Y-65611238D01*
X112875119Y-65944571D01*
X110431000Y-63158857D02*
X110431000Y-64158857D01*
X109148619Y-63968380D02*
X109624809Y-63635047D01*
X109148619Y-63396952D02*
X110148619Y-63396952D01*
X110148619Y-63777904D01*
X110101000Y-63873142D01*
X110053380Y-63920761D01*
X109958142Y-63968380D01*
X109815285Y-63968380D01*
X109720047Y-63920761D01*
X109672428Y-63873142D01*
X109624809Y-63777904D01*
X109624809Y-63396952D01*
X110431000Y-64158857D02*
X110431000Y-65111238D01*
X109196238Y-64349333D02*
X109148619Y-64492190D01*
X109148619Y-64730285D01*
X109196238Y-64825523D01*
X109243857Y-64873142D01*
X109339095Y-64920761D01*
X109434333Y-64920761D01*
X109529571Y-64873142D01*
X109577190Y-64825523D01*
X109624809Y-64730285D01*
X109672428Y-64539809D01*
X109720047Y-64444571D01*
X109767666Y-64396952D01*
X109862904Y-64349333D01*
X109958142Y-64349333D01*
X110053380Y-64396952D01*
X110101000Y-64444571D01*
X110148619Y-64539809D01*
X110148619Y-64777904D01*
X110101000Y-64920761D01*
X110431000Y-65111238D02*
X110431000Y-65873142D01*
X110148619Y-65206476D02*
X110148619Y-65777904D01*
X109148619Y-65492190D02*
X110148619Y-65492190D01*
X109402619Y-52935333D02*
X110402619Y-52935333D01*
X110402619Y-53316285D01*
X110355000Y-53411523D01*
X110307380Y-53459142D01*
X110212142Y-53506761D01*
X110069285Y-53506761D01*
X109974047Y-53459142D01*
X109926428Y-53411523D01*
X109878809Y-53316285D01*
X109878809Y-52935333D01*
X109688333Y-53887714D02*
X109688333Y-54363904D01*
X109402619Y-53792476D02*
X110402619Y-54125809D01*
X109402619Y-54459142D01*
X110402619Y-55221047D02*
X110402619Y-55030571D01*
X110355000Y-54935333D01*
X110307380Y-54887714D01*
X110164523Y-54792476D01*
X109974047Y-54744857D01*
X109593095Y-54744857D01*
X109497857Y-54792476D01*
X109450238Y-54840095D01*
X109402619Y-54935333D01*
X109402619Y-55125809D01*
X109450238Y-55221047D01*
X109497857Y-55268666D01*
X109593095Y-55316285D01*
X109831190Y-55316285D01*
X109926428Y-55268666D01*
X109974047Y-55221047D01*
X110021666Y-55125809D01*
X110021666Y-54935333D01*
X109974047Y-54840095D01*
X109926428Y-54792476D01*
X109831190Y-54744857D01*
X135112285Y-54173428D02*
X135874190Y-54173428D01*
X135493238Y-54554380D02*
X135493238Y-53792476D01*
X136826571Y-53554380D02*
X136350380Y-53554380D01*
X136302761Y-54030571D01*
X136350380Y-53982952D01*
X136445619Y-53935333D01*
X136683714Y-53935333D01*
X136778952Y-53982952D01*
X136826571Y-54030571D01*
X136874190Y-54125809D01*
X136874190Y-54363904D01*
X136826571Y-54459142D01*
X136778952Y-54506761D01*
X136683714Y-54554380D01*
X136445619Y-54554380D01*
X136350380Y-54506761D01*
X136302761Y-54459142D01*
X137159904Y-53554380D02*
X137493238Y-54554380D01*
X137826571Y-53554380D01*
X107862619Y-63531809D02*
X107862619Y-63627047D01*
X107815000Y-63722285D01*
X107767380Y-63769904D01*
X107672142Y-63817523D01*
X107481666Y-63865142D01*
X107243571Y-63865142D01*
X107053095Y-63817523D01*
X106957857Y-63769904D01*
X106910238Y-63722285D01*
X106862619Y-63627047D01*
X106862619Y-63531809D01*
X106910238Y-63436571D01*
X106957857Y-63388952D01*
X107053095Y-63341333D01*
X107243571Y-63293714D01*
X107481666Y-63293714D01*
X107672142Y-63341333D01*
X107767380Y-63388952D01*
X107815000Y-63436571D01*
X107862619Y-63531809D01*
X107862619Y-64150857D02*
X106862619Y-64484190D01*
X107862619Y-64817523D01*
X115117619Y-78658980D02*
X115117619Y-77658980D01*
X115593809Y-77992314D02*
X115593809Y-78658980D01*
X115593809Y-78087552D02*
X115641428Y-78039933D01*
X115736666Y-77992314D01*
X115879523Y-77992314D01*
X115974761Y-78039933D01*
X116022380Y-78135171D01*
X116022380Y-78658980D01*
X106862619Y-52935333D02*
X107862619Y-52935333D01*
X107862619Y-53316285D01*
X107815000Y-53411523D01*
X107767380Y-53459142D01*
X107672142Y-53506761D01*
X107529285Y-53506761D01*
X107434047Y-53459142D01*
X107386428Y-53411523D01*
X107338809Y-53316285D01*
X107338809Y-52935333D01*
X107148333Y-53887714D02*
X107148333Y-54363904D01*
X106862619Y-53792476D02*
X107862619Y-54125809D01*
X106862619Y-54459142D01*
X107862619Y-54697238D02*
X107862619Y-55363904D01*
X106862619Y-54935333D01*
X128706666Y-77658980D02*
X128897142Y-77658980D01*
X128992380Y-77706600D01*
X129087619Y-77801838D01*
X129135238Y-77992314D01*
X129135238Y-78325647D01*
X129087619Y-78516123D01*
X128992380Y-78611361D01*
X128897142Y-78658980D01*
X128706666Y-78658980D01*
X128611428Y-78611361D01*
X128516190Y-78516123D01*
X128468571Y-78325647D01*
X128468571Y-77992314D01*
X128516190Y-77801838D01*
X128611428Y-77706600D01*
X128706666Y-77658980D01*
X129992380Y-77992314D02*
X129992380Y-78658980D01*
X129563809Y-77992314D02*
X129563809Y-78516123D01*
X129611428Y-78611361D01*
X129706666Y-78658980D01*
X129849523Y-78658980D01*
X129944761Y-78611361D01*
X129992380Y-78563742D01*
X130325714Y-77992314D02*
X130706666Y-77992314D01*
X130468571Y-77658980D02*
X130468571Y-78516123D01*
X130516190Y-78611361D01*
X130611428Y-78658980D01*
X130706666Y-78658980D01*
X111942619Y-52935333D02*
X112942619Y-52935333D01*
X112942619Y-53316285D01*
X112895000Y-53411523D01*
X112847380Y-53459142D01*
X112752142Y-53506761D01*
X112609285Y-53506761D01*
X112514047Y-53459142D01*
X112466428Y-53411523D01*
X112418809Y-53316285D01*
X112418809Y-52935333D01*
X112228333Y-53887714D02*
X112228333Y-54363904D01*
X111942619Y-53792476D02*
X112942619Y-54125809D01*
X111942619Y-54459142D01*
X112942619Y-54697238D02*
X112942619Y-55316285D01*
X112561666Y-54982952D01*
X112561666Y-55125809D01*
X112514047Y-55221047D01*
X112466428Y-55268666D01*
X112371190Y-55316285D01*
X112133095Y-55316285D01*
X112037857Y-55268666D01*
X111990238Y-55221047D01*
X111942619Y-55125809D01*
X111942619Y-54840095D01*
X111990238Y-54744857D01*
X112037857Y-54697238D01*
%TO.C,C4*%
X134961333Y-61219142D02*
X134913714Y-61266761D01*
X134770857Y-61314380D01*
X134675619Y-61314380D01*
X134532761Y-61266761D01*
X134437523Y-61171523D01*
X134389904Y-61076285D01*
X134342285Y-60885809D01*
X134342285Y-60742952D01*
X134389904Y-60552476D01*
X134437523Y-60457238D01*
X134532761Y-60362000D01*
X134675619Y-60314380D01*
X134770857Y-60314380D01*
X134913714Y-60362000D01*
X134961333Y-60409619D01*
X135818476Y-60647714D02*
X135818476Y-61314380D01*
X135580380Y-60266761D02*
X135342285Y-60981047D01*
X135961333Y-60981047D01*
%TO.C,Q1*%
X134270761Y-63793619D02*
X134175523Y-63746000D01*
X134080285Y-63650761D01*
X133937428Y-63507904D01*
X133842190Y-63460285D01*
X133746952Y-63460285D01*
X133794571Y-63698380D02*
X133699333Y-63650761D01*
X133604095Y-63555523D01*
X133556476Y-63365047D01*
X133556476Y-63031714D01*
X133604095Y-62841238D01*
X133699333Y-62746000D01*
X133794571Y-62698380D01*
X133985047Y-62698380D01*
X134080285Y-62746000D01*
X134175523Y-62841238D01*
X134223142Y-63031714D01*
X134223142Y-63365047D01*
X134175523Y-63555523D01*
X134080285Y-63650761D01*
X133985047Y-63698380D01*
X133794571Y-63698380D01*
X135175523Y-63698380D02*
X134604095Y-63698380D01*
X134889809Y-63698380D02*
X134889809Y-62698380D01*
X134794571Y-62841238D01*
X134699333Y-62936476D01*
X134604095Y-62984095D01*
%TO.C,R1*%
X131659333Y-53792380D02*
X131326000Y-53316190D01*
X131087904Y-53792380D02*
X131087904Y-52792380D01*
X131468857Y-52792380D01*
X131564095Y-52840000D01*
X131611714Y-52887619D01*
X131659333Y-52982857D01*
X131659333Y-53125714D01*
X131611714Y-53220952D01*
X131564095Y-53268571D01*
X131468857Y-53316190D01*
X131087904Y-53316190D01*
X132611714Y-53792380D02*
X132040285Y-53792380D01*
X132326000Y-53792380D02*
X132326000Y-52792380D01*
X132230761Y-52935238D01*
X132135523Y-53030476D01*
X132040285Y-53078095D01*
%TO.C,R4*%
X122880380Y-55284666D02*
X122404190Y-55618000D01*
X122880380Y-55856095D02*
X121880380Y-55856095D01*
X121880380Y-55475142D01*
X121928000Y-55379904D01*
X121975619Y-55332285D01*
X122070857Y-55284666D01*
X122213714Y-55284666D01*
X122308952Y-55332285D01*
X122356571Y-55379904D01*
X122404190Y-55475142D01*
X122404190Y-55856095D01*
X122213714Y-54427523D02*
X122880380Y-54427523D01*
X121832761Y-54665619D02*
X122547047Y-54903714D01*
X122547047Y-54284666D01*
%TO.C,U1*%
X112014095Y-67651380D02*
X112014095Y-68460904D01*
X112061714Y-68556142D01*
X112109333Y-68603761D01*
X112204571Y-68651380D01*
X112395047Y-68651380D01*
X112490285Y-68603761D01*
X112537904Y-68556142D01*
X112585523Y-68460904D01*
X112585523Y-67651380D01*
X113585523Y-68651380D02*
X113014095Y-68651380D01*
X113299809Y-68651380D02*
X113299809Y-67651380D01*
X113204571Y-67794238D01*
X113109333Y-67889476D01*
X113014095Y-67937095D01*
%TO.C,D1*%
X124404380Y-69826095D02*
X123404380Y-69826095D01*
X123404380Y-69588000D01*
X123452000Y-69445142D01*
X123547238Y-69349904D01*
X123642476Y-69302285D01*
X123832952Y-69254666D01*
X123975809Y-69254666D01*
X124166285Y-69302285D01*
X124261523Y-69349904D01*
X124356761Y-69445142D01*
X124404380Y-69588000D01*
X124404380Y-69826095D01*
X124404380Y-68302285D02*
X124404380Y-68873714D01*
X124404380Y-68588000D02*
X123404380Y-68588000D01*
X123547238Y-68683238D01*
X123642476Y-68778476D01*
X123690095Y-68873714D01*
%TO.C,C1*%
X106513333Y-67921142D02*
X106465714Y-67968761D01*
X106322857Y-68016380D01*
X106227619Y-68016380D01*
X106084761Y-67968761D01*
X105989523Y-67873523D01*
X105941904Y-67778285D01*
X105894285Y-67587809D01*
X105894285Y-67444952D01*
X105941904Y-67254476D01*
X105989523Y-67159238D01*
X106084761Y-67064000D01*
X106227619Y-67016380D01*
X106322857Y-67016380D01*
X106465714Y-67064000D01*
X106513333Y-67111619D01*
X107465714Y-68016380D02*
X106894285Y-68016380D01*
X107180000Y-68016380D02*
X107180000Y-67016380D01*
X107084761Y-67159238D01*
X106989523Y-67254476D01*
X106894285Y-67302095D01*
%TO.C,C3*%
X118883133Y-74728342D02*
X118835514Y-74775961D01*
X118692657Y-74823580D01*
X118597419Y-74823580D01*
X118454561Y-74775961D01*
X118359323Y-74680723D01*
X118311704Y-74585485D01*
X118264085Y-74395009D01*
X118264085Y-74252152D01*
X118311704Y-74061676D01*
X118359323Y-73966438D01*
X118454561Y-73871200D01*
X118597419Y-73823580D01*
X118692657Y-73823580D01*
X118835514Y-73871200D01*
X118883133Y-73918819D01*
X119216466Y-73823580D02*
X119835514Y-73823580D01*
X119502180Y-74204533D01*
X119645038Y-74204533D01*
X119740276Y-74252152D01*
X119787895Y-74299771D01*
X119835514Y-74395009D01*
X119835514Y-74633104D01*
X119787895Y-74728342D01*
X119740276Y-74775961D01*
X119645038Y-74823580D01*
X119359323Y-74823580D01*
X119264085Y-74775961D01*
X119216466Y-74728342D01*
%TO.C,R2*%
X115403333Y-53792380D02*
X115070000Y-53316190D01*
X114831904Y-53792380D02*
X114831904Y-52792380D01*
X115212857Y-52792380D01*
X115308095Y-52840000D01*
X115355714Y-52887619D01*
X115403333Y-52982857D01*
X115403333Y-53125714D01*
X115355714Y-53220952D01*
X115308095Y-53268571D01*
X115212857Y-53316190D01*
X114831904Y-53316190D01*
X115784285Y-52887619D02*
X115831904Y-52840000D01*
X115927142Y-52792380D01*
X116165238Y-52792380D01*
X116260476Y-52840000D01*
X116308095Y-52887619D01*
X116355714Y-52982857D01*
X116355714Y-53078095D01*
X116308095Y-53220952D01*
X115736666Y-53792380D01*
X116355714Y-53792380D01*
%TO.C,D2*%
X131770380Y-62968095D02*
X130770380Y-62968095D01*
X130770380Y-62730000D01*
X130818000Y-62587142D01*
X130913238Y-62491904D01*
X131008476Y-62444285D01*
X131198952Y-62396666D01*
X131341809Y-62396666D01*
X131532285Y-62444285D01*
X131627523Y-62491904D01*
X131722761Y-62587142D01*
X131770380Y-62730000D01*
X131770380Y-62968095D01*
X130865619Y-62015714D02*
X130818000Y-61968095D01*
X130770380Y-61872857D01*
X130770380Y-61634761D01*
X130818000Y-61539523D01*
X130865619Y-61491904D01*
X130960857Y-61444285D01*
X131056095Y-61444285D01*
X131198952Y-61491904D01*
X131770380Y-62063333D01*
X131770380Y-61444285D01*
%TO.C,U2*%
X122453495Y-73899780D02*
X122453495Y-74709304D01*
X122501114Y-74804542D01*
X122548733Y-74852161D01*
X122643971Y-74899780D01*
X122834447Y-74899780D01*
X122929685Y-74852161D01*
X122977304Y-74804542D01*
X123024923Y-74709304D01*
X123024923Y-73899780D01*
X123453495Y-73995019D02*
X123501114Y-73947400D01*
X123596352Y-73899780D01*
X123834447Y-73899780D01*
X123929685Y-73947400D01*
X123977304Y-73995019D01*
X124024923Y-74090257D01*
X124024923Y-74185495D01*
X123977304Y-74328352D01*
X123405876Y-74899780D01*
X124024923Y-74899780D01*
%TO.C,R3*%
X128154133Y-70811380D02*
X127820800Y-70335190D01*
X127582704Y-70811380D02*
X127582704Y-69811380D01*
X127963657Y-69811380D01*
X128058895Y-69859000D01*
X128106514Y-69906619D01*
X128154133Y-70001857D01*
X128154133Y-70144714D01*
X128106514Y-70239952D01*
X128058895Y-70287571D01*
X127963657Y-70335190D01*
X127582704Y-70335190D01*
X128487466Y-69811380D02*
X129106514Y-69811380D01*
X128773180Y-70192333D01*
X128916038Y-70192333D01*
X129011276Y-70239952D01*
X129058895Y-70287571D01*
X129106514Y-70382809D01*
X129106514Y-70620904D01*
X129058895Y-70716142D01*
X129011276Y-70763761D01*
X128916038Y-70811380D01*
X128630323Y-70811380D01*
X128535085Y-70763761D01*
X128487466Y-70716142D01*
%TO.C,R5*%
X129373333Y-53792380D02*
X129040000Y-53316190D01*
X128801904Y-53792380D02*
X128801904Y-52792380D01*
X129182857Y-52792380D01*
X129278095Y-52840000D01*
X129325714Y-52887619D01*
X129373333Y-52982857D01*
X129373333Y-53125714D01*
X129325714Y-53220952D01*
X129278095Y-53268571D01*
X129182857Y-53316190D01*
X128801904Y-53316190D01*
X130278095Y-52792380D02*
X129801904Y-52792380D01*
X129754285Y-53268571D01*
X129801904Y-53220952D01*
X129897142Y-53173333D01*
X130135238Y-53173333D01*
X130230476Y-53220952D01*
X130278095Y-53268571D01*
X130325714Y-53363809D01*
X130325714Y-53601904D01*
X130278095Y-53697142D01*
X130230476Y-53744761D01*
X130135238Y-53792380D01*
X129897142Y-53792380D01*
X129801904Y-53744761D01*
X129754285Y-53697142D01*
%TO.C,C2*%
X126782533Y-74779142D02*
X126734914Y-74826761D01*
X126592057Y-74874380D01*
X126496819Y-74874380D01*
X126353961Y-74826761D01*
X126258723Y-74731523D01*
X126211104Y-74636285D01*
X126163485Y-74445809D01*
X126163485Y-74302952D01*
X126211104Y-74112476D01*
X126258723Y-74017238D01*
X126353961Y-73922000D01*
X126496819Y-73874380D01*
X126592057Y-73874380D01*
X126734914Y-73922000D01*
X126782533Y-73969619D01*
X127163485Y-73969619D02*
X127211104Y-73922000D01*
X127306342Y-73874380D01*
X127544438Y-73874380D01*
X127639676Y-73922000D01*
X127687295Y-73969619D01*
X127734914Y-74064857D01*
X127734914Y-74160095D01*
X127687295Y-74302952D01*
X127115866Y-74874380D01*
X127734914Y-74874380D01*
D11*
%TO.C,C4*%
X135389252Y-58447000D02*
X134866748Y-58447000D01*
X135389252Y-59917000D02*
X134866748Y-59917000D01*
%TO.C,J6*%
X128210000Y-77022000D02*
X130870000Y-77022000D01*
X130870000Y-76902000D02*
X130870000Y-77022000D01*
X128210000Y-76902000D02*
X128210000Y-77022000D01*
X130870000Y-74362000D02*
X130870000Y-75692000D01*
X129540000Y-74362000D02*
X130870000Y-74362000D01*
%TO.C,Q1*%
X137776000Y-66670000D02*
X136516000Y-66670000D01*
X130956000Y-66670000D02*
X132216000Y-66670000D01*
X130956000Y-72680000D02*
X130956000Y-66670000D01*
X137776000Y-70430000D02*
X137776000Y-66670000D01*
%TO.C,J1*%
X137728000Y-57972000D02*
X136398000Y-57972000D01*
X135128000Y-55312000D02*
X135128000Y-57972000D01*
X137728000Y-56642000D02*
X137728000Y-57972000D01*
X132528000Y-55312000D02*
X132528000Y-57972000D01*
X135128000Y-55312000D02*
X132528000Y-55312000D01*
X135128000Y-57972000D02*
X132528000Y-57972000D01*
%TO.C,R1*%
X130662000Y-49564936D02*
X130662000Y-51019064D01*
X132482000Y-49564936D02*
X132482000Y-51019064D01*
%TO.C,R4*%
X120107064Y-56028000D02*
X118652936Y-56028000D01*
X120107064Y-54208000D02*
X118652936Y-54208000D01*
%TO.C,U1*%
X109474000Y-74315000D02*
X111424000Y-74315000D01*
X109474000Y-69195000D02*
X111424000Y-69195000D01*
X109474000Y-69195000D02*
X106024000Y-69195000D01*
X109474000Y-74315000D02*
X107524000Y-74315000D01*
%TO.C,J5*%
X114718000Y-47482500D02*
X114718000Y-47732500D01*
X114718000Y-51882500D02*
X115168000Y-51882500D01*
X114718000Y-50032500D02*
X114718000Y-51882500D01*
X120318000Y-52432500D02*
X119868000Y-52432500D01*
X122518000Y-47482500D02*
X122518000Y-47732500D01*
X122518000Y-51882500D02*
X122068000Y-51882500D01*
X120318000Y-52432500D02*
X120318000Y-51982500D01*
X122518000Y-50032500D02*
X122518000Y-51882500D01*
%TO.C,J4*%
X114240000Y-77022000D02*
X116900000Y-77022000D01*
X116900000Y-74362000D02*
X116900000Y-75692000D01*
X115570000Y-74362000D02*
X116900000Y-74362000D01*
X116900000Y-76902000D02*
X116900000Y-77022000D01*
X114240000Y-76902000D02*
X114240000Y-77022000D01*
%TO.C,D1*%
X119761000Y-73533000D02*
X122682000Y-73533000D01*
X122682000Y-73533000D02*
X122682000Y-68707000D01*
X119761000Y-69723000D02*
X119761000Y-73533000D01*
X124188000Y-65278000D02*
G75*
G03*
X124188000Y-65278000I-4300000J0D01*
G01*
%TO.C,C1*%
X109212748Y-66956000D02*
X109735252Y-66956000D01*
X109212748Y-68426000D02*
X109735252Y-68426000D01*
%TO.C,J2*%
X113725000Y-61214000D02*
X113725000Y-62544000D01*
X111125000Y-59884000D02*
X111125000Y-62544000D01*
X113725000Y-62544000D02*
X112395000Y-62544000D01*
X105985000Y-59884000D02*
X105985000Y-62544000D01*
X111125000Y-62544000D02*
X105985000Y-62544000D01*
X111125000Y-59884000D02*
X105985000Y-59884000D01*
%TO.C,C3*%
X118340200Y-76446748D02*
X118340200Y-76969252D01*
X119810200Y-76446748D02*
X119810200Y-76969252D01*
%TO.C,J3*%
X113740000Y-57379000D02*
X113740000Y-58709000D01*
X111140000Y-58709000D02*
X106000000Y-58709000D01*
X106000000Y-56049000D02*
X106000000Y-58709000D01*
X111140000Y-56049000D02*
X106000000Y-56049000D01*
X113740000Y-58709000D02*
X112410000Y-58709000D01*
X111140000Y-56049000D02*
X111140000Y-58709000D01*
%TO.C,R2*%
X116480000Y-55660936D02*
X116480000Y-57115064D01*
X114660000Y-55660936D02*
X114660000Y-57115064D01*
%TO.C,D2*%
X126873000Y-66421000D02*
X129794000Y-66421000D01*
X129794000Y-66421000D02*
X129794000Y-61595000D01*
X126873000Y-62611000D02*
X126873000Y-66421000D01*
X131300000Y-58166000D02*
G75*
G03*
X131300000Y-58166000I-4300000J0D01*
G01*
%TO.C,U2*%
X122682000Y-78268000D02*
X121882000Y-78268000D01*
X122682000Y-75148000D02*
X123482000Y-75148000D01*
X122682000Y-78268000D02*
X123482000Y-78268000D01*
X122682000Y-75148000D02*
X120882000Y-75148000D01*
%TO.C,R3*%
X128093736Y-71274000D02*
X128547864Y-71274000D01*
X128093736Y-72744000D02*
X128547864Y-72744000D01*
%TO.C,R5*%
X129942000Y-49564936D02*
X129942000Y-51019064D01*
X128122000Y-49564936D02*
X128122000Y-51019064D01*
%TO.C,C2*%
X125706200Y-76969252D02*
X125706200Y-76446748D01*
X127176200Y-76969252D02*
X127176200Y-76446748D01*
%TD*%
%LPC*%
D12*
%TO.C,C4*%
X136078000Y-59182000D03*
X134178000Y-59182000D03*
%TD*%
D13*
%TO.C,J6*%
X129540000Y-75692000D03*
%TD*%
D14*
%TO.C,Q1*%
X132066000Y-71730000D03*
X134366000Y-71730000D03*
D15*
X134366000Y-65430000D03*
D14*
X136666000Y-71730000D03*
%TD*%
D13*
%TO.C,J1*%
X136398000Y-56642000D03*
D16*
X133858000Y-56642000D03*
%TD*%
D17*
%TO.C,R1*%
X131572000Y-48829500D03*
X131572000Y-51754500D03*
%TD*%
D18*
%TO.C,H1*%
X108686600Y-76911200D03*
%TD*%
%TO.C,H2*%
X108686600Y-50495200D03*
%TD*%
%TO.C,H3*%
X135636000Y-76962000D03*
%TD*%
D19*
%TO.C,R4*%
X120842500Y-55118000D03*
X117917500Y-55118000D03*
%TD*%
D20*
%TO.C,U1*%
X106999000Y-69850000D03*
X106999000Y-71120000D03*
X106999000Y-72390000D03*
X106999000Y-73660000D03*
X111949000Y-73660000D03*
X111949000Y-72390000D03*
X111949000Y-71120000D03*
X111949000Y-69850000D03*
%TD*%
D21*
%TO.C,J5*%
X119918000Y-51582500D03*
X119268000Y-51582500D03*
X118618000Y-51582500D03*
X117968000Y-51582500D03*
X117318000Y-51582500D03*
D22*
X121118000Y-51582500D03*
D23*
X122118000Y-48882500D03*
D24*
X121518000Y-48882500D03*
D22*
X116118000Y-51582500D03*
D25*
X119618000Y-48882500D03*
D24*
X115718000Y-48882500D03*
D23*
X115118000Y-48882500D03*
D25*
X117618000Y-48882500D03*
%TD*%
D13*
%TO.C,J4*%
X115570000Y-75692000D03*
%TD*%
D26*
%TO.C,D1*%
X121238000Y-71628000D03*
X118538000Y-58928000D03*
D27*
X119888000Y-65278000D03*
%TD*%
D28*
%TO.C,C1*%
X108524000Y-67691000D03*
X110424000Y-67691000D03*
%TD*%
D13*
%TO.C,J2*%
X112395000Y-61214000D03*
D16*
X109855000Y-61214000D03*
X107315000Y-61214000D03*
%TD*%
D29*
%TO.C,C3*%
X119075200Y-75758000D03*
X119075200Y-77658000D03*
%TD*%
D13*
%TO.C,J3*%
X112410000Y-57379000D03*
D16*
X109870000Y-57379000D03*
X107330000Y-57379000D03*
%TD*%
D17*
%TO.C,R2*%
X115570000Y-54925500D03*
X115570000Y-57850500D03*
%TD*%
D26*
%TO.C,D2*%
X128350000Y-64516000D03*
X125650000Y-51816000D03*
D27*
X127000000Y-58166000D03*
%TD*%
D30*
%TO.C,U2*%
X121544500Y-75758000D03*
X121544500Y-76708000D03*
X121544500Y-77658000D03*
X123819500Y-77658000D03*
X123819500Y-76708000D03*
X123819500Y-75758000D03*
%TD*%
D31*
%TO.C,R3*%
X127408300Y-72009000D03*
X129233300Y-72009000D03*
%TD*%
D17*
%TO.C,R5*%
X129032000Y-48829500D03*
X129032000Y-51754500D03*
%TD*%
D18*
%TO.C,H4*%
X135636000Y-50546000D03*
%TD*%
D32*
%TO.C,C2*%
X126441200Y-77658000D03*
X126441200Y-75758000D03*
%TD*%
M02*
