%TF.GenerationSoftware,KiCad,Pcbnew,(6.0.2)*%
%TF.CreationDate,2022-12-08T21:29:48-08:00*%
%TF.ProjectId,touch_sensor_light,746f7563-685f-4736-956e-736f725f6c69,rev?*%
%TF.SameCoordinates,Original*%
%TF.FileFunction,Paste,Top*%
%TF.FilePolarity,Positive*%
%FSLAX46Y46*%
G04 Gerber Fmt 4.6, Leading zero omitted, Abs format (unit mm)*
G04 Created by KiCad (PCBNEW (6.0.2)) date 2022-12-08 21:29:48*
%MOMM*%
%LPD*%
G01*
G04 APERTURE LIST*
G04 Aperture macros list*
%AMRoundRect*
0 Rectangle with rounded corners*
0 $1 Rounding radius*
0 $2 $3 $4 $5 $6 $7 $8 $9 X,Y pos of 4 corners*
0 Add a 4 corners polygon primitive as box body*
4,1,4,$2,$3,$4,$5,$6,$7,$8,$9,$2,$3,0*
0 Add four circle primitives for the rounded corners*
1,1,$1+$1,$2,$3*
1,1,$1+$1,$4,$5*
1,1,$1+$1,$6,$7*
1,1,$1+$1,$8,$9*
0 Add four rect primitives between the rounded corners*
20,1,$1+$1,$2,$3,$4,$5,0*
20,1,$1+$1,$4,$5,$6,$7,0*
20,1,$1+$1,$6,$7,$8,$9,0*
20,1,$1+$1,$8,$9,$2,$3,0*%
G04 Aperture macros list end*
%ADD10RoundRect,0.250000X0.250000X0.475000X-0.250000X0.475000X-0.250000X-0.475000X0.250000X-0.475000X0*%
%ADD11R,1.500000X2.000000*%
%ADD12R,3.800000X2.000000*%
%ADD13RoundRect,0.250000X-0.625000X0.312500X-0.625000X-0.312500X0.625000X-0.312500X0.625000X0.312500X0*%
%ADD14RoundRect,0.250000X0.312500X0.625000X-0.312500X0.625000X-0.312500X-0.625000X0.312500X-0.625000X0*%
%ADD15RoundRect,0.150000X-0.825000X-0.150000X0.825000X-0.150000X0.825000X0.150000X-0.825000X0.150000X0*%
%ADD16R,0.400000X1.350000*%
%ADD17R,1.500000X1.900000*%
%ADD18R,2.700000X3.500000*%
%ADD19C,5.700000*%
%ADD20RoundRect,0.250000X-0.250000X-0.475000X0.250000X-0.475000X0.250000X0.475000X-0.250000X0.475000X0*%
%ADD21RoundRect,0.250000X-0.475000X0.250000X-0.475000X-0.250000X0.475000X-0.250000X0.475000X0.250000X0*%
%ADD22RoundRect,0.150000X-0.512500X-0.150000X0.512500X-0.150000X0.512500X0.150000X-0.512500X0.150000X0*%
%ADD23RoundRect,0.250000X-0.262500X-0.450000X0.262500X-0.450000X0.262500X0.450000X-0.262500X0.450000X0*%
%ADD24RoundRect,0.250000X0.475000X-0.250000X0.475000X0.250000X-0.475000X0.250000X-0.475000X-0.250000X0*%
G04 APERTURE END LIST*
D10*
%TO.C,C4*%
X136078000Y-59182000D03*
X134178000Y-59182000D03*
%TD*%
D11*
%TO.C,Q1*%
X132066000Y-71730000D03*
X134366000Y-71730000D03*
D12*
X134366000Y-65430000D03*
D11*
X136666000Y-71730000D03*
%TD*%
D13*
%TO.C,R1*%
X131572000Y-48829500D03*
X131572000Y-51754500D03*
%TD*%
D14*
%TO.C,R4*%
X120842500Y-55118000D03*
X117917500Y-55118000D03*
%TD*%
D15*
%TO.C,U1*%
X106999000Y-69850000D03*
X106999000Y-71120000D03*
X106999000Y-72390000D03*
X106999000Y-73660000D03*
X111949000Y-73660000D03*
X111949000Y-72390000D03*
X111949000Y-71120000D03*
X111949000Y-69850000D03*
%TD*%
D16*
%TO.C,J5*%
X119918000Y-51582500D03*
X119268000Y-51582500D03*
X118618000Y-51582500D03*
X117968000Y-51582500D03*
X117318000Y-51582500D03*
D17*
X119618000Y-48882500D03*
X117618000Y-48882500D03*
%TD*%
D18*
%TO.C,D1*%
X121238000Y-71628000D03*
X118538000Y-58928000D03*
D19*
X119888000Y-65278000D03*
%TD*%
D20*
%TO.C,C1*%
X108524000Y-67691000D03*
X110424000Y-67691000D03*
%TD*%
D21*
%TO.C,C3*%
X119075200Y-75758000D03*
X119075200Y-77658000D03*
%TD*%
D13*
%TO.C,R2*%
X115570000Y-54925500D03*
X115570000Y-57850500D03*
%TD*%
D18*
%TO.C,D2*%
X128350000Y-64516000D03*
X125650000Y-51816000D03*
D19*
X127000000Y-58166000D03*
%TD*%
D22*
%TO.C,U2*%
X121544500Y-75758000D03*
X121544500Y-76708000D03*
X121544500Y-77658000D03*
X123819500Y-77658000D03*
X123819500Y-76708000D03*
X123819500Y-75758000D03*
%TD*%
D23*
%TO.C,R3*%
X127408300Y-72009000D03*
X129233300Y-72009000D03*
%TD*%
D13*
%TO.C,R5*%
X129032000Y-48829500D03*
X129032000Y-51754500D03*
%TD*%
D24*
%TO.C,C2*%
X126441200Y-77658000D03*
X126441200Y-75758000D03*
%TD*%
M02*
