%TF.GenerationSoftware,KiCad,Pcbnew,(6.0.2)*%
%TF.CreationDate,2022-12-08T21:29:48-08:00*%
%TF.ProjectId,touch_sensor_light,746f7563-685f-4736-956e-736f725f6c69,rev?*%
%TF.SameCoordinates,Original*%
%TF.FileFunction,Soldermask,Top*%
%TF.FilePolarity,Negative*%
%FSLAX46Y46*%
G04 Gerber Fmt 4.6, Leading zero omitted, Abs format (unit mm)*
G04 Created by KiCad (PCBNEW (6.0.2)) date 2022-12-08 21:29:48*
%MOMM*%
%LPD*%
G01*
G04 APERTURE LIST*
G04 Aperture macros list*
%AMRoundRect*
0 Rectangle with rounded corners*
0 $1 Rounding radius*
0 $2 $3 $4 $5 $6 $7 $8 $9 X,Y pos of 4 corners*
0 Add a 4 corners polygon primitive as box body*
4,1,4,$2,$3,$4,$5,$6,$7,$8,$9,$2,$3,0*
0 Add four circle primitives for the rounded corners*
1,1,$1+$1,$2,$3*
1,1,$1+$1,$4,$5*
1,1,$1+$1,$6,$7*
1,1,$1+$1,$8,$9*
0 Add four rect primitives between the rounded corners*
20,1,$1+$1,$2,$3,$4,$5,0*
20,1,$1+$1,$4,$5,$6,$7,0*
20,1,$1+$1,$6,$7,$8,$9,0*
20,1,$1+$1,$8,$9,$2,$3,0*%
G04 Aperture macros list end*
%ADD10RoundRect,0.250000X0.250000X0.475000X-0.250000X0.475000X-0.250000X-0.475000X0.250000X-0.475000X0*%
%ADD11R,1.700000X1.700000*%
%ADD12R,1.500000X2.000000*%
%ADD13R,3.800000X2.000000*%
%ADD14O,1.700000X1.700000*%
%ADD15RoundRect,0.250000X-0.625000X0.312500X-0.625000X-0.312500X0.625000X-0.312500X0.625000X0.312500X0*%
%ADD16C,2.200000*%
%ADD17RoundRect,0.250000X0.312500X0.625000X-0.312500X0.625000X-0.312500X-0.625000X0.312500X-0.625000X0*%
%ADD18RoundRect,0.150000X-0.825000X-0.150000X0.825000X-0.150000X0.825000X0.150000X-0.825000X0.150000X0*%
%ADD19R,0.400000X1.350000*%
%ADD20C,1.450000*%
%ADD21O,1.200000X1.900000*%
%ADD22R,1.200000X1.900000*%
%ADD23R,1.500000X1.900000*%
%ADD24R,2.700000X3.500000*%
%ADD25C,5.700000*%
%ADD26RoundRect,0.250000X-0.250000X-0.475000X0.250000X-0.475000X0.250000X0.475000X-0.250000X0.475000X0*%
%ADD27RoundRect,0.250000X-0.475000X0.250000X-0.475000X-0.250000X0.475000X-0.250000X0.475000X0.250000X0*%
%ADD28RoundRect,0.150000X-0.512500X-0.150000X0.512500X-0.150000X0.512500X0.150000X-0.512500X0.150000X0*%
%ADD29RoundRect,0.250000X-0.262500X-0.450000X0.262500X-0.450000X0.262500X0.450000X-0.262500X0.450000X0*%
%ADD30RoundRect,0.250000X0.475000X-0.250000X0.475000X0.250000X-0.475000X0.250000X-0.475000X-0.250000X0*%
G04 APERTURE END LIST*
D10*
%TO.C,C4*%
X136078000Y-59182000D03*
X134178000Y-59182000D03*
%TD*%
D11*
%TO.C,J6*%
X129540000Y-75692000D03*
%TD*%
D12*
%TO.C,Q1*%
X132066000Y-71730000D03*
X134366000Y-71730000D03*
D13*
X134366000Y-65430000D03*
D12*
X136666000Y-71730000D03*
%TD*%
D11*
%TO.C,J1*%
X136398000Y-56642000D03*
D14*
X133858000Y-56642000D03*
%TD*%
D15*
%TO.C,R1*%
X131572000Y-48829500D03*
X131572000Y-51754500D03*
%TD*%
D16*
%TO.C,H1*%
X108686600Y-76911200D03*
%TD*%
%TO.C,H2*%
X108686600Y-50495200D03*
%TD*%
%TO.C,H3*%
X135636000Y-76962000D03*
%TD*%
D17*
%TO.C,R4*%
X120842500Y-55118000D03*
X117917500Y-55118000D03*
%TD*%
D18*
%TO.C,U1*%
X106999000Y-69850000D03*
X106999000Y-71120000D03*
X106999000Y-72390000D03*
X106999000Y-73660000D03*
X111949000Y-73660000D03*
X111949000Y-72390000D03*
X111949000Y-71120000D03*
X111949000Y-69850000D03*
%TD*%
D19*
%TO.C,J5*%
X119918000Y-51582500D03*
X119268000Y-51582500D03*
X118618000Y-51582500D03*
X117968000Y-51582500D03*
X117318000Y-51582500D03*
D20*
X121118000Y-51582500D03*
D21*
X122118000Y-48882500D03*
D22*
X121518000Y-48882500D03*
D20*
X116118000Y-51582500D03*
D23*
X119618000Y-48882500D03*
D22*
X115718000Y-48882500D03*
D21*
X115118000Y-48882500D03*
D23*
X117618000Y-48882500D03*
%TD*%
D11*
%TO.C,J4*%
X115570000Y-75692000D03*
%TD*%
D24*
%TO.C,D1*%
X121238000Y-71628000D03*
X118538000Y-58928000D03*
D25*
X119888000Y-65278000D03*
%TD*%
D26*
%TO.C,C1*%
X108524000Y-67691000D03*
X110424000Y-67691000D03*
%TD*%
D11*
%TO.C,J2*%
X112395000Y-61214000D03*
D14*
X109855000Y-61214000D03*
X107315000Y-61214000D03*
%TD*%
D27*
%TO.C,C3*%
X119075200Y-75758000D03*
X119075200Y-77658000D03*
%TD*%
D11*
%TO.C,J3*%
X112410000Y-57379000D03*
D14*
X109870000Y-57379000D03*
X107330000Y-57379000D03*
%TD*%
D15*
%TO.C,R2*%
X115570000Y-54925500D03*
X115570000Y-57850500D03*
%TD*%
D24*
%TO.C,D2*%
X128350000Y-64516000D03*
X125650000Y-51816000D03*
D25*
X127000000Y-58166000D03*
%TD*%
D28*
%TO.C,U2*%
X121544500Y-75758000D03*
X121544500Y-76708000D03*
X121544500Y-77658000D03*
X123819500Y-77658000D03*
X123819500Y-76708000D03*
X123819500Y-75758000D03*
%TD*%
D29*
%TO.C,R3*%
X127408300Y-72009000D03*
X129233300Y-72009000D03*
%TD*%
D15*
%TO.C,R5*%
X129032000Y-48829500D03*
X129032000Y-51754500D03*
%TD*%
D16*
%TO.C,H4*%
X135636000Y-50546000D03*
%TD*%
D30*
%TO.C,C2*%
X126441200Y-77658000D03*
X126441200Y-75758000D03*
%TD*%
M02*
