%TF.GenerationSoftware,KiCad,Pcbnew,(6.0.2)*%
%TF.CreationDate,2022-12-08T21:29:48-08:00*%
%TF.ProjectId,touch_sensor_light,746f7563-685f-4736-956e-736f725f6c69,rev?*%
%TF.SameCoordinates,Original*%
%TF.FileFunction,Soldermask,Bot*%
%TF.FilePolarity,Negative*%
%FSLAX46Y46*%
G04 Gerber Fmt 4.6, Leading zero omitted, Abs format (unit mm)*
G04 Created by KiCad (PCBNEW (6.0.2)) date 2022-12-08 21:29:48*
%MOMM*%
%LPD*%
G01*
G04 APERTURE LIST*
%ADD10R,1.700000X1.700000*%
%ADD11O,1.700000X1.700000*%
%ADD12C,2.200000*%
%ADD13C,1.450000*%
%ADD14O,1.200000X1.900000*%
G04 APERTURE END LIST*
D10*
%TO.C,J6*%
X129540000Y-75692000D03*
%TD*%
%TO.C,J1*%
X136398000Y-56642000D03*
D11*
X133858000Y-56642000D03*
%TD*%
D12*
%TO.C,H1*%
X108686600Y-76911200D03*
%TD*%
%TO.C,H2*%
X108686600Y-50495200D03*
%TD*%
%TO.C,H3*%
X135636000Y-76962000D03*
%TD*%
D13*
%TO.C,J5*%
X121118000Y-51582500D03*
D14*
X122118000Y-48882500D03*
D13*
X116118000Y-51582500D03*
D14*
X115118000Y-48882500D03*
%TD*%
D10*
%TO.C,J4*%
X115570000Y-75692000D03*
%TD*%
%TO.C,J2*%
X112395000Y-61214000D03*
D11*
X109855000Y-61214000D03*
X107315000Y-61214000D03*
%TD*%
D10*
%TO.C,J3*%
X112410000Y-57379000D03*
D11*
X109870000Y-57379000D03*
X107330000Y-57379000D03*
%TD*%
D12*
%TO.C,H4*%
X135636000Y-50546000D03*
%TD*%
G36*
X130752121Y-54630002D02*
G01*
X130798614Y-54683658D01*
X130810000Y-54736000D01*
X130810000Y-58655885D01*
X130814475Y-58671124D01*
X130815865Y-58672329D01*
X130823548Y-58674000D01*
X137034000Y-58674000D01*
X137102121Y-58694002D01*
X137148614Y-58747658D01*
X137160000Y-58800000D01*
X137160000Y-70435200D01*
X137139998Y-70503321D01*
X137086342Y-70549814D01*
X137034000Y-70561200D01*
X115696000Y-70561200D01*
X115627879Y-70541198D01*
X115581386Y-70487542D01*
X115570000Y-70435200D01*
X115570000Y-54736000D01*
X115590002Y-54667879D01*
X115643658Y-54621386D01*
X115696000Y-54610000D01*
X130684000Y-54610000D01*
X130752121Y-54630002D01*
G37*
M02*
