%TF.GenerationSoftware,KiCad,Pcbnew,(6.0.2)*%
%TF.CreationDate,2022-12-08T21:29:48-08:00*%
%TF.ProjectId,touch_sensor_light,746f7563-685f-4736-956e-736f725f6c69,rev?*%
%TF.SameCoordinates,Original*%
%TF.FileFunction,Copper,L2,Inr*%
%TF.FilePolarity,Positive*%
%FSLAX46Y46*%
G04 Gerber Fmt 4.6, Leading zero omitted, Abs format (unit mm)*
G04 Created by KiCad (PCBNEW (6.0.2)) date 2022-12-08 21:29:48*
%MOMM*%
%LPD*%
G01*
G04 APERTURE LIST*
%TA.AperFunction,ComponentPad*%
%ADD10R,1.700000X1.700000*%
%TD*%
%TA.AperFunction,ComponentPad*%
%ADD11O,1.700000X1.700000*%
%TD*%
%TA.AperFunction,ComponentPad*%
%ADD12C,1.450000*%
%TD*%
%TA.AperFunction,ComponentPad*%
%ADD13O,1.200000X1.900000*%
%TD*%
%TA.AperFunction,ViaPad*%
%ADD14C,0.800000*%
%TD*%
%TA.AperFunction,ViaPad*%
%ADD15C,0.600000*%
%TD*%
%TA.AperFunction,ViaPad*%
%ADD16C,0.400000*%
%TD*%
G04 APERTURE END LIST*
D10*
%TO.N,/Touch*%
%TO.C,J6*%
X129540000Y-75692000D03*
%TD*%
%TO.N,+5V*%
%TO.C,J1*%
X136398000Y-56642000D03*
D11*
%TO.N,GND*%
X133858000Y-56642000D03*
%TD*%
D12*
%TO.N,unconnected-(J5-Pad6)*%
%TO.C,J5*%
X121118000Y-51582500D03*
D13*
X122118000Y-48882500D03*
D12*
X116118000Y-51582500D03*
D13*
X115118000Y-48882500D03*
%TD*%
D10*
%TO.N,Net-(C3-Pad1)*%
%TO.C,J4*%
X115570000Y-75692000D03*
%TD*%
%TO.N,+5V*%
%TO.C,J2*%
X112395000Y-61214000D03*
D11*
%TO.N,/~{RST}*%
X109855000Y-61214000D03*
%TO.N,GND*%
X107315000Y-61214000D03*
%TD*%
D10*
%TO.N,Net-(J3-Pad1)*%
%TO.C,J3*%
X112410000Y-57379000D03*
D11*
%TO.N,Net-(J3-Pad2)*%
X109870000Y-57379000D03*
%TO.N,Net-(J3-Pad3)*%
X107330000Y-57379000D03*
%TD*%
D14*
%TO.N,+5V*%
X127116300Y-48829500D03*
X107315000Y-67818000D03*
D15*
X125222000Y-76708000D03*
D14*
X113893600Y-54889400D03*
X119913400Y-53619400D03*
D15*
X126441200Y-78740000D03*
D14*
X106999000Y-68896000D03*
X125969300Y-48829500D03*
X122936000Y-53517800D03*
X120980200Y-53119700D03*
%TO.N,GND*%
X119126000Y-78740000D03*
X125222000Y-57658000D03*
X119380000Y-63500000D03*
X127762000Y-60198000D03*
X126492000Y-60198000D03*
D16*
X120497600Y-76403200D03*
D14*
X126441200Y-74676000D03*
X136652000Y-69850000D03*
X121666000Y-64770000D03*
X118110000Y-64770000D03*
X123825000Y-78613000D03*
X127762000Y-56388000D03*
X119380000Y-67310000D03*
X120650000Y-67310000D03*
X111760000Y-68961000D03*
X136666000Y-73646000D03*
X120650000Y-63500000D03*
X117318000Y-53564000D03*
X126492000Y-56388000D03*
X123825000Y-74803000D03*
X116179600Y-53213000D03*
X128778000Y-57658000D03*
%TO.N,/~{RST}*%
X110109000Y-71882000D03*
D15*
%TO.N,Net-(J3-Pad3)*%
X108559600Y-71983600D03*
%TO.N,Net-(R3-Pad1)*%
X126060200Y-72009000D03*
D14*
X110109000Y-73583800D03*
%TD*%
%TA.AperFunction,Conductor*%
%TO.N,GND*%
G36*
X114043910Y-47958080D02*
G01*
X114090403Y-48011736D01*
X114100507Y-48082010D01*
X114092657Y-48111171D01*
X114050314Y-48216237D01*
X114009772Y-48423837D01*
X114009500Y-48429399D01*
X114009500Y-49285346D01*
X114024548Y-49443066D01*
X114084092Y-49646034D01*
X114086836Y-49651361D01*
X114086836Y-49651362D01*
X114170342Y-49813498D01*
X114180942Y-49834080D01*
X114311604Y-50000420D01*
X114316135Y-50004352D01*
X114316138Y-50004355D01*
X114402058Y-50078912D01*
X114471363Y-50139052D01*
X114476549Y-50142052D01*
X114476553Y-50142055D01*
X114572957Y-50197826D01*
X114654454Y-50244973D01*
X114854271Y-50314361D01*
X114860206Y-50315222D01*
X114860208Y-50315222D01*
X115057664Y-50343852D01*
X115057667Y-50343852D01*
X115063604Y-50344713D01*
X115274899Y-50334933D01*
X115351347Y-50316509D01*
X115422258Y-50319994D01*
X115480028Y-50361263D01*
X115506315Y-50427214D01*
X115492774Y-50496907D01*
X115453139Y-50542215D01*
X115447734Y-50546000D01*
X115322093Y-50633975D01*
X115169475Y-50786593D01*
X115166318Y-50791101D01*
X115166316Y-50791104D01*
X115157835Y-50803216D01*
X115045677Y-50963394D01*
X115043354Y-50968376D01*
X115043351Y-50968381D01*
X114956784Y-51154025D01*
X114954461Y-51159007D01*
X114953039Y-51164315D01*
X114953038Y-51164317D01*
X114923668Y-51273928D01*
X114898599Y-51367487D01*
X114879788Y-51582500D01*
X114898599Y-51797513D01*
X114900023Y-51802826D01*
X114900023Y-51802828D01*
X114913711Y-51853910D01*
X114954461Y-52005993D01*
X114956783Y-52010974D01*
X114956784Y-52010975D01*
X115043351Y-52196619D01*
X115043354Y-52196624D01*
X115045677Y-52201606D01*
X115169475Y-52378407D01*
X115322093Y-52531025D01*
X115498894Y-52654823D01*
X115503876Y-52657146D01*
X115503881Y-52657149D01*
X115689525Y-52743716D01*
X115694507Y-52746039D01*
X115699815Y-52747461D01*
X115699817Y-52747462D01*
X115897672Y-52800477D01*
X115897674Y-52800477D01*
X115902987Y-52801901D01*
X116118000Y-52820712D01*
X116333013Y-52801901D01*
X116338326Y-52800477D01*
X116338328Y-52800477D01*
X116536183Y-52747462D01*
X116536185Y-52747461D01*
X116541493Y-52746039D01*
X116546475Y-52743716D01*
X116732119Y-52657149D01*
X116732124Y-52657146D01*
X116737106Y-52654823D01*
X116913907Y-52531025D01*
X117066525Y-52378407D01*
X117190323Y-52201606D01*
X117192646Y-52196624D01*
X117192649Y-52196619D01*
X117279216Y-52010975D01*
X117279217Y-52010974D01*
X117281539Y-52005993D01*
X117322290Y-51853910D01*
X117335977Y-51802828D01*
X117335977Y-51802826D01*
X117337401Y-51797513D01*
X117356212Y-51582500D01*
X117337401Y-51367487D01*
X117312332Y-51273928D01*
X117282962Y-51164317D01*
X117282961Y-51164315D01*
X117281539Y-51159007D01*
X117279216Y-51154025D01*
X117192649Y-50968381D01*
X117192646Y-50968376D01*
X117190323Y-50963394D01*
X117078165Y-50803216D01*
X117069684Y-50791104D01*
X117069682Y-50791101D01*
X117066525Y-50786593D01*
X116913907Y-50633975D01*
X116737106Y-50510177D01*
X116732124Y-50507854D01*
X116732119Y-50507851D01*
X116546475Y-50421284D01*
X116546474Y-50421283D01*
X116541493Y-50418961D01*
X116536185Y-50417539D01*
X116536183Y-50417538D01*
X116338328Y-50364523D01*
X116338326Y-50364523D01*
X116333013Y-50363099D01*
X116118000Y-50344288D01*
X115902987Y-50363099D01*
X115897674Y-50364523D01*
X115897672Y-50364523D01*
X115837216Y-50380722D01*
X115766239Y-50379032D01*
X115707444Y-50339238D01*
X115679496Y-50273973D01*
X115691270Y-50203960D01*
X115731705Y-50156245D01*
X115751710Y-50142055D01*
X115845611Y-50075446D01*
X115991881Y-49922650D01*
X116106620Y-49744952D01*
X116158292Y-49616737D01*
X116183442Y-49554332D01*
X116183443Y-49554329D01*
X116185686Y-49548763D01*
X116226228Y-49341163D01*
X116226500Y-49335601D01*
X116226500Y-48479654D01*
X116211452Y-48321934D01*
X116180444Y-48216237D01*
X116153595Y-48124715D01*
X116153593Y-48124711D01*
X116151908Y-48118966D01*
X116149165Y-48113640D01*
X116148057Y-48110870D01*
X116141331Y-48040193D01*
X116173883Y-47977099D01*
X116235379Y-47941620D01*
X116265046Y-47938078D01*
X120975789Y-47938078D01*
X121043910Y-47958080D01*
X121090403Y-48011736D01*
X121100507Y-48082010D01*
X121092657Y-48111171D01*
X121050314Y-48216237D01*
X121009772Y-48423837D01*
X121009500Y-48429399D01*
X121009500Y-49285346D01*
X121024548Y-49443066D01*
X121084092Y-49646034D01*
X121086836Y-49651361D01*
X121086836Y-49651362D01*
X121170342Y-49813498D01*
X121180942Y-49834080D01*
X121311604Y-50000420D01*
X121316135Y-50004352D01*
X121316138Y-50004355D01*
X121402058Y-50078912D01*
X121471363Y-50139052D01*
X121482182Y-50145311D01*
X121486508Y-50147814D01*
X121535455Y-50199241D01*
X121548828Y-50268967D01*
X121522381Y-50334854D01*
X121464511Y-50375983D01*
X121390797Y-50378582D01*
X121338335Y-50364524D01*
X121338324Y-50364522D01*
X121333013Y-50363099D01*
X121118000Y-50344288D01*
X120902987Y-50363099D01*
X120897674Y-50364523D01*
X120897672Y-50364523D01*
X120699817Y-50417538D01*
X120699815Y-50417539D01*
X120694507Y-50418961D01*
X120689526Y-50421283D01*
X120689525Y-50421284D01*
X120503881Y-50507851D01*
X120503876Y-50507854D01*
X120498894Y-50510177D01*
X120322093Y-50633975D01*
X120169475Y-50786593D01*
X120166318Y-50791101D01*
X120166316Y-50791104D01*
X120157835Y-50803216D01*
X120045677Y-50963394D01*
X120043354Y-50968376D01*
X120043351Y-50968381D01*
X119956784Y-51154025D01*
X119954461Y-51159007D01*
X119953039Y-51164315D01*
X119953038Y-51164317D01*
X119923668Y-51273928D01*
X119898599Y-51367487D01*
X119879788Y-51582500D01*
X119898599Y-51797513D01*
X119900023Y-51802826D01*
X119900023Y-51802828D01*
X119913711Y-51853910D01*
X119954461Y-52005993D01*
X119956783Y-52010974D01*
X119956784Y-52010975D01*
X120043351Y-52196619D01*
X120043354Y-52196624D01*
X120045677Y-52201606D01*
X120169475Y-52378407D01*
X120221386Y-52430318D01*
X120255412Y-52492630D01*
X120250347Y-52563445D01*
X120240246Y-52582228D01*
X120241160Y-52582756D01*
X120195646Y-52661588D01*
X120144263Y-52710581D01*
X120074550Y-52724017D01*
X120060329Y-52721834D01*
X120015351Y-52712273D01*
X120015342Y-52712272D01*
X120008887Y-52710900D01*
X119817913Y-52710900D01*
X119811461Y-52712272D01*
X119811456Y-52712272D01*
X119725406Y-52730563D01*
X119631112Y-52750606D01*
X119625082Y-52753291D01*
X119625081Y-52753291D01*
X119462678Y-52825597D01*
X119462676Y-52825598D01*
X119456648Y-52828282D01*
X119302147Y-52940534D01*
X119174360Y-53082456D01*
X119078873Y-53247844D01*
X119019858Y-53429472D01*
X119019168Y-53436033D01*
X119019168Y-53436035D01*
X119013364Y-53491256D01*
X118999896Y-53619400D01*
X119000586Y-53625965D01*
X119009180Y-53707728D01*
X119019858Y-53809328D01*
X119078873Y-53990956D01*
X119174360Y-54156344D01*
X119178778Y-54161251D01*
X119178779Y-54161252D01*
X119223153Y-54210534D01*
X119302147Y-54298266D01*
X119320504Y-54311603D01*
X119423720Y-54386594D01*
X119456648Y-54410518D01*
X119462676Y-54413202D01*
X119462678Y-54413203D01*
X119492095Y-54426300D01*
X119631112Y-54488194D01*
X119724513Y-54508047D01*
X119811456Y-54526528D01*
X119811461Y-54526528D01*
X119817913Y-54527900D01*
X120008887Y-54527900D01*
X120015339Y-54526528D01*
X120015344Y-54526528D01*
X120102288Y-54508047D01*
X120195688Y-54488194D01*
X120334705Y-54426300D01*
X120364122Y-54413203D01*
X120364124Y-54413202D01*
X120370152Y-54410518D01*
X120403081Y-54386594D01*
X120506296Y-54311603D01*
X120524653Y-54298266D01*
X120603647Y-54210534D01*
X120648021Y-54161252D01*
X120648022Y-54161251D01*
X120652440Y-54156344D01*
X120655739Y-54150631D01*
X120655742Y-54150626D01*
X120697954Y-54077512D01*
X120749337Y-54028519D01*
X120819050Y-54015083D01*
X120833271Y-54017266D01*
X120878249Y-54026827D01*
X120878258Y-54026828D01*
X120884713Y-54028200D01*
X121075687Y-54028200D01*
X121082139Y-54026828D01*
X121082144Y-54026828D01*
X121169088Y-54008347D01*
X121262488Y-53988494D01*
X121276463Y-53982272D01*
X121430922Y-53913503D01*
X121430924Y-53913502D01*
X121436952Y-53910818D01*
X121591453Y-53798566D01*
X121719240Y-53656644D01*
X121794243Y-53526735D01*
X121845625Y-53477742D01*
X121915339Y-53464306D01*
X121981250Y-53490692D01*
X122022432Y-53548524D01*
X122028672Y-53576564D01*
X122042458Y-53707728D01*
X122101473Y-53889356D01*
X122196960Y-54054744D01*
X122324747Y-54196666D01*
X122479248Y-54308918D01*
X122485276Y-54311602D01*
X122485278Y-54311603D01*
X122577036Y-54352456D01*
X122653712Y-54386594D01*
X122747112Y-54406447D01*
X122834056Y-54424928D01*
X122834061Y-54424928D01*
X122840513Y-54426300D01*
X123031487Y-54426300D01*
X123037939Y-54424928D01*
X123037944Y-54424928D01*
X123124887Y-54406447D01*
X123218288Y-54386594D01*
X123294964Y-54352456D01*
X123386722Y-54311603D01*
X123386724Y-54311602D01*
X123392752Y-54308918D01*
X123547253Y-54196666D01*
X123675040Y-54054744D01*
X123770527Y-53889356D01*
X123829542Y-53707728D01*
X123849504Y-53517800D01*
X123840910Y-53436035D01*
X123830232Y-53334435D01*
X123830232Y-53334433D01*
X123829542Y-53327872D01*
X123770527Y-53146244D01*
X123675040Y-52980856D01*
X123547253Y-52838934D01*
X123429376Y-52753291D01*
X123398094Y-52730563D01*
X123398093Y-52730562D01*
X123392752Y-52726682D01*
X123386724Y-52723998D01*
X123386722Y-52723997D01*
X123224319Y-52651691D01*
X123224318Y-52651691D01*
X123218288Y-52649006D01*
X123124887Y-52629153D01*
X123037944Y-52610672D01*
X123037939Y-52610672D01*
X123031487Y-52609300D01*
X122840513Y-52609300D01*
X122834061Y-52610672D01*
X122834056Y-52610672D01*
X122747112Y-52629153D01*
X122653712Y-52649006D01*
X122647682Y-52651691D01*
X122647681Y-52651691D01*
X122485278Y-52723997D01*
X122485276Y-52723998D01*
X122479248Y-52726682D01*
X122473907Y-52730562D01*
X122473906Y-52730563D01*
X122442624Y-52753291D01*
X122324747Y-52838934D01*
X122196960Y-52980856D01*
X122193659Y-52986574D01*
X122121957Y-53110765D01*
X122070575Y-53159758D01*
X122000861Y-53173194D01*
X121934950Y-53146808D01*
X121893768Y-53088976D01*
X121887528Y-53060936D01*
X121874432Y-52936335D01*
X121874432Y-52936333D01*
X121873742Y-52929772D01*
X121814727Y-52748144D01*
X121811423Y-52742421D01*
X121808739Y-52736393D01*
X121810009Y-52735828D01*
X121795004Y-52673980D01*
X121818223Y-52606888D01*
X121848590Y-52576761D01*
X121909396Y-52534184D01*
X121909398Y-52534182D01*
X121913907Y-52531025D01*
X122066525Y-52378407D01*
X122190323Y-52201606D01*
X122192646Y-52196624D01*
X122192649Y-52196619D01*
X122279216Y-52010975D01*
X122279217Y-52010974D01*
X122281539Y-52005993D01*
X122322290Y-51853910D01*
X122335977Y-51802828D01*
X122335977Y-51802826D01*
X122337401Y-51797513D01*
X122356212Y-51582500D01*
X122337401Y-51367487D01*
X122312332Y-51273928D01*
X122282962Y-51164317D01*
X122282961Y-51164315D01*
X122281539Y-51159007D01*
X122279216Y-51154025D01*
X122192649Y-50968381D01*
X122192646Y-50968376D01*
X122190323Y-50963394D01*
X122078165Y-50803216D01*
X122069684Y-50791104D01*
X122069682Y-50791101D01*
X122066525Y-50786593D01*
X121913907Y-50633975D01*
X121788266Y-50546000D01*
X134022526Y-50546000D01*
X134042391Y-50798403D01*
X134101495Y-51044591D01*
X134103388Y-51049162D01*
X134103389Y-51049164D01*
X134148888Y-51159007D01*
X134198384Y-51278502D01*
X134330672Y-51494376D01*
X134495102Y-51686898D01*
X134687624Y-51851328D01*
X134903498Y-51983616D01*
X134908068Y-51985509D01*
X134908072Y-51985511D01*
X135017555Y-52030860D01*
X135137409Y-52080505D01*
X135222032Y-52100821D01*
X135378784Y-52138454D01*
X135378790Y-52138455D01*
X135383597Y-52139609D01*
X135483416Y-52147465D01*
X135570345Y-52154307D01*
X135570352Y-52154307D01*
X135572801Y-52154500D01*
X135699199Y-52154500D01*
X135701648Y-52154307D01*
X135701655Y-52154307D01*
X135788584Y-52147465D01*
X135888403Y-52139609D01*
X135893210Y-52138455D01*
X135893216Y-52138454D01*
X136049968Y-52100821D01*
X136134591Y-52080505D01*
X136254445Y-52030860D01*
X136363928Y-51985511D01*
X136363932Y-51985509D01*
X136368502Y-51983616D01*
X136584376Y-51851328D01*
X136776898Y-51686898D01*
X136941328Y-51494376D01*
X137073616Y-51278502D01*
X137123113Y-51159007D01*
X137168611Y-51049164D01*
X137168612Y-51049162D01*
X137170505Y-51044591D01*
X137229609Y-50798403D01*
X137249474Y-50546000D01*
X137229609Y-50293597D01*
X137227636Y-50285375D01*
X137171660Y-50052221D01*
X137170505Y-50047409D01*
X137168611Y-50042836D01*
X137075511Y-49818072D01*
X137075509Y-49818068D01*
X137073616Y-49813498D01*
X136941328Y-49597624D01*
X136776898Y-49405102D01*
X136584376Y-49240672D01*
X136368502Y-49108384D01*
X136363932Y-49106491D01*
X136363928Y-49106489D01*
X136139164Y-49013389D01*
X136139162Y-49013388D01*
X136134591Y-49011495D01*
X136049968Y-48991179D01*
X135893216Y-48953546D01*
X135893210Y-48953545D01*
X135888403Y-48952391D01*
X135788584Y-48944535D01*
X135701655Y-48937693D01*
X135701648Y-48937693D01*
X135699199Y-48937500D01*
X135572801Y-48937500D01*
X135570352Y-48937693D01*
X135570345Y-48937693D01*
X135483416Y-48944535D01*
X135383597Y-48952391D01*
X135378790Y-48953545D01*
X135378784Y-48953546D01*
X135222032Y-48991179D01*
X135137409Y-49011495D01*
X135132838Y-49013388D01*
X135132836Y-49013389D01*
X134908072Y-49106489D01*
X134908068Y-49106491D01*
X134903498Y-49108384D01*
X134687624Y-49240672D01*
X134495102Y-49405102D01*
X134330672Y-49597624D01*
X134198384Y-49813498D01*
X134196491Y-49818068D01*
X134196489Y-49818072D01*
X134103389Y-50042836D01*
X134101495Y-50047409D01*
X134100340Y-50052221D01*
X134044365Y-50285375D01*
X134042391Y-50293597D01*
X134022526Y-50546000D01*
X121788266Y-50546000D01*
X121787905Y-50545747D01*
X121743578Y-50490291D01*
X121736269Y-50419672D01*
X121768300Y-50356311D01*
X121829501Y-50320326D01*
X121878257Y-50317839D01*
X122057664Y-50343852D01*
X122057667Y-50343852D01*
X122063604Y-50344713D01*
X122274899Y-50334933D01*
X122446418Y-50293597D01*
X122474701Y-50286781D01*
X122474703Y-50286780D01*
X122480534Y-50285375D01*
X122485992Y-50282893D01*
X122485996Y-50282892D01*
X122659596Y-50203960D01*
X122673087Y-50197826D01*
X122845611Y-50075446D01*
X122991881Y-49922650D01*
X123106620Y-49744952D01*
X123158292Y-49616737D01*
X123183442Y-49554332D01*
X123183443Y-49554329D01*
X123185686Y-49548763D01*
X123226228Y-49341163D01*
X123226500Y-49335601D01*
X123226500Y-48479654D01*
X123211452Y-48321934D01*
X123180444Y-48216237D01*
X123153595Y-48124715D01*
X123153593Y-48124711D01*
X123151908Y-48118966D01*
X123149165Y-48113640D01*
X123148057Y-48110870D01*
X123141331Y-48040193D01*
X123173883Y-47977099D01*
X123235379Y-47941620D01*
X123265046Y-47938078D01*
X125266905Y-47938078D01*
X125335026Y-47958080D01*
X125381519Y-48011736D01*
X125391623Y-48082010D01*
X125362129Y-48146590D01*
X125358449Y-48150342D01*
X125358047Y-48150634D01*
X125230260Y-48292556D01*
X125198625Y-48347350D01*
X125157039Y-48419379D01*
X125134773Y-48457944D01*
X125075758Y-48639572D01*
X125075068Y-48646133D01*
X125075068Y-48646135D01*
X125070775Y-48686985D01*
X125055796Y-48829500D01*
X125056486Y-48836065D01*
X125069464Y-48959540D01*
X125075758Y-49019428D01*
X125134773Y-49201056D01*
X125230260Y-49366444D01*
X125358047Y-49508366D01*
X125457143Y-49580364D01*
X125486700Y-49601838D01*
X125512548Y-49620618D01*
X125518576Y-49623302D01*
X125518578Y-49623303D01*
X125581600Y-49651362D01*
X125687012Y-49698294D01*
X125780412Y-49718147D01*
X125867356Y-49736628D01*
X125867361Y-49736628D01*
X125873813Y-49738000D01*
X126064787Y-49738000D01*
X126071239Y-49736628D01*
X126071244Y-49736628D01*
X126158187Y-49718147D01*
X126251588Y-49698294D01*
X126357000Y-49651362D01*
X126420022Y-49623303D01*
X126420024Y-49623302D01*
X126426052Y-49620618D01*
X126451901Y-49601838D01*
X126468739Y-49589604D01*
X126535607Y-49565746D01*
X126604758Y-49581826D01*
X126616861Y-49589604D01*
X126633700Y-49601838D01*
X126659548Y-49620618D01*
X126665576Y-49623302D01*
X126665578Y-49623303D01*
X126728600Y-49651362D01*
X126834012Y-49698294D01*
X126927412Y-49718147D01*
X127014356Y-49736628D01*
X127014361Y-49736628D01*
X127020813Y-49738000D01*
X127211787Y-49738000D01*
X127218239Y-49736628D01*
X127218244Y-49736628D01*
X127305187Y-49718147D01*
X127398588Y-49698294D01*
X127504000Y-49651362D01*
X127567022Y-49623303D01*
X127567024Y-49623302D01*
X127573052Y-49620618D01*
X127598901Y-49601838D01*
X127628457Y-49580364D01*
X127727553Y-49508366D01*
X127855340Y-49366444D01*
X127950827Y-49201056D01*
X128009842Y-49019428D01*
X128016137Y-48959540D01*
X128029114Y-48836065D01*
X128029804Y-48829500D01*
X128014825Y-48686985D01*
X128010532Y-48646135D01*
X128010532Y-48646133D01*
X128009842Y-48639572D01*
X127950827Y-48457944D01*
X127928562Y-48419379D01*
X127886975Y-48347350D01*
X127855340Y-48292556D01*
X127727553Y-48150634D01*
X127729139Y-48149206D01*
X127697142Y-48097258D01*
X127698500Y-48026274D01*
X127738019Y-47967293D01*
X127803152Y-47939040D01*
X127818695Y-47938078D01*
X136518194Y-47938078D01*
X136537579Y-47939578D01*
X136552380Y-47941883D01*
X136552383Y-47941883D01*
X136561252Y-47943264D01*
X136570153Y-47942100D01*
X136570160Y-47942100D01*
X136575288Y-47941429D01*
X136601511Y-47940753D01*
X136772203Y-47954187D01*
X136791730Y-47957280D01*
X136981734Y-48002896D01*
X137000528Y-48009002D01*
X137181058Y-48083780D01*
X137198663Y-48092750D01*
X137295455Y-48152064D01*
X137365277Y-48194851D01*
X137381265Y-48206467D01*
X137516460Y-48321934D01*
X137529850Y-48333370D01*
X137543828Y-48347348D01*
X137670733Y-48495935D01*
X137682348Y-48511921D01*
X137784450Y-48678537D01*
X137793420Y-48696142D01*
X137851378Y-48836065D01*
X137868196Y-48876667D01*
X137874304Y-48895466D01*
X137913225Y-49057584D01*
X137919920Y-49085469D01*
X137923013Y-49104997D01*
X137935896Y-49268690D01*
X137935255Y-49285559D01*
X137935427Y-49285561D01*
X137935318Y-49294534D01*
X137933936Y-49303408D01*
X137938022Y-49334652D01*
X137939085Y-49351088D01*
X137936218Y-52531025D01*
X137933555Y-55484665D01*
X137913491Y-55552767D01*
X137859794Y-55599212D01*
X137789511Y-55609252D01*
X137724957Y-55579701D01*
X137699824Y-55548519D01*
X137698615Y-55545295D01*
X137611261Y-55428739D01*
X137494705Y-55341385D01*
X137358316Y-55290255D01*
X137296134Y-55283500D01*
X135499866Y-55283500D01*
X135437684Y-55290255D01*
X135301295Y-55341385D01*
X135184739Y-55428739D01*
X135097385Y-55545295D01*
X135094233Y-55553704D01*
X135094232Y-55553705D01*
X135052722Y-55664433D01*
X135010081Y-55721198D01*
X134943519Y-55745898D01*
X134874170Y-55730691D01*
X134841546Y-55705004D01*
X134790799Y-55649234D01*
X134783273Y-55642215D01*
X134616139Y-55510222D01*
X134607552Y-55504517D01*
X134421117Y-55401599D01*
X134411705Y-55397369D01*
X134210959Y-55326280D01*
X134200988Y-55323646D01*
X134129837Y-55310972D01*
X134116540Y-55312432D01*
X134112000Y-55326989D01*
X134112000Y-57960517D01*
X134116064Y-57974359D01*
X134129478Y-57976393D01*
X134136184Y-57975534D01*
X134146262Y-57973392D01*
X134350255Y-57912191D01*
X134359842Y-57908433D01*
X134551095Y-57814739D01*
X134559945Y-57809464D01*
X134733328Y-57685792D01*
X134741193Y-57679145D01*
X134845897Y-57574805D01*
X134908268Y-57540889D01*
X134979075Y-57546077D01*
X135035837Y-57588723D01*
X135052819Y-57619826D01*
X135097385Y-57738705D01*
X135184739Y-57855261D01*
X135301295Y-57942615D01*
X135437684Y-57993745D01*
X135499866Y-58000500D01*
X137296134Y-58000500D01*
X137358316Y-57993745D01*
X137494705Y-57942615D01*
X137611261Y-57855261D01*
X137650143Y-57803381D01*
X137693233Y-57745887D01*
X137693235Y-57745884D01*
X137698615Y-57738705D01*
X137698839Y-57738873D01*
X137745203Y-57692612D01*
X137814594Y-57677598D01*
X137881086Y-57702483D01*
X137923570Y-57759366D01*
X137931465Y-57803381D01*
X137927188Y-62548025D01*
X137913773Y-77430364D01*
X137913766Y-77437626D01*
X137912266Y-77456892D01*
X137908536Y-77480852D01*
X137909700Y-77489753D01*
X137909700Y-77489760D01*
X137910371Y-77494888D01*
X137911047Y-77521111D01*
X137897613Y-77691803D01*
X137894520Y-77711330D01*
X137859942Y-77855362D01*
X137848906Y-77901329D01*
X137842798Y-77920128D01*
X137768020Y-78100658D01*
X137759050Y-78118263D01*
X137697251Y-78219110D01*
X137656949Y-78284877D01*
X137645333Y-78300865D01*
X137520642Y-78446860D01*
X137518430Y-78449450D01*
X137504452Y-78463428D01*
X137355865Y-78590333D01*
X137339879Y-78601948D01*
X137173263Y-78704050D01*
X137155658Y-78713020D01*
X136975128Y-78787798D01*
X136956334Y-78793904D01*
X136769663Y-78838720D01*
X136766331Y-78839520D01*
X136746803Y-78842613D01*
X136583110Y-78855496D01*
X136566241Y-78854855D01*
X136566239Y-78855027D01*
X136557263Y-78854917D01*
X136548392Y-78853536D01*
X136539490Y-78854700D01*
X136539487Y-78854700D01*
X136516871Y-78857658D01*
X136500533Y-78858722D01*
X127380362Y-78858722D01*
X127312241Y-78838720D01*
X127265748Y-78785064D01*
X127254814Y-78740121D01*
X127254816Y-78740000D01*
X127234597Y-78559745D01*
X127232280Y-78553091D01*
X127177264Y-78395106D01*
X127177262Y-78395103D01*
X127174945Y-78388448D01*
X127078826Y-78234624D01*
X127057667Y-78213317D01*
X126955978Y-78110915D01*
X126955974Y-78110912D01*
X126951015Y-78105918D01*
X126942718Y-78100652D01*
X126860289Y-78048342D01*
X126797866Y-78008727D01*
X126768663Y-77998328D01*
X126633625Y-77950243D01*
X126633620Y-77950242D01*
X126626990Y-77947881D01*
X126620002Y-77947048D01*
X126619999Y-77947047D01*
X126496898Y-77932368D01*
X126446880Y-77926404D01*
X126439877Y-77927140D01*
X126439876Y-77927140D01*
X126273488Y-77944628D01*
X126273486Y-77944629D01*
X126266488Y-77945364D01*
X126094779Y-78003818D01*
X126088775Y-78007512D01*
X125946295Y-78095166D01*
X125946292Y-78095168D01*
X125940288Y-78098862D01*
X125935253Y-78103793D01*
X125935250Y-78103795D01*
X125817495Y-78219110D01*
X125810693Y-78225771D01*
X125712435Y-78378238D01*
X125710026Y-78384858D01*
X125710024Y-78384861D01*
X125666225Y-78505197D01*
X125650397Y-78548685D01*
X125627663Y-78728640D01*
X125628268Y-78734806D01*
X125607414Y-78802319D01*
X125553113Y-78848057D01*
X125502379Y-78858722D01*
X107338928Y-78858722D01*
X107319543Y-78857222D01*
X107304742Y-78854917D01*
X107304739Y-78854917D01*
X107295870Y-78853536D01*
X107286969Y-78854700D01*
X107286962Y-78854700D01*
X107281834Y-78855371D01*
X107255611Y-78856047D01*
X107084919Y-78842613D01*
X107065391Y-78839520D01*
X107062059Y-78838720D01*
X106875388Y-78793904D01*
X106856594Y-78787798D01*
X106676064Y-78713020D01*
X106658459Y-78704050D01*
X106491843Y-78601948D01*
X106475857Y-78590333D01*
X106327270Y-78463428D01*
X106313292Y-78449450D01*
X106311080Y-78446860D01*
X106186389Y-78300865D01*
X106174773Y-78284877D01*
X106134471Y-78219110D01*
X106072672Y-78118263D01*
X106063702Y-78100658D01*
X105988924Y-77920128D01*
X105982816Y-77901329D01*
X105971781Y-77855362D01*
X105937202Y-77711330D01*
X105934109Y-77691803D01*
X105921507Y-77531674D01*
X105922489Y-77509364D01*
X105921829Y-77509305D01*
X105922263Y-77504463D01*
X105923071Y-77499661D01*
X105923224Y-77487122D01*
X105921056Y-77471980D01*
X105919282Y-77459593D01*
X105918010Y-77441706D01*
X105918120Y-76911200D01*
X107073126Y-76911200D01*
X107092991Y-77163603D01*
X107094145Y-77168410D01*
X107094146Y-77168416D01*
X107131779Y-77325168D01*
X107152095Y-77409791D01*
X107153988Y-77414362D01*
X107153989Y-77414364D01*
X107202581Y-77531674D01*
X107248984Y-77643702D01*
X107381272Y-77859576D01*
X107545702Y-78052098D01*
X107738224Y-78216528D01*
X107954098Y-78348816D01*
X107958668Y-78350709D01*
X107958672Y-78350711D01*
X108183436Y-78443811D01*
X108188009Y-78445705D01*
X108235015Y-78456990D01*
X108429384Y-78503654D01*
X108429390Y-78503655D01*
X108434197Y-78504809D01*
X108534016Y-78512665D01*
X108620945Y-78519507D01*
X108620952Y-78519507D01*
X108623401Y-78519700D01*
X108749799Y-78519700D01*
X108752248Y-78519507D01*
X108752255Y-78519507D01*
X108839184Y-78512665D01*
X108939003Y-78504809D01*
X108943810Y-78503655D01*
X108943816Y-78503654D01*
X109138185Y-78456990D01*
X109185191Y-78445705D01*
X109189764Y-78443811D01*
X109414528Y-78350711D01*
X109414532Y-78350709D01*
X109419102Y-78348816D01*
X109634976Y-78216528D01*
X109827498Y-78052098D01*
X109991928Y-77859576D01*
X110124216Y-77643702D01*
X110170620Y-77531674D01*
X110219211Y-77414364D01*
X110219212Y-77414362D01*
X110221105Y-77409791D01*
X110241421Y-77325168D01*
X110279054Y-77168416D01*
X110279055Y-77168410D01*
X110280209Y-77163603D01*
X110300074Y-76911200D01*
X110280209Y-76658797D01*
X110278654Y-76652316D01*
X110263725Y-76590134D01*
X114211500Y-76590134D01*
X114218255Y-76652316D01*
X114269385Y-76788705D01*
X114356739Y-76905261D01*
X114473295Y-76992615D01*
X114609684Y-77043745D01*
X114671866Y-77050500D01*
X116468134Y-77050500D01*
X116530316Y-77043745D01*
X116666705Y-76992615D01*
X116783261Y-76905261D01*
X116870615Y-76788705D01*
X116905129Y-76696640D01*
X124408463Y-76696640D01*
X124426163Y-76877160D01*
X124483418Y-77049273D01*
X124487065Y-77055295D01*
X124487066Y-77055297D01*
X124497978Y-77073314D01*
X124577380Y-77204424D01*
X124582269Y-77209487D01*
X124582270Y-77209488D01*
X124597357Y-77225111D01*
X124703382Y-77334902D01*
X124855159Y-77434222D01*
X124861763Y-77436678D01*
X124861765Y-77436679D01*
X125018558Y-77494990D01*
X125018560Y-77494990D01*
X125025168Y-77497448D01*
X125103988Y-77507965D01*
X125197980Y-77520507D01*
X125197984Y-77520507D01*
X125204961Y-77521438D01*
X125211972Y-77520800D01*
X125211976Y-77520800D01*
X125354459Y-77507832D01*
X125385600Y-77504998D01*
X125392302Y-77502820D01*
X125392304Y-77502820D01*
X125551409Y-77451124D01*
X125551412Y-77451123D01*
X125558108Y-77448947D01*
X125713912Y-77356069D01*
X125845266Y-77230982D01*
X125945643Y-77079902D01*
X125987423Y-76969917D01*
X126007555Y-76916920D01*
X126007556Y-76916918D01*
X126010055Y-76910338D01*
X126011778Y-76898081D01*
X126034748Y-76734639D01*
X126034748Y-76734636D01*
X126035299Y-76730717D01*
X126035616Y-76708000D01*
X126022395Y-76590134D01*
X128181500Y-76590134D01*
X128188255Y-76652316D01*
X128239385Y-76788705D01*
X128326739Y-76905261D01*
X128443295Y-76992615D01*
X128579684Y-77043745D01*
X128641866Y-77050500D01*
X130438134Y-77050500D01*
X130500316Y-77043745D01*
X130636705Y-76992615D01*
X130677554Y-76962000D01*
X134022526Y-76962000D01*
X134042391Y-77214403D01*
X134043545Y-77219210D01*
X134043546Y-77219216D01*
X134070103Y-77329834D01*
X134101495Y-77460591D01*
X134103388Y-77465162D01*
X134103389Y-77465164D01*
X134130939Y-77531674D01*
X134198384Y-77694502D01*
X134330672Y-77910376D01*
X134495102Y-78102898D01*
X134687624Y-78267328D01*
X134903498Y-78399616D01*
X134908068Y-78401509D01*
X134908072Y-78401511D01*
X135132836Y-78494611D01*
X135137409Y-78496505D01*
X135222032Y-78516821D01*
X135378784Y-78554454D01*
X135378790Y-78554455D01*
X135383597Y-78555609D01*
X135483416Y-78563465D01*
X135570345Y-78570307D01*
X135570352Y-78570307D01*
X135572801Y-78570500D01*
X135699199Y-78570500D01*
X135701648Y-78570307D01*
X135701655Y-78570307D01*
X135788584Y-78563465D01*
X135888403Y-78555609D01*
X135893210Y-78554455D01*
X135893216Y-78554454D01*
X136049968Y-78516821D01*
X136134591Y-78496505D01*
X136139164Y-78494611D01*
X136363928Y-78401511D01*
X136363932Y-78401509D01*
X136368502Y-78399616D01*
X136584376Y-78267328D01*
X136776898Y-78102898D01*
X136941328Y-77910376D01*
X137073616Y-77694502D01*
X137141062Y-77531674D01*
X137168611Y-77465164D01*
X137168612Y-77465162D01*
X137170505Y-77460591D01*
X137201897Y-77329834D01*
X137228454Y-77219216D01*
X137228455Y-77219210D01*
X137229609Y-77214403D01*
X137249474Y-76962000D01*
X137229609Y-76709597D01*
X137228281Y-76704062D01*
X137171660Y-76468221D01*
X137170505Y-76463409D01*
X137128958Y-76363106D01*
X137075511Y-76234072D01*
X137075509Y-76234068D01*
X137073616Y-76229498D01*
X136941328Y-76013624D01*
X136776898Y-75821102D01*
X136584376Y-75656672D01*
X136368502Y-75524384D01*
X136363932Y-75522491D01*
X136363928Y-75522489D01*
X136139164Y-75429389D01*
X136139162Y-75429388D01*
X136134591Y-75427495D01*
X136049968Y-75407179D01*
X135893216Y-75369546D01*
X135893210Y-75369545D01*
X135888403Y-75368391D01*
X135788584Y-75360535D01*
X135701655Y-75353693D01*
X135701648Y-75353693D01*
X135699199Y-75353500D01*
X135572801Y-75353500D01*
X135570352Y-75353693D01*
X135570345Y-75353693D01*
X135483416Y-75360535D01*
X135383597Y-75368391D01*
X135378790Y-75369545D01*
X135378784Y-75369546D01*
X135222032Y-75407179D01*
X135137409Y-75427495D01*
X135132838Y-75429388D01*
X135132836Y-75429389D01*
X134908072Y-75522489D01*
X134908068Y-75522491D01*
X134903498Y-75524384D01*
X134687624Y-75656672D01*
X134495102Y-75821102D01*
X134330672Y-76013624D01*
X134198384Y-76229498D01*
X134196491Y-76234068D01*
X134196489Y-76234072D01*
X134143042Y-76363106D01*
X134101495Y-76463409D01*
X134100340Y-76468221D01*
X134043720Y-76704062D01*
X134042391Y-76709597D01*
X134022526Y-76962000D01*
X130677554Y-76962000D01*
X130753261Y-76905261D01*
X130840615Y-76788705D01*
X130891745Y-76652316D01*
X130898500Y-76590134D01*
X130898500Y-74793866D01*
X130891745Y-74731684D01*
X130840615Y-74595295D01*
X130753261Y-74478739D01*
X130636705Y-74391385D01*
X130500316Y-74340255D01*
X130438134Y-74333500D01*
X128641866Y-74333500D01*
X128579684Y-74340255D01*
X128443295Y-74391385D01*
X128326739Y-74478739D01*
X128239385Y-74595295D01*
X128188255Y-74731684D01*
X128181500Y-74793866D01*
X128181500Y-76590134D01*
X126022395Y-76590134D01*
X126015397Y-76527745D01*
X126013080Y-76521091D01*
X125958064Y-76363106D01*
X125958062Y-76363103D01*
X125955745Y-76356448D01*
X125859626Y-76202624D01*
X125840409Y-76183272D01*
X125736778Y-76078915D01*
X125736774Y-76078912D01*
X125731815Y-76073918D01*
X125720697Y-76066862D01*
X125643447Y-76017838D01*
X125578666Y-75976727D01*
X125529065Y-75959065D01*
X125414425Y-75918243D01*
X125414420Y-75918242D01*
X125407790Y-75915881D01*
X125400802Y-75915048D01*
X125400799Y-75915047D01*
X125277698Y-75900368D01*
X125227680Y-75894404D01*
X125220677Y-75895140D01*
X125220676Y-75895140D01*
X125054288Y-75912628D01*
X125054286Y-75912629D01*
X125047288Y-75913364D01*
X124875579Y-75971818D01*
X124869575Y-75975512D01*
X124727095Y-76063166D01*
X124727092Y-76063168D01*
X124721088Y-76066862D01*
X124716053Y-76071793D01*
X124716050Y-76071795D01*
X124611194Y-76174478D01*
X124591493Y-76193771D01*
X124493235Y-76346238D01*
X124490826Y-76352858D01*
X124490824Y-76352861D01*
X124433606Y-76510066D01*
X124431197Y-76516685D01*
X124408463Y-76696640D01*
X116905129Y-76696640D01*
X116921745Y-76652316D01*
X116928500Y-76590134D01*
X116928500Y-74793866D01*
X116921745Y-74731684D01*
X116870615Y-74595295D01*
X116783261Y-74478739D01*
X116666705Y-74391385D01*
X116530316Y-74340255D01*
X116468134Y-74333500D01*
X114671866Y-74333500D01*
X114609684Y-74340255D01*
X114473295Y-74391385D01*
X114356739Y-74478739D01*
X114269385Y-74595295D01*
X114218255Y-74731684D01*
X114211500Y-74793866D01*
X114211500Y-76590134D01*
X110263725Y-76590134D01*
X110222260Y-76417421D01*
X110221105Y-76412609D01*
X110200600Y-76363106D01*
X110126111Y-76183272D01*
X110126109Y-76183268D01*
X110124216Y-76178698D01*
X109991928Y-75962824D01*
X109827498Y-75770302D01*
X109634976Y-75605872D01*
X109419102Y-75473584D01*
X109414532Y-75471691D01*
X109414528Y-75471689D01*
X109189764Y-75378589D01*
X109189762Y-75378588D01*
X109185191Y-75376695D01*
X109088576Y-75353500D01*
X108943816Y-75318746D01*
X108943810Y-75318745D01*
X108939003Y-75317591D01*
X108839184Y-75309735D01*
X108752255Y-75302893D01*
X108752248Y-75302893D01*
X108749799Y-75302700D01*
X108623401Y-75302700D01*
X108620952Y-75302893D01*
X108620945Y-75302893D01*
X108534016Y-75309735D01*
X108434197Y-75317591D01*
X108429390Y-75318745D01*
X108429384Y-75318746D01*
X108284624Y-75353500D01*
X108188009Y-75376695D01*
X108183438Y-75378588D01*
X108183436Y-75378589D01*
X107958672Y-75471689D01*
X107958668Y-75471691D01*
X107954098Y-75473584D01*
X107738224Y-75605872D01*
X107545702Y-75770302D01*
X107381272Y-75962824D01*
X107248984Y-76178698D01*
X107247091Y-76183268D01*
X107247089Y-76183272D01*
X107172600Y-76363106D01*
X107152095Y-76412609D01*
X107150940Y-76417421D01*
X107094547Y-76652316D01*
X107092991Y-76658797D01*
X107073126Y-76911200D01*
X105918120Y-76911200D01*
X105918625Y-74478739D01*
X105919146Y-71972240D01*
X107746063Y-71972240D01*
X107763763Y-72152760D01*
X107821018Y-72324873D01*
X107824665Y-72330895D01*
X107824666Y-72330897D01*
X107876924Y-72417185D01*
X107914980Y-72480024D01*
X107919869Y-72485087D01*
X107919870Y-72485088D01*
X107969848Y-72536841D01*
X108040982Y-72610502D01*
X108046878Y-72614360D01*
X108117658Y-72660677D01*
X108192759Y-72709822D01*
X108199363Y-72712278D01*
X108199365Y-72712279D01*
X108356158Y-72770590D01*
X108356160Y-72770590D01*
X108362768Y-72773048D01*
X108446595Y-72784233D01*
X108535580Y-72796107D01*
X108535584Y-72796107D01*
X108542561Y-72797038D01*
X108549572Y-72796400D01*
X108549576Y-72796400D01*
X108692059Y-72783432D01*
X108723200Y-72780598D01*
X108729902Y-72778420D01*
X108729904Y-72778420D01*
X108889009Y-72726724D01*
X108889012Y-72726723D01*
X108895708Y-72724547D01*
X109029005Y-72645086D01*
X109045460Y-72635277D01*
X109045462Y-72635276D01*
X109051512Y-72631669D01*
X109182866Y-72506582D01*
X109205917Y-72471887D01*
X109260272Y-72426218D01*
X109330692Y-72417185D01*
X109394816Y-72447657D01*
X109404495Y-72457299D01*
X109497747Y-72560866D01*
X109559089Y-72605434D01*
X109594228Y-72630964D01*
X109637582Y-72687187D01*
X109643657Y-72757923D01*
X109610525Y-72820714D01*
X109594228Y-72834836D01*
X109497747Y-72904934D01*
X109369960Y-73046856D01*
X109274473Y-73212244D01*
X109215458Y-73393872D01*
X109195496Y-73583800D01*
X109215458Y-73773728D01*
X109274473Y-73955356D01*
X109369960Y-74120744D01*
X109497747Y-74262666D01*
X109652248Y-74374918D01*
X109658276Y-74377602D01*
X109658278Y-74377603D01*
X109820681Y-74449909D01*
X109826712Y-74452594D01*
X109920112Y-74472447D01*
X110007056Y-74490928D01*
X110007061Y-74490928D01*
X110013513Y-74492300D01*
X110204487Y-74492300D01*
X110210939Y-74490928D01*
X110210944Y-74490928D01*
X110297888Y-74472447D01*
X110391288Y-74452594D01*
X110397319Y-74449909D01*
X110559722Y-74377603D01*
X110559724Y-74377602D01*
X110565752Y-74374918D01*
X110720253Y-74262666D01*
X110848040Y-74120744D01*
X110943527Y-73955356D01*
X111002542Y-73773728D01*
X111022504Y-73583800D01*
X111002542Y-73393872D01*
X110943527Y-73212244D01*
X110848040Y-73046856D01*
X110720253Y-72904934D01*
X110623772Y-72834836D01*
X110580418Y-72778613D01*
X110574343Y-72707877D01*
X110607475Y-72645086D01*
X110623772Y-72630964D01*
X110658911Y-72605434D01*
X110720253Y-72560866D01*
X110751547Y-72526111D01*
X110843621Y-72423852D01*
X110843622Y-72423851D01*
X110848040Y-72418944D01*
X110943527Y-72253556D01*
X111002542Y-72071928D01*
X111010350Y-71997640D01*
X125246663Y-71997640D01*
X125264363Y-72178160D01*
X125321618Y-72350273D01*
X125325265Y-72356295D01*
X125325266Y-72356297D01*
X125396550Y-72474001D01*
X125415580Y-72505424D01*
X125420469Y-72510487D01*
X125420470Y-72510488D01*
X125464381Y-72555959D01*
X125541582Y-72635902D01*
X125547478Y-72639760D01*
X125680373Y-72726724D01*
X125693359Y-72735222D01*
X125699963Y-72737678D01*
X125699965Y-72737679D01*
X125856758Y-72795990D01*
X125856760Y-72795990D01*
X125863368Y-72798448D01*
X125947195Y-72809633D01*
X126036180Y-72821507D01*
X126036184Y-72821507D01*
X126043161Y-72822438D01*
X126050172Y-72821800D01*
X126050176Y-72821800D01*
X126192659Y-72808832D01*
X126223800Y-72805998D01*
X126230502Y-72803820D01*
X126230504Y-72803820D01*
X126389609Y-72752124D01*
X126389612Y-72752123D01*
X126396308Y-72749947D01*
X126552112Y-72657069D01*
X126683466Y-72531982D01*
X126783843Y-72380902D01*
X126848255Y-72211338D01*
X126849235Y-72204366D01*
X126872948Y-72035639D01*
X126872948Y-72035636D01*
X126873499Y-72031717D01*
X126873816Y-72009000D01*
X126853597Y-71828745D01*
X126851280Y-71822091D01*
X126796264Y-71664106D01*
X126796262Y-71664103D01*
X126793945Y-71657448D01*
X126767991Y-71615912D01*
X126701559Y-71509598D01*
X126697826Y-71503624D01*
X126669692Y-71475293D01*
X126574978Y-71379915D01*
X126574974Y-71379912D01*
X126570015Y-71374918D01*
X126558897Y-71367862D01*
X126510738Y-71337300D01*
X126416866Y-71277727D01*
X126356147Y-71256106D01*
X126252625Y-71219243D01*
X126252620Y-71219242D01*
X126245990Y-71216881D01*
X126239002Y-71216048D01*
X126238999Y-71216047D01*
X126115898Y-71201368D01*
X126065880Y-71195404D01*
X126058877Y-71196140D01*
X126058876Y-71196140D01*
X125892488Y-71213628D01*
X125892486Y-71213629D01*
X125885488Y-71214364D01*
X125713779Y-71272818D01*
X125707775Y-71276512D01*
X125565295Y-71364166D01*
X125565292Y-71364168D01*
X125559288Y-71367862D01*
X125554253Y-71372793D01*
X125554250Y-71372795D01*
X125449583Y-71475293D01*
X125429693Y-71494771D01*
X125331435Y-71647238D01*
X125329026Y-71653858D01*
X125329024Y-71653861D01*
X125312728Y-71698635D01*
X125269397Y-71817685D01*
X125246663Y-71997640D01*
X111010350Y-71997640D01*
X111012283Y-71979253D01*
X111021814Y-71888565D01*
X111022504Y-71882000D01*
X111002542Y-71692072D01*
X110943527Y-71510444D01*
X110939590Y-71503624D01*
X110906049Y-71445531D01*
X110848040Y-71345056D01*
X110842377Y-71338766D01*
X110724675Y-71208045D01*
X110724674Y-71208044D01*
X110720253Y-71203134D01*
X110565752Y-71090882D01*
X110559724Y-71088198D01*
X110559722Y-71088197D01*
X110397319Y-71015891D01*
X110397318Y-71015891D01*
X110391288Y-71013206D01*
X110297888Y-70993353D01*
X110210944Y-70974872D01*
X110210939Y-70974872D01*
X110204487Y-70973500D01*
X110013513Y-70973500D01*
X110007061Y-70974872D01*
X110007056Y-70974872D01*
X109920112Y-70993353D01*
X109826712Y-71013206D01*
X109820682Y-71015891D01*
X109820681Y-71015891D01*
X109658278Y-71088197D01*
X109658276Y-71088198D01*
X109652248Y-71090882D01*
X109497747Y-71203134D01*
X109493326Y-71208044D01*
X109493325Y-71208045D01*
X109375624Y-71338766D01*
X109369960Y-71345056D01*
X109349834Y-71379915D01*
X109340237Y-71396538D01*
X109288854Y-71445531D01*
X109219140Y-71458966D01*
X109153229Y-71432579D01*
X109141712Y-71422321D01*
X109074378Y-71354515D01*
X109074374Y-71354512D01*
X109069415Y-71349518D01*
X109058297Y-71342462D01*
X109010138Y-71311900D01*
X108916266Y-71252327D01*
X108887063Y-71241928D01*
X108752025Y-71193843D01*
X108752020Y-71193842D01*
X108745390Y-71191481D01*
X108738402Y-71190648D01*
X108738399Y-71190647D01*
X108615298Y-71175968D01*
X108565280Y-71170004D01*
X108558277Y-71170740D01*
X108558276Y-71170740D01*
X108391888Y-71188228D01*
X108391886Y-71188229D01*
X108384888Y-71188964D01*
X108213179Y-71247418D01*
X108207175Y-71251112D01*
X108064695Y-71338766D01*
X108064692Y-71338768D01*
X108058688Y-71342462D01*
X108053653Y-71347393D01*
X108053650Y-71347395D01*
X107939718Y-71458966D01*
X107929093Y-71469371D01*
X107830835Y-71621838D01*
X107828426Y-71628458D01*
X107828424Y-71628461D01*
X107802883Y-71698635D01*
X107768797Y-71792285D01*
X107746063Y-71972240D01*
X105919146Y-71972240D01*
X105919699Y-69308844D01*
X105939715Y-69240729D01*
X105993381Y-69194248D01*
X106063657Y-69184158D01*
X106128231Y-69213665D01*
X106160804Y-69257620D01*
X106162434Y-69261282D01*
X106164473Y-69267556D01*
X106259960Y-69432944D01*
X106387747Y-69574866D01*
X106542248Y-69687118D01*
X106548276Y-69689802D01*
X106548278Y-69689803D01*
X106710681Y-69762109D01*
X106716712Y-69764794D01*
X106810112Y-69784647D01*
X106897056Y-69803128D01*
X106897061Y-69803128D01*
X106903513Y-69804500D01*
X107094487Y-69804500D01*
X107100939Y-69803128D01*
X107100944Y-69803128D01*
X107187888Y-69784647D01*
X107281288Y-69764794D01*
X107287319Y-69762109D01*
X107449722Y-69689803D01*
X107449724Y-69689802D01*
X107455752Y-69687118D01*
X107610253Y-69574866D01*
X107738040Y-69432944D01*
X107833527Y-69267556D01*
X107892542Y-69085928D01*
X107912504Y-68896000D01*
X107892542Y-68706072D01*
X107872276Y-68643699D01*
X107870249Y-68572731D01*
X107906911Y-68511933D01*
X107918041Y-68502833D01*
X107926253Y-68496866D01*
X108054040Y-68354944D01*
X108112314Y-68254010D01*
X108146223Y-68195279D01*
X108146224Y-68195278D01*
X108149527Y-68189556D01*
X108208542Y-68007928D01*
X108228504Y-67818000D01*
X108208542Y-67628072D01*
X108149527Y-67446444D01*
X108054040Y-67281056D01*
X107926253Y-67139134D01*
X107771752Y-67026882D01*
X107765724Y-67024198D01*
X107765722Y-67024197D01*
X107603319Y-66951891D01*
X107603318Y-66951891D01*
X107597288Y-66949206D01*
X107503888Y-66929353D01*
X107416944Y-66910872D01*
X107416939Y-66910872D01*
X107410487Y-66909500D01*
X107219513Y-66909500D01*
X107213061Y-66910872D01*
X107213056Y-66910872D01*
X107126112Y-66929353D01*
X107032712Y-66949206D01*
X107026682Y-66951891D01*
X107026681Y-66951891D01*
X106864278Y-67024197D01*
X106864276Y-67024198D01*
X106858248Y-67026882D01*
X106703747Y-67139134D01*
X106575960Y-67281056D01*
X106480473Y-67446444D01*
X106421458Y-67628072D01*
X106401496Y-67818000D01*
X106421458Y-68007928D01*
X106423498Y-68014206D01*
X106441724Y-68070301D01*
X106443751Y-68141269D01*
X106407089Y-68202067D01*
X106395959Y-68211167D01*
X106387747Y-68217134D01*
X106259960Y-68359056D01*
X106256659Y-68364774D01*
X106183231Y-68491955D01*
X106164473Y-68524444D01*
X106162431Y-68530728D01*
X106160978Y-68533992D01*
X106114997Y-68588088D01*
X106047070Y-68608737D01*
X105978762Y-68589384D01*
X105931761Y-68536174D01*
X105919871Y-68482717D01*
X105919928Y-68211175D01*
X105921126Y-62440731D01*
X105921221Y-61985485D01*
X105941237Y-61917368D01*
X105994903Y-61870886D01*
X106065179Y-61860797D01*
X106129753Y-61890304D01*
X106154654Y-61919676D01*
X106212694Y-62014388D01*
X106218777Y-62022699D01*
X106358213Y-62183667D01*
X106365580Y-62190883D01*
X106529434Y-62326916D01*
X106537881Y-62332831D01*
X106721756Y-62440279D01*
X106731042Y-62444729D01*
X106930001Y-62520703D01*
X106939899Y-62523579D01*
X107043250Y-62544606D01*
X107057299Y-62543410D01*
X107061000Y-62533065D01*
X107061000Y-62532517D01*
X107569000Y-62532517D01*
X107573064Y-62546359D01*
X107586478Y-62548393D01*
X107593184Y-62547534D01*
X107603262Y-62545392D01*
X107807255Y-62484191D01*
X107816842Y-62480433D01*
X108008095Y-62386739D01*
X108016945Y-62381464D01*
X108190328Y-62257792D01*
X108198200Y-62251139D01*
X108349052Y-62100812D01*
X108355730Y-62092965D01*
X108483022Y-61915819D01*
X108484279Y-61916722D01*
X108531373Y-61873362D01*
X108601311Y-61861145D01*
X108666751Y-61888678D01*
X108694579Y-61920511D01*
X108754987Y-62019088D01*
X108901250Y-62187938D01*
X109073126Y-62330632D01*
X109266000Y-62443338D01*
X109474692Y-62523030D01*
X109479760Y-62524061D01*
X109479763Y-62524062D01*
X109574862Y-62543410D01*
X109693597Y-62567567D01*
X109698772Y-62567757D01*
X109698774Y-62567757D01*
X109911673Y-62575564D01*
X109911677Y-62575564D01*
X109916837Y-62575753D01*
X109921957Y-62575097D01*
X109921959Y-62575097D01*
X110133288Y-62548025D01*
X110133289Y-62548025D01*
X110138416Y-62547368D01*
X110143366Y-62545883D01*
X110347429Y-62484661D01*
X110347434Y-62484659D01*
X110352384Y-62483174D01*
X110552994Y-62384896D01*
X110734860Y-62255173D01*
X110843091Y-62147319D01*
X110905462Y-62113404D01*
X110976268Y-62118592D01*
X111033030Y-62161238D01*
X111050012Y-62192341D01*
X111094385Y-62310705D01*
X111181739Y-62427261D01*
X111298295Y-62514615D01*
X111434684Y-62565745D01*
X111496866Y-62572500D01*
X113293134Y-62572500D01*
X113355316Y-62565745D01*
X113491705Y-62514615D01*
X113608261Y-62427261D01*
X113695615Y-62310705D01*
X113746745Y-62174316D01*
X113753500Y-62112134D01*
X113753500Y-60315866D01*
X113746745Y-60253684D01*
X113695615Y-60117295D01*
X113608261Y-60000739D01*
X113491705Y-59913385D01*
X113355316Y-59862255D01*
X113293134Y-59855500D01*
X111496866Y-59855500D01*
X111434684Y-59862255D01*
X111298295Y-59913385D01*
X111181739Y-60000739D01*
X111094385Y-60117295D01*
X111091233Y-60125703D01*
X111049919Y-60235907D01*
X111007277Y-60292671D01*
X110940716Y-60317371D01*
X110871367Y-60302163D01*
X110838743Y-60276476D01*
X110788151Y-60220875D01*
X110788142Y-60220866D01*
X110784670Y-60217051D01*
X110780619Y-60213852D01*
X110780615Y-60213848D01*
X110613414Y-60081800D01*
X110613410Y-60081798D01*
X110609359Y-60078598D01*
X110573028Y-60058542D01*
X110557136Y-60049769D01*
X110413789Y-59970638D01*
X110408920Y-59968914D01*
X110408916Y-59968912D01*
X110208087Y-59897795D01*
X110208083Y-59897794D01*
X110203212Y-59896069D01*
X110198119Y-59895162D01*
X110198116Y-59895161D01*
X109988373Y-59857800D01*
X109988367Y-59857799D01*
X109983284Y-59856894D01*
X109909452Y-59855992D01*
X109765081Y-59854228D01*
X109765079Y-59854228D01*
X109759911Y-59854165D01*
X109539091Y-59887955D01*
X109326756Y-59957357D01*
X109128607Y-60060507D01*
X109124474Y-60063610D01*
X109124471Y-60063612D01*
X108954100Y-60191530D01*
X108949965Y-60194635D01*
X108924541Y-60221240D01*
X108856280Y-60292671D01*
X108795629Y-60356138D01*
X108792715Y-60360410D01*
X108792714Y-60360411D01*
X108687898Y-60514066D01*
X108632987Y-60559069D01*
X108562462Y-60567240D01*
X108498715Y-60535986D01*
X108478018Y-60511502D01*
X108397426Y-60386926D01*
X108391136Y-60378757D01*
X108247806Y-60221240D01*
X108240273Y-60214215D01*
X108073139Y-60082222D01*
X108064552Y-60076517D01*
X107878117Y-59973599D01*
X107868705Y-59969369D01*
X107667959Y-59898280D01*
X107657988Y-59895646D01*
X107586837Y-59882972D01*
X107573540Y-59884432D01*
X107569000Y-59898989D01*
X107569000Y-62532517D01*
X107061000Y-62532517D01*
X107061000Y-59897102D01*
X107057082Y-59883758D01*
X107042806Y-59881771D01*
X107004324Y-59887660D01*
X106994288Y-59890051D01*
X106791868Y-59956212D01*
X106782359Y-59960209D01*
X106593463Y-60058542D01*
X106584738Y-60064036D01*
X106414433Y-60191905D01*
X106406726Y-60198748D01*
X106259590Y-60352717D01*
X106253104Y-60360727D01*
X106151630Y-60509482D01*
X106096719Y-60554485D01*
X106026194Y-60562656D01*
X105962447Y-60531402D01*
X105925717Y-60470645D01*
X105921542Y-60438452D01*
X105921555Y-60378757D01*
X105922022Y-58128271D01*
X105942038Y-58060155D01*
X105995704Y-58013673D01*
X106065980Y-58003584D01*
X106130554Y-58033091D01*
X106155455Y-58062463D01*
X106229987Y-58184088D01*
X106376250Y-58352938D01*
X106548126Y-58495632D01*
X106741000Y-58608338D01*
X106949692Y-58688030D01*
X106954760Y-58689061D01*
X106954763Y-58689062D01*
X107062017Y-58710883D01*
X107168597Y-58732567D01*
X107173772Y-58732757D01*
X107173774Y-58732757D01*
X107386673Y-58740564D01*
X107386677Y-58740564D01*
X107391837Y-58740753D01*
X107396957Y-58740097D01*
X107396959Y-58740097D01*
X107608288Y-58713025D01*
X107608289Y-58713025D01*
X107613416Y-58712368D01*
X107618366Y-58710883D01*
X107822429Y-58649661D01*
X107822434Y-58649659D01*
X107827384Y-58648174D01*
X108027994Y-58549896D01*
X108209860Y-58420173D01*
X108368096Y-58262489D01*
X108498453Y-58081077D01*
X108499776Y-58082028D01*
X108546645Y-58038857D01*
X108616580Y-58026625D01*
X108682026Y-58054144D01*
X108709875Y-58085994D01*
X108769987Y-58184088D01*
X108916250Y-58352938D01*
X109088126Y-58495632D01*
X109281000Y-58608338D01*
X109489692Y-58688030D01*
X109494760Y-58689061D01*
X109494763Y-58689062D01*
X109602017Y-58710883D01*
X109708597Y-58732567D01*
X109713772Y-58732757D01*
X109713774Y-58732757D01*
X109926673Y-58740564D01*
X109926677Y-58740564D01*
X109931837Y-58740753D01*
X109936957Y-58740097D01*
X109936959Y-58740097D01*
X110148288Y-58713025D01*
X110148289Y-58713025D01*
X110153416Y-58712368D01*
X110158366Y-58710883D01*
X110362429Y-58649661D01*
X110362434Y-58649659D01*
X110367384Y-58648174D01*
X110567994Y-58549896D01*
X110749860Y-58420173D01*
X110858091Y-58312319D01*
X110920462Y-58278404D01*
X110991268Y-58283592D01*
X111048030Y-58326238D01*
X111065012Y-58357341D01*
X111109385Y-58475705D01*
X111196739Y-58592261D01*
X111313295Y-58679615D01*
X111449684Y-58730745D01*
X111511866Y-58737500D01*
X113308134Y-58737500D01*
X113370316Y-58730745D01*
X113506705Y-58679615D01*
X113623261Y-58592261D01*
X113710615Y-58475705D01*
X113761745Y-58339316D01*
X113768500Y-58277134D01*
X113768500Y-56909966D01*
X132526257Y-56909966D01*
X132556565Y-57044446D01*
X132559645Y-57054275D01*
X132639770Y-57251603D01*
X132644413Y-57260794D01*
X132755694Y-57442388D01*
X132761777Y-57450699D01*
X132901213Y-57611667D01*
X132908580Y-57618883D01*
X133072434Y-57754916D01*
X133080881Y-57760831D01*
X133264756Y-57868279D01*
X133274042Y-57872729D01*
X133473001Y-57948703D01*
X133482899Y-57951579D01*
X133586250Y-57972606D01*
X133600299Y-57971410D01*
X133604000Y-57961065D01*
X133604000Y-56914115D01*
X133599525Y-56898876D01*
X133598135Y-56897671D01*
X133590452Y-56896000D01*
X132541225Y-56896000D01*
X132527694Y-56899973D01*
X132526257Y-56909966D01*
X113768500Y-56909966D01*
X113768500Y-56480866D01*
X113761745Y-56418684D01*
X113745812Y-56376183D01*
X132522389Y-56376183D01*
X132523912Y-56384607D01*
X132536292Y-56388000D01*
X133585885Y-56388000D01*
X133601124Y-56383525D01*
X133602329Y-56382135D01*
X133604000Y-56374452D01*
X133604000Y-55325102D01*
X133600082Y-55311758D01*
X133585806Y-55309771D01*
X133547324Y-55315660D01*
X133537288Y-55318051D01*
X133334868Y-55384212D01*
X133325359Y-55388209D01*
X133136463Y-55486542D01*
X133127738Y-55492036D01*
X132957433Y-55619905D01*
X132949726Y-55626748D01*
X132802590Y-55780717D01*
X132796104Y-55788727D01*
X132676098Y-55964649D01*
X132671000Y-55973623D01*
X132581338Y-56166783D01*
X132577775Y-56176470D01*
X132522389Y-56376183D01*
X113745812Y-56376183D01*
X113710615Y-56282295D01*
X113623261Y-56165739D01*
X113506705Y-56078385D01*
X113370316Y-56027255D01*
X113308134Y-56020500D01*
X111511866Y-56020500D01*
X111449684Y-56027255D01*
X111313295Y-56078385D01*
X111196739Y-56165739D01*
X111109385Y-56282295D01*
X111106233Y-56290703D01*
X111064919Y-56400907D01*
X111022277Y-56457671D01*
X110955716Y-56482371D01*
X110886367Y-56467163D01*
X110853743Y-56441476D01*
X110803151Y-56385875D01*
X110803142Y-56385866D01*
X110799670Y-56382051D01*
X110795619Y-56378852D01*
X110795615Y-56378848D01*
X110628414Y-56246800D01*
X110628410Y-56246798D01*
X110624359Y-56243598D01*
X110428789Y-56135638D01*
X110423920Y-56133914D01*
X110423916Y-56133912D01*
X110223087Y-56062795D01*
X110223083Y-56062794D01*
X110218212Y-56061069D01*
X110213119Y-56060162D01*
X110213116Y-56060161D01*
X110003373Y-56022800D01*
X110003367Y-56022799D01*
X109998284Y-56021894D01*
X109924452Y-56020992D01*
X109780081Y-56019228D01*
X109780079Y-56019228D01*
X109774911Y-56019165D01*
X109554091Y-56052955D01*
X109341756Y-56122357D01*
X109143607Y-56225507D01*
X109139474Y-56228610D01*
X109139471Y-56228612D01*
X108969100Y-56356530D01*
X108964965Y-56359635D01*
X108937859Y-56388000D01*
X108871280Y-56457671D01*
X108810629Y-56521138D01*
X108703201Y-56678621D01*
X108648293Y-56723621D01*
X108577768Y-56731792D01*
X108514021Y-56700538D01*
X108493324Y-56676054D01*
X108412822Y-56551617D01*
X108412820Y-56551614D01*
X108410014Y-56547277D01*
X108259670Y-56382051D01*
X108255619Y-56378852D01*
X108255615Y-56378848D01*
X108088414Y-56246800D01*
X108088410Y-56246798D01*
X108084359Y-56243598D01*
X107888789Y-56135638D01*
X107883920Y-56133914D01*
X107883916Y-56133912D01*
X107683087Y-56062795D01*
X107683083Y-56062794D01*
X107678212Y-56061069D01*
X107673119Y-56060162D01*
X107673116Y-56060161D01*
X107463373Y-56022800D01*
X107463367Y-56022799D01*
X107458284Y-56021894D01*
X107384452Y-56020992D01*
X107240081Y-56019228D01*
X107240079Y-56019228D01*
X107234911Y-56019165D01*
X107014091Y-56052955D01*
X106801756Y-56122357D01*
X106603607Y-56225507D01*
X106599474Y-56228610D01*
X106599471Y-56228612D01*
X106429100Y-56356530D01*
X106424965Y-56359635D01*
X106397859Y-56388000D01*
X106331280Y-56457671D01*
X106270629Y-56521138D01*
X106163204Y-56678618D01*
X106152423Y-56694422D01*
X106097512Y-56739425D01*
X106026987Y-56747596D01*
X105963240Y-56716342D01*
X105926510Y-56655585D01*
X105922335Y-56623392D01*
X105922695Y-54889400D01*
X112980096Y-54889400D01*
X113000058Y-55079328D01*
X113059073Y-55260956D01*
X113154560Y-55426344D01*
X113158978Y-55431251D01*
X113158979Y-55431252D01*
X113255194Y-55538110D01*
X113282347Y-55568266D01*
X113436848Y-55680518D01*
X113442876Y-55683202D01*
X113442878Y-55683203D01*
X113605281Y-55755509D01*
X113611312Y-55758194D01*
X113704713Y-55778047D01*
X113791656Y-55796528D01*
X113791661Y-55796528D01*
X113798113Y-55797900D01*
X113989087Y-55797900D01*
X113995539Y-55796528D01*
X113995544Y-55796528D01*
X114082487Y-55778047D01*
X114175888Y-55758194D01*
X114181919Y-55755509D01*
X114344322Y-55683203D01*
X114344324Y-55683202D01*
X114350352Y-55680518D01*
X114504853Y-55568266D01*
X114532006Y-55538110D01*
X114628221Y-55431252D01*
X114628222Y-55431251D01*
X114632640Y-55426344D01*
X114728127Y-55260956D01*
X114787142Y-55079328D01*
X114807104Y-54889400D01*
X114787142Y-54699472D01*
X114728127Y-54517844D01*
X114632640Y-54352456D01*
X114587344Y-54302149D01*
X114509275Y-54215445D01*
X114509274Y-54215444D01*
X114504853Y-54210534D01*
X114350352Y-54098282D01*
X114344324Y-54095598D01*
X114344322Y-54095597D01*
X114181919Y-54023291D01*
X114181918Y-54023291D01*
X114175888Y-54020606D01*
X114082488Y-54000753D01*
X113995544Y-53982272D01*
X113995539Y-53982272D01*
X113989087Y-53980900D01*
X113798113Y-53980900D01*
X113791661Y-53982272D01*
X113791656Y-53982272D01*
X113704712Y-54000753D01*
X113611312Y-54020606D01*
X113605282Y-54023291D01*
X113605281Y-54023291D01*
X113442878Y-54095597D01*
X113442876Y-54095598D01*
X113436848Y-54098282D01*
X113282347Y-54210534D01*
X113277926Y-54215444D01*
X113277925Y-54215445D01*
X113199857Y-54302149D01*
X113154560Y-54352456D01*
X113059073Y-54517844D01*
X113000058Y-54699472D01*
X112980096Y-54889400D01*
X105922695Y-54889400D01*
X105923608Y-50495200D01*
X107073126Y-50495200D01*
X107092991Y-50747603D01*
X107094145Y-50752410D01*
X107094146Y-50752416D01*
X107104002Y-50793469D01*
X107152095Y-50993791D01*
X107153988Y-50998362D01*
X107153989Y-50998364D01*
X107220530Y-51159007D01*
X107248984Y-51227702D01*
X107381272Y-51443576D01*
X107545702Y-51636098D01*
X107738224Y-51800528D01*
X107954098Y-51932816D01*
X107958668Y-51934709D01*
X107958672Y-51934711D01*
X108183436Y-52027811D01*
X108188009Y-52029705D01*
X108272632Y-52050021D01*
X108429384Y-52087654D01*
X108429390Y-52087655D01*
X108434197Y-52088809D01*
X108534016Y-52096665D01*
X108620945Y-52103507D01*
X108620952Y-52103507D01*
X108623401Y-52103700D01*
X108749799Y-52103700D01*
X108752248Y-52103507D01*
X108752255Y-52103507D01*
X108839184Y-52096665D01*
X108939003Y-52088809D01*
X108943810Y-52087655D01*
X108943816Y-52087654D01*
X109100568Y-52050021D01*
X109185191Y-52029705D01*
X109189764Y-52027811D01*
X109414528Y-51934711D01*
X109414532Y-51934709D01*
X109419102Y-51932816D01*
X109634976Y-51800528D01*
X109827498Y-51636098D01*
X109991928Y-51443576D01*
X110124216Y-51227702D01*
X110152671Y-51159007D01*
X110219211Y-50998364D01*
X110219212Y-50998362D01*
X110221105Y-50993791D01*
X110269198Y-50793469D01*
X110279054Y-50752416D01*
X110279055Y-50752410D01*
X110280209Y-50747603D01*
X110300074Y-50495200D01*
X110280209Y-50242797D01*
X110270886Y-50203960D01*
X110232203Y-50042836D01*
X110221105Y-49996609D01*
X110188385Y-49917615D01*
X110126111Y-49767272D01*
X110126109Y-49767268D01*
X110124216Y-49762698D01*
X109991928Y-49546824D01*
X109827498Y-49354302D01*
X109634976Y-49189872D01*
X109419102Y-49057584D01*
X109414532Y-49055691D01*
X109414528Y-49055689D01*
X109189764Y-48962589D01*
X109189762Y-48962588D01*
X109185191Y-48960695D01*
X109088576Y-48937500D01*
X108943816Y-48902746D01*
X108943810Y-48902745D01*
X108939003Y-48901591D01*
X108839184Y-48893735D01*
X108752255Y-48886893D01*
X108752248Y-48886893D01*
X108749799Y-48886700D01*
X108623401Y-48886700D01*
X108620952Y-48886893D01*
X108620945Y-48886893D01*
X108534016Y-48893735D01*
X108434197Y-48901591D01*
X108429390Y-48902745D01*
X108429384Y-48902746D01*
X108284624Y-48937500D01*
X108188009Y-48960695D01*
X108183438Y-48962588D01*
X108183436Y-48962589D01*
X107958672Y-49055689D01*
X107958668Y-49055691D01*
X107954098Y-49057584D01*
X107738224Y-49189872D01*
X107545702Y-49354302D01*
X107381272Y-49546824D01*
X107248984Y-49762698D01*
X107247091Y-49767268D01*
X107247089Y-49767272D01*
X107184815Y-49917615D01*
X107152095Y-49996609D01*
X107140997Y-50042836D01*
X107102315Y-50203960D01*
X107092991Y-50242797D01*
X107073126Y-50495200D01*
X105923608Y-50495200D01*
X105923843Y-49364323D01*
X105925308Y-49345189D01*
X105926783Y-49335601D01*
X105929050Y-49320867D01*
X105927190Y-49306840D01*
X105926468Y-49280616D01*
X105939654Y-49109286D01*
X105942718Y-49089730D01*
X105988181Y-48899066D01*
X105994271Y-48880232D01*
X106069030Y-48699050D01*
X106077993Y-48681402D01*
X106180209Y-48514156D01*
X106191822Y-48498135D01*
X106318973Y-48348958D01*
X106332952Y-48334954D01*
X106481891Y-48207537D01*
X106497897Y-48195890D01*
X106664953Y-48093372D01*
X106682585Y-48084376D01*
X106822675Y-48026274D01*
X106863637Y-48009285D01*
X106882450Y-48003165D01*
X107073035Y-47957354D01*
X107092583Y-47954254D01*
X107256900Y-47941307D01*
X107273762Y-47941947D01*
X107273764Y-47941773D01*
X107282733Y-47941882D01*
X107291608Y-47943264D01*
X107323130Y-47939142D01*
X107339467Y-47938078D01*
X113975789Y-47938078D01*
X114043910Y-47958080D01*
G37*
%TD.AperFunction*%
%TD*%
M02*
