%TF.GenerationSoftware,KiCad,Pcbnew,(6.0.2)*%
%TF.CreationDate,2022-12-08T21:29:48-08:00*%
%TF.ProjectId,touch_sensor_light,746f7563-685f-4736-956e-736f725f6c69,rev?*%
%TF.SameCoordinates,Original*%
%TF.FileFunction,Copper,L3,Inr*%
%TF.FilePolarity,Positive*%
%FSLAX46Y46*%
G04 Gerber Fmt 4.6, Leading zero omitted, Abs format (unit mm)*
G04 Created by KiCad (PCBNEW (6.0.2)) date 2022-12-08 21:29:48*
%MOMM*%
%LPD*%
G01*
G04 APERTURE LIST*
%TA.AperFunction,ComponentPad*%
%ADD10R,1.700000X1.700000*%
%TD*%
%TA.AperFunction,ComponentPad*%
%ADD11O,1.700000X1.700000*%
%TD*%
%TA.AperFunction,ComponentPad*%
%ADD12C,1.450000*%
%TD*%
%TA.AperFunction,ComponentPad*%
%ADD13O,1.200000X1.900000*%
%TD*%
%TA.AperFunction,ViaPad*%
%ADD14C,0.800000*%
%TD*%
%TA.AperFunction,ViaPad*%
%ADD15C,0.600000*%
%TD*%
%TA.AperFunction,ViaPad*%
%ADD16C,0.400000*%
%TD*%
G04 APERTURE END LIST*
D10*
%TO.N,/Touch*%
%TO.C,J6*%
X129540000Y-75692000D03*
%TD*%
%TO.N,+5V*%
%TO.C,J1*%
X136398000Y-56642000D03*
D11*
%TO.N,GND*%
X133858000Y-56642000D03*
%TD*%
D12*
%TO.N,unconnected-(J5-Pad6)*%
%TO.C,J5*%
X121118000Y-51582500D03*
D13*
X122118000Y-48882500D03*
D12*
X116118000Y-51582500D03*
D13*
X115118000Y-48882500D03*
%TD*%
D10*
%TO.N,Net-(C3-Pad1)*%
%TO.C,J4*%
X115570000Y-75692000D03*
%TD*%
%TO.N,+5V*%
%TO.C,J2*%
X112395000Y-61214000D03*
D11*
%TO.N,/~{RST}*%
X109855000Y-61214000D03*
%TO.N,GND*%
X107315000Y-61214000D03*
%TD*%
D10*
%TO.N,Net-(J3-Pad1)*%
%TO.C,J3*%
X112410000Y-57379000D03*
D11*
%TO.N,Net-(J3-Pad2)*%
X109870000Y-57379000D03*
%TO.N,Net-(J3-Pad3)*%
X107330000Y-57379000D03*
%TD*%
D14*
%TO.N,+5V*%
X127116300Y-48829500D03*
X107315000Y-67818000D03*
D15*
X125222000Y-76708000D03*
D14*
X113893600Y-54889400D03*
X119913400Y-53619400D03*
D15*
X126441200Y-78740000D03*
D14*
X106999000Y-68896000D03*
X125969300Y-48829500D03*
X122936000Y-53517800D03*
X120980200Y-53119700D03*
%TO.N,GND*%
X119126000Y-78740000D03*
X125222000Y-57658000D03*
X119380000Y-63500000D03*
X127762000Y-60198000D03*
X126492000Y-60198000D03*
D16*
X120497600Y-76403200D03*
D14*
X126441200Y-74676000D03*
X136652000Y-69850000D03*
X121666000Y-64770000D03*
X118110000Y-64770000D03*
X123825000Y-78613000D03*
X127762000Y-56388000D03*
X119380000Y-67310000D03*
X120650000Y-67310000D03*
X111760000Y-68961000D03*
X136666000Y-73646000D03*
X120650000Y-63500000D03*
X117318000Y-53564000D03*
X126492000Y-56388000D03*
X123825000Y-74803000D03*
X116179600Y-53213000D03*
X128778000Y-57658000D03*
%TO.N,/~{RST}*%
X110109000Y-71882000D03*
D15*
%TO.N,Net-(J3-Pad3)*%
X108559600Y-71983600D03*
%TO.N,Net-(R3-Pad1)*%
X126060200Y-72009000D03*
D14*
X110109000Y-73583800D03*
%TD*%
%TA.AperFunction,Conductor*%
%TO.N,+5V*%
G36*
X114043910Y-47958080D02*
G01*
X114090403Y-48011736D01*
X114100507Y-48082010D01*
X114092657Y-48111171D01*
X114050314Y-48216237D01*
X114009772Y-48423837D01*
X114009500Y-48429399D01*
X114009500Y-49285346D01*
X114024548Y-49443066D01*
X114084092Y-49646034D01*
X114086836Y-49651361D01*
X114086836Y-49651362D01*
X114170342Y-49813498D01*
X114180942Y-49834080D01*
X114311604Y-50000420D01*
X114316135Y-50004352D01*
X114316138Y-50004355D01*
X114402058Y-50078912D01*
X114471363Y-50139052D01*
X114476549Y-50142052D01*
X114476553Y-50142055D01*
X114572957Y-50197826D01*
X114654454Y-50244973D01*
X114854271Y-50314361D01*
X114860206Y-50315222D01*
X114860208Y-50315222D01*
X115057664Y-50343852D01*
X115057667Y-50343852D01*
X115063604Y-50344713D01*
X115274899Y-50334933D01*
X115351347Y-50316509D01*
X115422258Y-50319994D01*
X115480028Y-50361263D01*
X115506315Y-50427214D01*
X115492774Y-50496907D01*
X115453139Y-50542215D01*
X115447734Y-50546000D01*
X115322093Y-50633975D01*
X115169475Y-50786593D01*
X115166318Y-50791101D01*
X115166316Y-50791104D01*
X115157835Y-50803216D01*
X115045677Y-50963394D01*
X115043354Y-50968376D01*
X115043351Y-50968381D01*
X114956784Y-51154025D01*
X114954461Y-51159007D01*
X114953039Y-51164315D01*
X114953038Y-51164317D01*
X114923668Y-51273928D01*
X114898599Y-51367487D01*
X114879788Y-51582500D01*
X114898599Y-51797513D01*
X114900023Y-51802826D01*
X114900023Y-51802828D01*
X114913711Y-51853910D01*
X114954461Y-52005993D01*
X114956783Y-52010974D01*
X114956784Y-52010975D01*
X115043351Y-52196619D01*
X115043354Y-52196624D01*
X115045677Y-52201606D01*
X115169475Y-52378407D01*
X115322093Y-52531025D01*
X115371508Y-52565626D01*
X115415835Y-52621083D01*
X115423143Y-52691702D01*
X115408354Y-52731838D01*
X115357043Y-52820712D01*
X115345073Y-52841444D01*
X115286058Y-53023072D01*
X115266096Y-53213000D01*
X115286058Y-53402928D01*
X115345073Y-53584556D01*
X115440560Y-53749944D01*
X115568347Y-53891866D01*
X115722848Y-54004118D01*
X115728876Y-54006802D01*
X115728878Y-54006803D01*
X115812975Y-54044245D01*
X115897312Y-54081794D01*
X115987405Y-54100944D01*
X116077656Y-54120128D01*
X116077661Y-54120128D01*
X116084113Y-54121500D01*
X116275087Y-54121500D01*
X116281539Y-54120128D01*
X116281544Y-54120128D01*
X116455433Y-54083166D01*
X116455432Y-54083166D01*
X116461888Y-54081794D01*
X116462851Y-54081365D01*
X116531761Y-54079395D01*
X116593366Y-54116944D01*
X116706747Y-54242866D01*
X116861248Y-54355118D01*
X116867276Y-54357802D01*
X116867278Y-54357803D01*
X117029681Y-54430109D01*
X117035712Y-54432794D01*
X117129112Y-54452647D01*
X117216056Y-54471128D01*
X117216061Y-54471128D01*
X117222513Y-54472500D01*
X117413487Y-54472500D01*
X117419939Y-54471128D01*
X117419944Y-54471128D01*
X117506887Y-54452647D01*
X117600288Y-54432794D01*
X117606319Y-54430109D01*
X117768722Y-54357803D01*
X117768724Y-54357802D01*
X117774752Y-54355118D01*
X117929253Y-54242866D01*
X118057040Y-54100944D01*
X118152527Y-53935556D01*
X118211542Y-53753928D01*
X118231504Y-53564000D01*
X118211542Y-53374072D01*
X118152527Y-53192444D01*
X118057040Y-53027056D01*
X117929253Y-52885134D01*
X117774752Y-52772882D01*
X117768724Y-52770198D01*
X117768722Y-52770197D01*
X117606319Y-52697891D01*
X117606318Y-52697891D01*
X117600288Y-52695206D01*
X117506887Y-52675353D01*
X117419944Y-52656872D01*
X117419939Y-52656872D01*
X117413487Y-52655500D01*
X117222513Y-52655500D01*
X117216061Y-52656872D01*
X117216056Y-52656872D01*
X117125805Y-52676056D01*
X117088601Y-52683964D01*
X117017811Y-52678562D01*
X116961179Y-52635745D01*
X116936685Y-52569108D01*
X116952106Y-52499806D01*
X116973310Y-52471622D01*
X117066525Y-52378407D01*
X117190323Y-52201606D01*
X117192646Y-52196624D01*
X117192649Y-52196619D01*
X117279216Y-52010975D01*
X117279217Y-52010974D01*
X117281539Y-52005993D01*
X117322290Y-51853910D01*
X117335977Y-51802828D01*
X117335977Y-51802826D01*
X117337401Y-51797513D01*
X117356212Y-51582500D01*
X117337401Y-51367487D01*
X117312332Y-51273928D01*
X117282962Y-51164317D01*
X117282961Y-51164315D01*
X117281539Y-51159007D01*
X117279216Y-51154025D01*
X117192649Y-50968381D01*
X117192646Y-50968376D01*
X117190323Y-50963394D01*
X117078165Y-50803216D01*
X117069684Y-50791104D01*
X117069682Y-50791101D01*
X117066525Y-50786593D01*
X116913907Y-50633975D01*
X116737106Y-50510177D01*
X116732124Y-50507854D01*
X116732119Y-50507851D01*
X116546475Y-50421284D01*
X116546474Y-50421283D01*
X116541493Y-50418961D01*
X116536185Y-50417539D01*
X116536183Y-50417538D01*
X116338328Y-50364523D01*
X116338326Y-50364523D01*
X116333013Y-50363099D01*
X116118000Y-50344288D01*
X115902987Y-50363099D01*
X115897674Y-50364523D01*
X115897672Y-50364523D01*
X115837216Y-50380722D01*
X115766239Y-50379032D01*
X115707444Y-50339238D01*
X115679496Y-50273973D01*
X115691270Y-50203960D01*
X115731705Y-50156245D01*
X115751710Y-50142055D01*
X115845611Y-50075446D01*
X115991881Y-49922650D01*
X116106620Y-49744952D01*
X116148801Y-49640286D01*
X116183442Y-49554332D01*
X116183443Y-49554329D01*
X116185686Y-49548763D01*
X116226228Y-49341163D01*
X116226500Y-49335601D01*
X116226500Y-48479654D01*
X116211452Y-48321934D01*
X116180444Y-48216237D01*
X116153595Y-48124715D01*
X116153593Y-48124711D01*
X116151908Y-48118966D01*
X116149165Y-48113640D01*
X116148057Y-48110870D01*
X116141331Y-48040193D01*
X116173883Y-47977099D01*
X116235379Y-47941620D01*
X116265046Y-47938078D01*
X120975789Y-47938078D01*
X121043910Y-47958080D01*
X121090403Y-48011736D01*
X121100507Y-48082010D01*
X121092657Y-48111171D01*
X121050314Y-48216237D01*
X121009772Y-48423837D01*
X121009500Y-48429399D01*
X121009500Y-49285346D01*
X121024548Y-49443066D01*
X121084092Y-49646034D01*
X121086836Y-49651361D01*
X121086836Y-49651362D01*
X121170342Y-49813498D01*
X121180942Y-49834080D01*
X121311604Y-50000420D01*
X121316135Y-50004352D01*
X121316138Y-50004355D01*
X121402058Y-50078912D01*
X121471363Y-50139052D01*
X121482182Y-50145311D01*
X121486508Y-50147814D01*
X121535455Y-50199241D01*
X121548828Y-50268967D01*
X121522381Y-50334854D01*
X121464511Y-50375983D01*
X121390797Y-50378582D01*
X121338335Y-50364524D01*
X121338324Y-50364522D01*
X121333013Y-50363099D01*
X121118000Y-50344288D01*
X120902987Y-50363099D01*
X120897674Y-50364523D01*
X120897672Y-50364523D01*
X120699817Y-50417538D01*
X120699815Y-50417539D01*
X120694507Y-50418961D01*
X120689526Y-50421283D01*
X120689525Y-50421284D01*
X120503881Y-50507851D01*
X120503876Y-50507854D01*
X120498894Y-50510177D01*
X120322093Y-50633975D01*
X120169475Y-50786593D01*
X120166318Y-50791101D01*
X120166316Y-50791104D01*
X120157835Y-50803216D01*
X120045677Y-50963394D01*
X120043354Y-50968376D01*
X120043351Y-50968381D01*
X119956784Y-51154025D01*
X119954461Y-51159007D01*
X119953039Y-51164315D01*
X119953038Y-51164317D01*
X119923668Y-51273928D01*
X119898599Y-51367487D01*
X119879788Y-51582500D01*
X119898599Y-51797513D01*
X119900023Y-51802826D01*
X119900023Y-51802828D01*
X119913711Y-51853910D01*
X119954461Y-52005993D01*
X119956783Y-52010974D01*
X119956784Y-52010975D01*
X120043351Y-52196619D01*
X120043354Y-52196624D01*
X120045677Y-52201606D01*
X120169475Y-52378407D01*
X120322093Y-52531025D01*
X120326599Y-52534180D01*
X120326604Y-52534184D01*
X120376481Y-52569108D01*
X120498894Y-52654823D01*
X120503876Y-52657146D01*
X120503881Y-52657149D01*
X120666019Y-52732755D01*
X120694507Y-52746039D01*
X120699815Y-52747461D01*
X120699817Y-52747462D01*
X120897672Y-52800477D01*
X120897674Y-52800477D01*
X120902987Y-52801901D01*
X121118000Y-52820712D01*
X121333013Y-52801901D01*
X121338326Y-52800477D01*
X121338328Y-52800477D01*
X121536183Y-52747462D01*
X121536185Y-52747461D01*
X121541493Y-52746039D01*
X121569981Y-52732755D01*
X121732119Y-52657149D01*
X121732124Y-52657146D01*
X121737106Y-52654823D01*
X121859519Y-52569108D01*
X121909396Y-52534184D01*
X121909401Y-52534180D01*
X121913907Y-52531025D01*
X122066525Y-52378407D01*
X122190323Y-52201606D01*
X122192646Y-52196624D01*
X122192649Y-52196619D01*
X122279216Y-52010975D01*
X122279217Y-52010974D01*
X122281539Y-52005993D01*
X122322290Y-51853910D01*
X122335977Y-51802828D01*
X122335977Y-51802826D01*
X122337401Y-51797513D01*
X122356212Y-51582500D01*
X122337401Y-51367487D01*
X122312332Y-51273928D01*
X122282962Y-51164317D01*
X122282961Y-51164315D01*
X122281539Y-51159007D01*
X122279216Y-51154025D01*
X122192649Y-50968381D01*
X122192646Y-50968376D01*
X122190323Y-50963394D01*
X122078165Y-50803216D01*
X122069684Y-50791104D01*
X122069682Y-50791101D01*
X122066525Y-50786593D01*
X121913907Y-50633975D01*
X121788266Y-50546000D01*
X134022526Y-50546000D01*
X134042391Y-50798403D01*
X134101495Y-51044591D01*
X134103388Y-51049162D01*
X134103389Y-51049164D01*
X134148888Y-51159007D01*
X134198384Y-51278502D01*
X134330672Y-51494376D01*
X134495102Y-51686898D01*
X134687624Y-51851328D01*
X134903498Y-51983616D01*
X134908068Y-51985509D01*
X134908072Y-51985511D01*
X135017555Y-52030860D01*
X135137409Y-52080505D01*
X135222032Y-52100821D01*
X135378784Y-52138454D01*
X135378790Y-52138455D01*
X135383597Y-52139609D01*
X135483416Y-52147465D01*
X135570345Y-52154307D01*
X135570352Y-52154307D01*
X135572801Y-52154500D01*
X135699199Y-52154500D01*
X135701648Y-52154307D01*
X135701655Y-52154307D01*
X135788584Y-52147465D01*
X135888403Y-52139609D01*
X135893210Y-52138455D01*
X135893216Y-52138454D01*
X136049968Y-52100821D01*
X136134591Y-52080505D01*
X136254445Y-52030860D01*
X136363928Y-51985511D01*
X136363932Y-51985509D01*
X136368502Y-51983616D01*
X136584376Y-51851328D01*
X136776898Y-51686898D01*
X136941328Y-51494376D01*
X137073616Y-51278502D01*
X137123113Y-51159007D01*
X137168611Y-51049164D01*
X137168612Y-51049162D01*
X137170505Y-51044591D01*
X137229609Y-50798403D01*
X137249474Y-50546000D01*
X137229609Y-50293597D01*
X137227636Y-50285375D01*
X137171660Y-50052221D01*
X137170505Y-50047409D01*
X137168611Y-50042836D01*
X137075511Y-49818072D01*
X137075509Y-49818068D01*
X137073616Y-49813498D01*
X136941328Y-49597624D01*
X136776898Y-49405102D01*
X136584376Y-49240672D01*
X136368502Y-49108384D01*
X136363932Y-49106491D01*
X136363928Y-49106489D01*
X136139164Y-49013389D01*
X136139162Y-49013388D01*
X136134591Y-49011495D01*
X136049968Y-48991179D01*
X135893216Y-48953546D01*
X135893210Y-48953545D01*
X135888403Y-48952391D01*
X135788584Y-48944535D01*
X135701655Y-48937693D01*
X135701648Y-48937693D01*
X135699199Y-48937500D01*
X135572801Y-48937500D01*
X135570352Y-48937693D01*
X135570345Y-48937693D01*
X135483416Y-48944535D01*
X135383597Y-48952391D01*
X135378790Y-48953545D01*
X135378784Y-48953546D01*
X135222032Y-48991179D01*
X135137409Y-49011495D01*
X135132838Y-49013388D01*
X135132836Y-49013389D01*
X134908072Y-49106489D01*
X134908068Y-49106491D01*
X134903498Y-49108384D01*
X134687624Y-49240672D01*
X134495102Y-49405102D01*
X134330672Y-49597624D01*
X134198384Y-49813498D01*
X134196491Y-49818068D01*
X134196489Y-49818072D01*
X134103389Y-50042836D01*
X134101495Y-50047409D01*
X134100340Y-50052221D01*
X134044365Y-50285375D01*
X134042391Y-50293597D01*
X134022526Y-50546000D01*
X121788266Y-50546000D01*
X121787905Y-50545747D01*
X121743578Y-50490291D01*
X121736269Y-50419672D01*
X121768300Y-50356311D01*
X121829501Y-50320326D01*
X121878257Y-50317839D01*
X122057664Y-50343852D01*
X122057667Y-50343852D01*
X122063604Y-50344713D01*
X122274899Y-50334933D01*
X122446418Y-50293597D01*
X122474701Y-50286781D01*
X122474703Y-50286780D01*
X122480534Y-50285375D01*
X122485992Y-50282893D01*
X122485996Y-50282892D01*
X122659596Y-50203960D01*
X122673087Y-50197826D01*
X122845611Y-50075446D01*
X122991881Y-49922650D01*
X123106620Y-49744952D01*
X123148801Y-49640286D01*
X123183442Y-49554332D01*
X123183443Y-49554329D01*
X123185686Y-49548763D01*
X123226228Y-49341163D01*
X123226500Y-49335601D01*
X123226500Y-48479654D01*
X123211452Y-48321934D01*
X123180444Y-48216237D01*
X123153595Y-48124715D01*
X123153593Y-48124711D01*
X123151908Y-48118966D01*
X123149165Y-48113640D01*
X123148057Y-48110870D01*
X123141331Y-48040193D01*
X123173883Y-47977099D01*
X123235379Y-47941620D01*
X123265046Y-47938078D01*
X136518194Y-47938078D01*
X136537579Y-47939578D01*
X136552380Y-47941883D01*
X136552383Y-47941883D01*
X136561252Y-47943264D01*
X136570153Y-47942100D01*
X136570160Y-47942100D01*
X136575288Y-47941429D01*
X136601511Y-47940753D01*
X136772203Y-47954187D01*
X136791730Y-47957280D01*
X136981734Y-48002896D01*
X137000528Y-48009002D01*
X137181058Y-48083780D01*
X137198663Y-48092750D01*
X137365277Y-48194851D01*
X137381265Y-48206467D01*
X137516460Y-48321934D01*
X137529850Y-48333370D01*
X137543828Y-48347348D01*
X137670733Y-48495935D01*
X137682348Y-48511921D01*
X137784450Y-48678537D01*
X137793420Y-48696142D01*
X137868196Y-48876667D01*
X137874304Y-48895466D01*
X137913225Y-49057584D01*
X137919920Y-49085469D01*
X137923013Y-49104997D01*
X137935896Y-49268690D01*
X137935255Y-49285559D01*
X137935427Y-49285561D01*
X137935318Y-49294534D01*
X137933936Y-49303408D01*
X137938022Y-49334652D01*
X137939085Y-49351088D01*
X137936558Y-52154307D01*
X137933554Y-55485715D01*
X137913490Y-55553817D01*
X137859793Y-55600262D01*
X137789510Y-55610302D01*
X137724956Y-55580751D01*
X137697033Y-55546109D01*
X137692786Y-55538351D01*
X137616285Y-55436276D01*
X137603724Y-55423715D01*
X137501649Y-55347214D01*
X137486054Y-55338676D01*
X137365606Y-55293522D01*
X137350351Y-55289895D01*
X137299486Y-55284369D01*
X137292672Y-55284000D01*
X136670115Y-55284000D01*
X136654876Y-55288475D01*
X136653671Y-55289865D01*
X136652000Y-55297548D01*
X136652000Y-57981884D01*
X136656475Y-57997123D01*
X136657865Y-57998328D01*
X136665548Y-57999999D01*
X137292669Y-57999999D01*
X137299490Y-57999629D01*
X137350352Y-57994105D01*
X137365604Y-57990479D01*
X137486054Y-57945324D01*
X137501649Y-57936786D01*
X137603724Y-57860285D01*
X137616285Y-57847724D01*
X137692790Y-57745644D01*
X137694946Y-57741705D01*
X137698100Y-57738558D01*
X137698172Y-57738462D01*
X137698186Y-57738472D01*
X137745204Y-57691558D01*
X137814595Y-57676544D01*
X137881087Y-57701429D01*
X137923571Y-57758312D01*
X137931466Y-57802327D01*
X137927170Y-62567567D01*
X137913972Y-77209469D01*
X137913766Y-77437626D01*
X137912266Y-77456892D01*
X137908536Y-77480852D01*
X137909700Y-77489753D01*
X137909700Y-77489760D01*
X137910371Y-77494888D01*
X137911047Y-77521111D01*
X137897613Y-77691803D01*
X137894520Y-77711330D01*
X137856138Y-77871206D01*
X137848906Y-77901329D01*
X137842798Y-77920128D01*
X137768020Y-78100658D01*
X137759050Y-78118263D01*
X137697251Y-78219110D01*
X137656949Y-78284877D01*
X137645333Y-78300865D01*
X137520642Y-78446860D01*
X137518430Y-78449450D01*
X137504452Y-78463428D01*
X137355865Y-78590333D01*
X137339879Y-78601948D01*
X137173263Y-78704050D01*
X137155658Y-78713020D01*
X136975128Y-78787798D01*
X136956334Y-78793904D01*
X136769663Y-78838720D01*
X136766331Y-78839520D01*
X136746803Y-78842613D01*
X136583110Y-78855496D01*
X136566241Y-78854855D01*
X136566239Y-78855027D01*
X136557263Y-78854917D01*
X136548392Y-78853536D01*
X136539490Y-78854700D01*
X136539487Y-78854700D01*
X136516871Y-78857658D01*
X136500533Y-78858722D01*
X124852615Y-78858722D01*
X124784494Y-78838720D01*
X124738001Y-78785064D01*
X124727305Y-78719551D01*
X124737814Y-78619564D01*
X124738504Y-78613000D01*
X124727133Y-78504809D01*
X124719232Y-78429635D01*
X124719232Y-78429633D01*
X124718542Y-78423072D01*
X124659527Y-78241444D01*
X124646633Y-78219110D01*
X124579537Y-78102898D01*
X124564040Y-78076056D01*
X124549184Y-78059556D01*
X124440675Y-77939045D01*
X124440674Y-77939044D01*
X124436253Y-77934134D01*
X124327833Y-77855362D01*
X124287094Y-77825763D01*
X124287093Y-77825762D01*
X124281752Y-77821882D01*
X124275724Y-77819198D01*
X124275722Y-77819197D01*
X124113319Y-77746891D01*
X124113318Y-77746891D01*
X124107288Y-77744206D01*
X124013887Y-77724353D01*
X123926944Y-77705872D01*
X123926939Y-77705872D01*
X123920487Y-77704500D01*
X123729513Y-77704500D01*
X123723061Y-77705872D01*
X123723056Y-77705872D01*
X123636113Y-77724353D01*
X123542712Y-77744206D01*
X123536682Y-77746891D01*
X123536681Y-77746891D01*
X123374278Y-77819197D01*
X123374276Y-77819198D01*
X123368248Y-77821882D01*
X123362907Y-77825762D01*
X123362906Y-77825763D01*
X123322167Y-77855362D01*
X123213747Y-77934134D01*
X123209326Y-77939044D01*
X123209325Y-77939045D01*
X123100817Y-78059556D01*
X123085960Y-78076056D01*
X123070463Y-78102898D01*
X123003368Y-78219110D01*
X122990473Y-78241444D01*
X122931458Y-78423072D01*
X122930768Y-78429633D01*
X122930768Y-78429635D01*
X122922867Y-78504809D01*
X122911496Y-78613000D01*
X122912186Y-78619564D01*
X122922695Y-78719551D01*
X122909923Y-78789390D01*
X122861421Y-78841237D01*
X122797385Y-78858722D01*
X120164814Y-78858722D01*
X120096693Y-78838720D01*
X120050200Y-78785064D01*
X120040377Y-78739908D01*
X120039504Y-78740000D01*
X120020232Y-78556635D01*
X120020232Y-78556633D01*
X120019542Y-78550072D01*
X119960527Y-78368444D01*
X119865040Y-78203056D01*
X119774858Y-78102898D01*
X119741675Y-78066045D01*
X119741674Y-78066044D01*
X119737253Y-78061134D01*
X119582752Y-77948882D01*
X119576724Y-77946198D01*
X119576722Y-77946197D01*
X119414319Y-77873891D01*
X119414318Y-77873891D01*
X119408288Y-77871206D01*
X119314888Y-77851353D01*
X119227944Y-77832872D01*
X119227939Y-77832872D01*
X119221487Y-77831500D01*
X119030513Y-77831500D01*
X119024061Y-77832872D01*
X119024056Y-77832872D01*
X118937112Y-77851353D01*
X118843712Y-77871206D01*
X118837682Y-77873891D01*
X118837681Y-77873891D01*
X118675278Y-77946197D01*
X118675276Y-77946198D01*
X118669248Y-77948882D01*
X118514747Y-78061134D01*
X118510326Y-78066044D01*
X118510325Y-78066045D01*
X118477143Y-78102898D01*
X118386960Y-78203056D01*
X118291473Y-78368444D01*
X118232458Y-78550072D01*
X118231768Y-78556633D01*
X118231768Y-78556635D01*
X118226534Y-78606435D01*
X118212496Y-78740000D01*
X118211092Y-78739852D01*
X118193184Y-78800843D01*
X118139528Y-78847336D01*
X118087186Y-78858722D01*
X107338928Y-78858722D01*
X107319543Y-78857222D01*
X107304742Y-78854917D01*
X107304739Y-78854917D01*
X107295870Y-78853536D01*
X107286969Y-78854700D01*
X107286962Y-78854700D01*
X107281834Y-78855371D01*
X107255611Y-78856047D01*
X107084919Y-78842613D01*
X107065391Y-78839520D01*
X107062059Y-78838720D01*
X106875388Y-78793904D01*
X106856594Y-78787798D01*
X106676064Y-78713020D01*
X106658459Y-78704050D01*
X106491843Y-78601948D01*
X106475857Y-78590333D01*
X106327270Y-78463428D01*
X106313292Y-78449450D01*
X106311080Y-78446860D01*
X106186389Y-78300865D01*
X106174773Y-78284877D01*
X106134471Y-78219110D01*
X106072672Y-78118263D01*
X106063702Y-78100658D01*
X105988924Y-77920128D01*
X105982816Y-77901329D01*
X105975585Y-77871206D01*
X105937202Y-77711330D01*
X105934109Y-77691803D01*
X105921507Y-77531674D01*
X105922489Y-77509364D01*
X105921829Y-77509305D01*
X105922263Y-77504463D01*
X105923071Y-77499661D01*
X105923224Y-77487122D01*
X105921056Y-77471980D01*
X105919282Y-77459593D01*
X105918010Y-77441706D01*
X105918120Y-76911200D01*
X107073126Y-76911200D01*
X107092991Y-77163603D01*
X107152095Y-77409791D01*
X107153988Y-77414362D01*
X107153989Y-77414364D01*
X107202581Y-77531674D01*
X107248984Y-77643702D01*
X107381272Y-77859576D01*
X107545702Y-78052098D01*
X107738224Y-78216528D01*
X107954098Y-78348816D01*
X107958668Y-78350709D01*
X107958672Y-78350711D01*
X108183436Y-78443811D01*
X108188009Y-78445705D01*
X108235015Y-78456990D01*
X108429384Y-78503654D01*
X108429390Y-78503655D01*
X108434197Y-78504809D01*
X108534016Y-78512665D01*
X108620945Y-78519507D01*
X108620952Y-78519507D01*
X108623401Y-78519700D01*
X108749799Y-78519700D01*
X108752248Y-78519507D01*
X108752255Y-78519507D01*
X108839184Y-78512665D01*
X108939003Y-78504809D01*
X108943810Y-78503655D01*
X108943816Y-78503654D01*
X109138185Y-78456990D01*
X109185191Y-78445705D01*
X109189764Y-78443811D01*
X109414528Y-78350711D01*
X109414532Y-78350709D01*
X109419102Y-78348816D01*
X109634976Y-78216528D01*
X109827498Y-78052098D01*
X109991928Y-77859576D01*
X110124216Y-77643702D01*
X110170620Y-77531674D01*
X110219211Y-77414364D01*
X110219212Y-77414362D01*
X110221105Y-77409791D01*
X110280209Y-77163603D01*
X110300074Y-76911200D01*
X110280209Y-76658797D01*
X110278654Y-76652316D01*
X110263725Y-76590134D01*
X114211500Y-76590134D01*
X114218255Y-76652316D01*
X114269385Y-76788705D01*
X114356739Y-76905261D01*
X114473295Y-76992615D01*
X114609684Y-77043745D01*
X114671866Y-77050500D01*
X116468134Y-77050500D01*
X116530316Y-77043745D01*
X116666705Y-76992615D01*
X116783261Y-76905261D01*
X116870615Y-76788705D01*
X116921745Y-76652316D01*
X116928500Y-76590134D01*
X116928500Y-76395726D01*
X119783935Y-76395726D01*
X119802753Y-76566175D01*
X119805362Y-76573306D01*
X119805363Y-76573308D01*
X119812764Y-76593531D01*
X119861685Y-76727215D01*
X119957330Y-76869549D01*
X120084165Y-76984960D01*
X120234868Y-77066785D01*
X120400739Y-77110301D01*
X120488186Y-77111674D01*
X120564603Y-77112875D01*
X120564606Y-77112875D01*
X120572202Y-77112994D01*
X120579606Y-77111298D01*
X120579608Y-77111298D01*
X120642446Y-77096906D01*
X120739359Y-77074710D01*
X120892558Y-76997659D01*
X120898329Y-76992730D01*
X120898332Y-76992728D01*
X121017178Y-76891223D01*
X121022955Y-76886289D01*
X121123024Y-76747030D01*
X121186095Y-76590134D01*
X128181500Y-76590134D01*
X128188255Y-76652316D01*
X128239385Y-76788705D01*
X128326739Y-76905261D01*
X128443295Y-76992615D01*
X128579684Y-77043745D01*
X128641866Y-77050500D01*
X130438134Y-77050500D01*
X130500316Y-77043745D01*
X130636705Y-76992615D01*
X130677554Y-76962000D01*
X134022526Y-76962000D01*
X134042391Y-77214403D01*
X134101495Y-77460591D01*
X134103388Y-77465162D01*
X134103389Y-77465164D01*
X134130939Y-77531674D01*
X134198384Y-77694502D01*
X134330672Y-77910376D01*
X134495102Y-78102898D01*
X134687624Y-78267328D01*
X134903498Y-78399616D01*
X134908068Y-78401509D01*
X134908072Y-78401511D01*
X135132836Y-78494611D01*
X135137409Y-78496505D01*
X135222032Y-78516821D01*
X135378784Y-78554454D01*
X135378790Y-78554455D01*
X135383597Y-78555609D01*
X135483416Y-78563465D01*
X135570345Y-78570307D01*
X135570352Y-78570307D01*
X135572801Y-78570500D01*
X135699199Y-78570500D01*
X135701648Y-78570307D01*
X135701655Y-78570307D01*
X135788584Y-78563465D01*
X135888403Y-78555609D01*
X135893210Y-78554455D01*
X135893216Y-78554454D01*
X136049968Y-78516821D01*
X136134591Y-78496505D01*
X136139164Y-78494611D01*
X136363928Y-78401511D01*
X136363932Y-78401509D01*
X136368502Y-78399616D01*
X136584376Y-78267328D01*
X136776898Y-78102898D01*
X136941328Y-77910376D01*
X137073616Y-77694502D01*
X137141062Y-77531674D01*
X137168611Y-77465164D01*
X137168612Y-77465162D01*
X137170505Y-77460591D01*
X137229609Y-77214403D01*
X137249474Y-76962000D01*
X137229609Y-76709597D01*
X137217634Y-76659715D01*
X137171660Y-76468221D01*
X137170505Y-76463409D01*
X137142470Y-76395726D01*
X137075511Y-76234072D01*
X137075509Y-76234068D01*
X137073616Y-76229498D01*
X136941328Y-76013624D01*
X136776898Y-75821102D01*
X136584376Y-75656672D01*
X136368502Y-75524384D01*
X136363932Y-75522491D01*
X136363928Y-75522489D01*
X136139164Y-75429389D01*
X136139162Y-75429388D01*
X136134591Y-75427495D01*
X136049968Y-75407179D01*
X135893216Y-75369546D01*
X135893210Y-75369545D01*
X135888403Y-75368391D01*
X135788584Y-75360535D01*
X135701655Y-75353693D01*
X135701648Y-75353693D01*
X135699199Y-75353500D01*
X135572801Y-75353500D01*
X135570352Y-75353693D01*
X135570345Y-75353693D01*
X135483416Y-75360535D01*
X135383597Y-75368391D01*
X135378790Y-75369545D01*
X135378784Y-75369546D01*
X135222032Y-75407179D01*
X135137409Y-75427495D01*
X135132838Y-75429388D01*
X135132836Y-75429389D01*
X134908072Y-75522489D01*
X134908068Y-75522491D01*
X134903498Y-75524384D01*
X134687624Y-75656672D01*
X134495102Y-75821102D01*
X134330672Y-76013624D01*
X134198384Y-76229498D01*
X134196491Y-76234068D01*
X134196489Y-76234072D01*
X134129530Y-76395726D01*
X134101495Y-76463409D01*
X134100340Y-76468221D01*
X134054367Y-76659715D01*
X134042391Y-76709597D01*
X134022526Y-76962000D01*
X130677554Y-76962000D01*
X130753261Y-76905261D01*
X130840615Y-76788705D01*
X130891745Y-76652316D01*
X130898500Y-76590134D01*
X130898500Y-74793866D01*
X130891745Y-74731684D01*
X130840615Y-74595295D01*
X130753261Y-74478739D01*
X130636705Y-74391385D01*
X130500316Y-74340255D01*
X130438134Y-74333500D01*
X128641866Y-74333500D01*
X128579684Y-74340255D01*
X128443295Y-74391385D01*
X128326739Y-74478739D01*
X128239385Y-74595295D01*
X128188255Y-74731684D01*
X128181500Y-74793866D01*
X128181500Y-76590134D01*
X121186095Y-76590134D01*
X121186985Y-76587920D01*
X121191154Y-76558625D01*
X121210566Y-76422231D01*
X121210566Y-76422227D01*
X121211147Y-76418147D01*
X121211221Y-76411057D01*
X121211261Y-76407333D01*
X121211261Y-76407327D01*
X121211304Y-76403200D01*
X121190702Y-76232958D01*
X121171928Y-76183272D01*
X121132771Y-76079647D01*
X121130087Y-76072544D01*
X121092489Y-76017838D01*
X121037259Y-75937478D01*
X121037258Y-75937476D01*
X121032957Y-75931219D01*
X121027286Y-75926166D01*
X120910593Y-75822196D01*
X120910590Y-75822194D01*
X120904921Y-75817143D01*
X120896925Y-75812909D01*
X120760081Y-75740454D01*
X120760082Y-75740454D01*
X120753369Y-75736900D01*
X120735796Y-75732486D01*
X120594422Y-75696975D01*
X120594418Y-75696975D01*
X120587051Y-75695124D01*
X120579452Y-75695084D01*
X120579450Y-75695084D01*
X120507994Y-75694710D01*
X120415569Y-75694226D01*
X120408189Y-75695998D01*
X120408187Y-75695998D01*
X120256202Y-75732486D01*
X120256198Y-75732487D01*
X120248823Y-75734258D01*
X120096439Y-75812909D01*
X119967215Y-75925639D01*
X119868610Y-76065939D01*
X119837464Y-76145824D01*
X119822864Y-76183272D01*
X119806318Y-76225709D01*
X119783935Y-76395726D01*
X116928500Y-76395726D01*
X116928500Y-74803000D01*
X122911496Y-74803000D01*
X122931458Y-74992928D01*
X122990473Y-75174556D01*
X123085960Y-75339944D01*
X123090378Y-75344851D01*
X123090379Y-75344852D01*
X123206290Y-75473584D01*
X123213747Y-75481866D01*
X123269660Y-75522489D01*
X123353122Y-75583128D01*
X123368248Y-75594118D01*
X123374276Y-75596802D01*
X123374278Y-75596803D01*
X123401860Y-75609083D01*
X123542712Y-75671794D01*
X123636113Y-75691647D01*
X123723056Y-75710128D01*
X123723061Y-75710128D01*
X123729513Y-75711500D01*
X123920487Y-75711500D01*
X123926939Y-75710128D01*
X123926944Y-75710128D01*
X124013887Y-75691647D01*
X124107288Y-75671794D01*
X124248140Y-75609083D01*
X124275722Y-75596803D01*
X124275724Y-75596802D01*
X124281752Y-75594118D01*
X124296879Y-75583128D01*
X124380340Y-75522489D01*
X124436253Y-75481866D01*
X124443710Y-75473584D01*
X124559621Y-75344852D01*
X124559622Y-75344851D01*
X124564040Y-75339944D01*
X124659527Y-75174556D01*
X124718542Y-74992928D01*
X124738504Y-74803000D01*
X124731834Y-74739540D01*
X124725156Y-74676000D01*
X125527696Y-74676000D01*
X125528386Y-74682565D01*
X125533549Y-74731684D01*
X125547658Y-74865928D01*
X125606673Y-75047556D01*
X125702160Y-75212944D01*
X125706578Y-75217851D01*
X125706579Y-75217852D01*
X125783150Y-75302893D01*
X125829947Y-75354866D01*
X125984448Y-75467118D01*
X125990476Y-75469802D01*
X125990478Y-75469803D01*
X126113070Y-75524384D01*
X126158912Y-75544794D01*
X126252313Y-75564647D01*
X126339256Y-75583128D01*
X126339261Y-75583128D01*
X126345713Y-75584500D01*
X126536687Y-75584500D01*
X126543139Y-75583128D01*
X126543144Y-75583128D01*
X126630087Y-75564647D01*
X126723488Y-75544794D01*
X126769330Y-75524384D01*
X126891922Y-75469803D01*
X126891924Y-75469802D01*
X126897952Y-75467118D01*
X127052453Y-75354866D01*
X127099250Y-75302893D01*
X127175821Y-75217852D01*
X127175822Y-75217851D01*
X127180240Y-75212944D01*
X127275727Y-75047556D01*
X127334742Y-74865928D01*
X127348852Y-74731684D01*
X127354014Y-74682565D01*
X127354704Y-74676000D01*
X127334742Y-74486072D01*
X127275727Y-74304444D01*
X127180240Y-74139056D01*
X127052453Y-73997134D01*
X126953357Y-73925136D01*
X126903294Y-73888763D01*
X126903293Y-73888762D01*
X126897952Y-73884882D01*
X126891924Y-73882198D01*
X126891922Y-73882197D01*
X126729519Y-73809891D01*
X126729518Y-73809891D01*
X126723488Y-73807206D01*
X126630087Y-73787353D01*
X126543144Y-73768872D01*
X126543139Y-73768872D01*
X126536687Y-73767500D01*
X126345713Y-73767500D01*
X126339261Y-73768872D01*
X126339256Y-73768872D01*
X126252313Y-73787353D01*
X126158912Y-73807206D01*
X126152882Y-73809891D01*
X126152881Y-73809891D01*
X125990478Y-73882197D01*
X125990476Y-73882198D01*
X125984448Y-73884882D01*
X125979107Y-73888762D01*
X125979106Y-73888763D01*
X125929043Y-73925136D01*
X125829947Y-73997134D01*
X125702160Y-74139056D01*
X125606673Y-74304444D01*
X125547658Y-74486072D01*
X125527696Y-74676000D01*
X124725156Y-74676000D01*
X124719232Y-74619635D01*
X124719232Y-74619633D01*
X124718542Y-74613072D01*
X124659527Y-74431444D01*
X124639509Y-74396771D01*
X124567341Y-74271774D01*
X124564040Y-74266056D01*
X124436253Y-74124134D01*
X124281752Y-74011882D01*
X124275724Y-74009198D01*
X124275722Y-74009197D01*
X124113319Y-73936891D01*
X124113318Y-73936891D01*
X124107288Y-73934206D01*
X124013887Y-73914353D01*
X123926944Y-73895872D01*
X123926939Y-73895872D01*
X123920487Y-73894500D01*
X123729513Y-73894500D01*
X123723061Y-73895872D01*
X123723056Y-73895872D01*
X123636113Y-73914353D01*
X123542712Y-73934206D01*
X123536682Y-73936891D01*
X123536681Y-73936891D01*
X123374278Y-74009197D01*
X123374276Y-74009198D01*
X123368248Y-74011882D01*
X123213747Y-74124134D01*
X123085960Y-74266056D01*
X123082659Y-74271774D01*
X123010492Y-74396771D01*
X122990473Y-74431444D01*
X122931458Y-74613072D01*
X122930768Y-74619633D01*
X122930768Y-74619635D01*
X122918166Y-74739540D01*
X122911496Y-74803000D01*
X116928500Y-74803000D01*
X116928500Y-74793866D01*
X116921745Y-74731684D01*
X116870615Y-74595295D01*
X116783261Y-74478739D01*
X116666705Y-74391385D01*
X116530316Y-74340255D01*
X116468134Y-74333500D01*
X114671866Y-74333500D01*
X114609684Y-74340255D01*
X114473295Y-74391385D01*
X114356739Y-74478739D01*
X114269385Y-74595295D01*
X114218255Y-74731684D01*
X114211500Y-74793866D01*
X114211500Y-76590134D01*
X110263725Y-76590134D01*
X110223415Y-76422231D01*
X110221105Y-76412609D01*
X110214112Y-76395726D01*
X110126111Y-76183272D01*
X110126109Y-76183268D01*
X110124216Y-76178698D01*
X109991928Y-75962824D01*
X109827498Y-75770302D01*
X109634976Y-75605872D01*
X109419102Y-75473584D01*
X109414532Y-75471691D01*
X109414528Y-75471689D01*
X109189764Y-75378589D01*
X109189762Y-75378588D01*
X109185191Y-75376695D01*
X109073810Y-75349955D01*
X108943816Y-75318746D01*
X108943810Y-75318745D01*
X108939003Y-75317591D01*
X108839184Y-75309735D01*
X108752255Y-75302893D01*
X108752248Y-75302893D01*
X108749799Y-75302700D01*
X108623401Y-75302700D01*
X108620952Y-75302893D01*
X108620945Y-75302893D01*
X108534016Y-75309735D01*
X108434197Y-75317591D01*
X108429390Y-75318745D01*
X108429384Y-75318746D01*
X108299390Y-75349955D01*
X108188009Y-75376695D01*
X108183438Y-75378588D01*
X108183436Y-75378589D01*
X107958672Y-75471689D01*
X107958668Y-75471691D01*
X107954098Y-75473584D01*
X107738224Y-75605872D01*
X107545702Y-75770302D01*
X107381272Y-75962824D01*
X107248984Y-76178698D01*
X107247091Y-76183268D01*
X107247089Y-76183272D01*
X107159088Y-76395726D01*
X107152095Y-76412609D01*
X107149785Y-76422231D01*
X107094547Y-76652316D01*
X107092991Y-76658797D01*
X107073126Y-76911200D01*
X105918120Y-76911200D01*
X105919146Y-71972240D01*
X107746063Y-71972240D01*
X107763763Y-72152760D01*
X107821018Y-72324873D01*
X107824665Y-72330895D01*
X107824666Y-72330897D01*
X107876924Y-72417185D01*
X107914980Y-72480024D01*
X107919869Y-72485087D01*
X107919870Y-72485088D01*
X107969848Y-72536841D01*
X108040982Y-72610502D01*
X108046878Y-72614360D01*
X108117658Y-72660677D01*
X108192759Y-72709822D01*
X108199363Y-72712278D01*
X108199365Y-72712279D01*
X108356158Y-72770590D01*
X108356160Y-72770590D01*
X108362768Y-72773048D01*
X108446595Y-72784233D01*
X108535580Y-72796107D01*
X108535584Y-72796107D01*
X108542561Y-72797038D01*
X108549572Y-72796400D01*
X108549576Y-72796400D01*
X108692059Y-72783432D01*
X108723200Y-72780598D01*
X108729902Y-72778420D01*
X108729904Y-72778420D01*
X108889009Y-72726724D01*
X108889012Y-72726723D01*
X108895708Y-72724547D01*
X109029005Y-72645086D01*
X109045460Y-72635277D01*
X109045462Y-72635276D01*
X109051512Y-72631669D01*
X109182866Y-72506582D01*
X109205917Y-72471887D01*
X109260272Y-72426218D01*
X109330692Y-72417185D01*
X109394816Y-72447657D01*
X109404495Y-72457299D01*
X109497747Y-72560866D01*
X109559089Y-72605434D01*
X109594228Y-72630964D01*
X109637582Y-72687187D01*
X109643657Y-72757923D01*
X109610525Y-72820714D01*
X109594228Y-72834836D01*
X109497747Y-72904934D01*
X109369960Y-73046856D01*
X109274473Y-73212244D01*
X109215458Y-73393872D01*
X109214768Y-73400433D01*
X109214768Y-73400435D01*
X109208231Y-73462635D01*
X109195496Y-73583800D01*
X109215458Y-73773728D01*
X109274473Y-73955356D01*
X109369960Y-74120744D01*
X109374378Y-74125651D01*
X109374379Y-74125652D01*
X109425965Y-74182944D01*
X109497747Y-74262666D01*
X109652248Y-74374918D01*
X109658276Y-74377602D01*
X109658278Y-74377603D01*
X109820681Y-74449909D01*
X109826712Y-74452594D01*
X109920112Y-74472447D01*
X110007056Y-74490928D01*
X110007061Y-74490928D01*
X110013513Y-74492300D01*
X110204487Y-74492300D01*
X110210939Y-74490928D01*
X110210944Y-74490928D01*
X110297888Y-74472447D01*
X110391288Y-74452594D01*
X110397319Y-74449909D01*
X110559722Y-74377603D01*
X110559724Y-74377602D01*
X110565752Y-74374918D01*
X110720253Y-74262666D01*
X110792035Y-74182944D01*
X110843621Y-74125652D01*
X110843622Y-74125651D01*
X110848040Y-74120744D01*
X110943527Y-73955356D01*
X111002542Y-73773728D01*
X111015967Y-73646000D01*
X135752496Y-73646000D01*
X135753186Y-73652565D01*
X135765921Y-73773728D01*
X135772458Y-73835928D01*
X135831473Y-74017556D01*
X135926960Y-74182944D01*
X136054747Y-74324866D01*
X136209248Y-74437118D01*
X136215276Y-74439802D01*
X136215278Y-74439803D01*
X136377681Y-74512109D01*
X136383712Y-74514794D01*
X136477113Y-74534647D01*
X136564056Y-74553128D01*
X136564061Y-74553128D01*
X136570513Y-74554500D01*
X136761487Y-74554500D01*
X136767939Y-74553128D01*
X136767944Y-74553128D01*
X136854887Y-74534647D01*
X136948288Y-74514794D01*
X136954319Y-74512109D01*
X137116722Y-74439803D01*
X137116724Y-74439802D01*
X137122752Y-74437118D01*
X137277253Y-74324866D01*
X137405040Y-74182944D01*
X137500527Y-74017556D01*
X137559542Y-73835928D01*
X137566080Y-73773728D01*
X137578814Y-73652565D01*
X137579504Y-73646000D01*
X137559542Y-73456072D01*
X137500527Y-73274444D01*
X137405040Y-73109056D01*
X137354184Y-73052574D01*
X137281675Y-72972045D01*
X137281674Y-72972044D01*
X137277253Y-72967134D01*
X137122752Y-72854882D01*
X137116724Y-72852198D01*
X137116722Y-72852197D01*
X136954319Y-72779891D01*
X136954318Y-72779891D01*
X136948288Y-72777206D01*
X136854888Y-72757353D01*
X136767944Y-72738872D01*
X136767939Y-72738872D01*
X136761487Y-72737500D01*
X136570513Y-72737500D01*
X136564061Y-72738872D01*
X136564056Y-72738872D01*
X136477112Y-72757353D01*
X136383712Y-72777206D01*
X136377682Y-72779891D01*
X136377681Y-72779891D01*
X136215278Y-72852197D01*
X136215276Y-72852198D01*
X136209248Y-72854882D01*
X136054747Y-72967134D01*
X136050326Y-72972044D01*
X136050325Y-72972045D01*
X135977817Y-73052574D01*
X135926960Y-73109056D01*
X135831473Y-73274444D01*
X135772458Y-73456072D01*
X135752496Y-73646000D01*
X111015967Y-73646000D01*
X111022504Y-73583800D01*
X111009769Y-73462635D01*
X111003232Y-73400435D01*
X111003232Y-73400433D01*
X111002542Y-73393872D01*
X110943527Y-73212244D01*
X110848040Y-73046856D01*
X110720253Y-72904934D01*
X110623772Y-72834836D01*
X110580418Y-72778613D01*
X110574343Y-72707877D01*
X110607475Y-72645086D01*
X110623772Y-72630964D01*
X110658911Y-72605434D01*
X110720253Y-72560866D01*
X110751547Y-72526111D01*
X110843621Y-72423852D01*
X110843622Y-72423851D01*
X110848040Y-72418944D01*
X110943527Y-72253556D01*
X111002542Y-72071928D01*
X111010350Y-71997640D01*
X125246663Y-71997640D01*
X125264363Y-72178160D01*
X125321618Y-72350273D01*
X125325265Y-72356295D01*
X125325266Y-72356297D01*
X125396550Y-72474001D01*
X125415580Y-72505424D01*
X125420469Y-72510487D01*
X125420470Y-72510488D01*
X125464381Y-72555959D01*
X125541582Y-72635902D01*
X125547478Y-72639760D01*
X125680373Y-72726724D01*
X125693359Y-72735222D01*
X125699963Y-72737678D01*
X125699965Y-72737679D01*
X125856758Y-72795990D01*
X125856760Y-72795990D01*
X125863368Y-72798448D01*
X125947195Y-72809633D01*
X126036180Y-72821507D01*
X126036184Y-72821507D01*
X126043161Y-72822438D01*
X126050172Y-72821800D01*
X126050176Y-72821800D01*
X126192659Y-72808832D01*
X126223800Y-72805998D01*
X126230502Y-72803820D01*
X126230504Y-72803820D01*
X126389609Y-72752124D01*
X126389612Y-72752123D01*
X126396308Y-72749947D01*
X126552112Y-72657069D01*
X126683466Y-72531982D01*
X126783843Y-72380902D01*
X126848255Y-72211338D01*
X126849235Y-72204366D01*
X126872948Y-72035639D01*
X126872948Y-72035636D01*
X126873499Y-72031717D01*
X126873816Y-72009000D01*
X126853597Y-71828745D01*
X126851280Y-71822091D01*
X126796264Y-71664106D01*
X126796262Y-71664103D01*
X126793945Y-71657448D01*
X126767991Y-71615912D01*
X126701559Y-71509598D01*
X126697826Y-71503624D01*
X126669692Y-71475293D01*
X126574978Y-71379915D01*
X126574974Y-71379912D01*
X126570015Y-71374918D01*
X126558897Y-71367862D01*
X126510738Y-71337300D01*
X126416866Y-71277727D01*
X126356147Y-71256106D01*
X126252625Y-71219243D01*
X126252620Y-71219242D01*
X126245990Y-71216881D01*
X126239002Y-71216048D01*
X126238999Y-71216047D01*
X126115898Y-71201368D01*
X126065880Y-71195404D01*
X126058877Y-71196140D01*
X126058876Y-71196140D01*
X125892488Y-71213628D01*
X125892486Y-71213629D01*
X125885488Y-71214364D01*
X125713779Y-71272818D01*
X125707775Y-71276512D01*
X125565295Y-71364166D01*
X125565292Y-71364168D01*
X125559288Y-71367862D01*
X125554253Y-71372793D01*
X125554250Y-71372795D01*
X125449583Y-71475293D01*
X125429693Y-71494771D01*
X125331435Y-71647238D01*
X125329026Y-71653858D01*
X125329024Y-71653861D01*
X125312728Y-71698635D01*
X125269397Y-71817685D01*
X125246663Y-71997640D01*
X111010350Y-71997640D01*
X111012283Y-71979253D01*
X111021814Y-71888565D01*
X111022504Y-71882000D01*
X111002542Y-71692072D01*
X110943527Y-71510444D01*
X110939590Y-71503624D01*
X110906049Y-71445531D01*
X110848040Y-71345056D01*
X110842377Y-71338766D01*
X110724675Y-71208045D01*
X110724674Y-71208044D01*
X110720253Y-71203134D01*
X110565752Y-71090882D01*
X110559724Y-71088198D01*
X110559722Y-71088197D01*
X110397319Y-71015891D01*
X110397318Y-71015891D01*
X110391288Y-71013206D01*
X110297888Y-70993353D01*
X110210944Y-70974872D01*
X110210939Y-70974872D01*
X110204487Y-70973500D01*
X110013513Y-70973500D01*
X110007061Y-70974872D01*
X110007056Y-70974872D01*
X109920112Y-70993353D01*
X109826712Y-71013206D01*
X109820682Y-71015891D01*
X109820681Y-71015891D01*
X109658278Y-71088197D01*
X109658276Y-71088198D01*
X109652248Y-71090882D01*
X109497747Y-71203134D01*
X109493326Y-71208044D01*
X109493325Y-71208045D01*
X109375624Y-71338766D01*
X109369960Y-71345056D01*
X109349834Y-71379915D01*
X109340237Y-71396538D01*
X109288854Y-71445531D01*
X109219140Y-71458966D01*
X109153229Y-71432579D01*
X109141712Y-71422321D01*
X109074378Y-71354515D01*
X109074374Y-71354512D01*
X109069415Y-71349518D01*
X109058297Y-71342462D01*
X109010138Y-71311900D01*
X108916266Y-71252327D01*
X108887063Y-71241928D01*
X108752025Y-71193843D01*
X108752020Y-71193842D01*
X108745390Y-71191481D01*
X108738402Y-71190648D01*
X108738399Y-71190647D01*
X108615298Y-71175968D01*
X108565280Y-71170004D01*
X108558277Y-71170740D01*
X108558276Y-71170740D01*
X108391888Y-71188228D01*
X108391886Y-71188229D01*
X108384888Y-71188964D01*
X108213179Y-71247418D01*
X108207175Y-71251112D01*
X108064695Y-71338766D01*
X108064692Y-71338768D01*
X108058688Y-71342462D01*
X108053653Y-71347393D01*
X108053650Y-71347395D01*
X107939718Y-71458966D01*
X107929093Y-71469371D01*
X107830835Y-71621838D01*
X107828426Y-71628458D01*
X107828424Y-71628461D01*
X107802883Y-71698635D01*
X107768797Y-71792285D01*
X107746063Y-71972240D01*
X105919146Y-71972240D01*
X105919772Y-68961000D01*
X110846496Y-68961000D01*
X110847186Y-68967565D01*
X110857192Y-69062763D01*
X110866458Y-69150928D01*
X110925473Y-69332556D01*
X111020960Y-69497944D01*
X111148747Y-69639866D01*
X111303248Y-69752118D01*
X111309276Y-69754802D01*
X111309278Y-69754803D01*
X111471681Y-69827109D01*
X111477712Y-69829794D01*
X111541888Y-69843435D01*
X111658056Y-69868128D01*
X111658061Y-69868128D01*
X111664513Y-69869500D01*
X111855487Y-69869500D01*
X111861939Y-69868128D01*
X111861944Y-69868128D01*
X111947227Y-69850000D01*
X135738496Y-69850000D01*
X135739186Y-69856565D01*
X135740546Y-69869500D01*
X135758458Y-70039928D01*
X135817473Y-70221556D01*
X135912960Y-70386944D01*
X136040747Y-70528866D01*
X136195248Y-70641118D01*
X136201276Y-70643802D01*
X136201278Y-70643803D01*
X136363681Y-70716109D01*
X136369712Y-70718794D01*
X136463113Y-70738647D01*
X136550056Y-70757128D01*
X136550061Y-70757128D01*
X136556513Y-70758500D01*
X136747487Y-70758500D01*
X136753939Y-70757128D01*
X136753944Y-70757128D01*
X136840887Y-70738647D01*
X136934288Y-70718794D01*
X136940319Y-70716109D01*
X137102722Y-70643803D01*
X137102724Y-70643802D01*
X137108752Y-70641118D01*
X137263253Y-70528866D01*
X137391040Y-70386944D01*
X137486527Y-70221556D01*
X137545542Y-70039928D01*
X137563455Y-69869500D01*
X137564814Y-69856565D01*
X137565504Y-69850000D01*
X137564814Y-69843435D01*
X137546232Y-69666635D01*
X137546232Y-69666633D01*
X137545542Y-69660072D01*
X137486527Y-69478444D01*
X137391040Y-69313056D01*
X137263253Y-69171134D01*
X137108752Y-69058882D01*
X137102724Y-69056198D01*
X137102722Y-69056197D01*
X136940319Y-68983891D01*
X136940318Y-68983891D01*
X136934288Y-68981206D01*
X136839227Y-68961000D01*
X136753944Y-68942872D01*
X136753939Y-68942872D01*
X136747487Y-68941500D01*
X136556513Y-68941500D01*
X136550061Y-68942872D01*
X136550056Y-68942872D01*
X136464773Y-68961000D01*
X136369712Y-68981206D01*
X136363682Y-68983891D01*
X136363681Y-68983891D01*
X136201278Y-69056197D01*
X136201276Y-69056198D01*
X136195248Y-69058882D01*
X136040747Y-69171134D01*
X135912960Y-69313056D01*
X135817473Y-69478444D01*
X135758458Y-69660072D01*
X135757768Y-69666633D01*
X135757768Y-69666635D01*
X135739186Y-69843435D01*
X135738496Y-69850000D01*
X111947227Y-69850000D01*
X111978112Y-69843435D01*
X112042288Y-69829794D01*
X112048319Y-69827109D01*
X112210722Y-69754803D01*
X112210724Y-69754802D01*
X112216752Y-69752118D01*
X112371253Y-69639866D01*
X112499040Y-69497944D01*
X112594527Y-69332556D01*
X112653542Y-69150928D01*
X112662809Y-69062763D01*
X112672814Y-68967565D01*
X112673504Y-68961000D01*
X112671599Y-68942872D01*
X112654232Y-68777635D01*
X112654232Y-68777633D01*
X112653542Y-68771072D01*
X112594527Y-68589444D01*
X112499040Y-68424056D01*
X112371253Y-68282134D01*
X112230907Y-68180166D01*
X112222094Y-68173763D01*
X112222093Y-68173762D01*
X112216752Y-68169882D01*
X112210724Y-68167198D01*
X112210722Y-68167197D01*
X112048319Y-68094891D01*
X112048318Y-68094891D01*
X112042288Y-68092206D01*
X111948887Y-68072353D01*
X111861944Y-68053872D01*
X111861939Y-68053872D01*
X111855487Y-68052500D01*
X111664513Y-68052500D01*
X111658061Y-68053872D01*
X111658056Y-68053872D01*
X111571113Y-68072353D01*
X111477712Y-68092206D01*
X111471682Y-68094891D01*
X111471681Y-68094891D01*
X111309278Y-68167197D01*
X111309276Y-68167198D01*
X111303248Y-68169882D01*
X111297907Y-68173762D01*
X111297906Y-68173763D01*
X111289093Y-68180166D01*
X111148747Y-68282134D01*
X111020960Y-68424056D01*
X110925473Y-68589444D01*
X110866458Y-68771072D01*
X110865768Y-68777633D01*
X110865768Y-68777635D01*
X110848401Y-68942872D01*
X110846496Y-68961000D01*
X105919772Y-68961000D01*
X105920115Y-67310000D01*
X118466496Y-67310000D01*
X118486458Y-67499928D01*
X118545473Y-67681556D01*
X118640960Y-67846944D01*
X118768747Y-67988866D01*
X118856331Y-68052500D01*
X118910982Y-68092206D01*
X118923248Y-68101118D01*
X118929276Y-68103802D01*
X118929278Y-68103803D01*
X119077695Y-68169882D01*
X119097712Y-68178794D01*
X119191112Y-68198647D01*
X119278056Y-68217128D01*
X119278061Y-68217128D01*
X119284513Y-68218500D01*
X119475487Y-68218500D01*
X119481939Y-68217128D01*
X119481944Y-68217128D01*
X119568888Y-68198647D01*
X119662288Y-68178794D01*
X119682305Y-68169882D01*
X119830722Y-68103803D01*
X119830724Y-68103802D01*
X119836752Y-68101118D01*
X119940940Y-68025421D01*
X120007806Y-68001563D01*
X120076958Y-68017643D01*
X120089056Y-68025418D01*
X120193248Y-68101118D01*
X120199276Y-68103802D01*
X120199278Y-68103803D01*
X120347695Y-68169882D01*
X120367712Y-68178794D01*
X120461112Y-68198647D01*
X120548056Y-68217128D01*
X120548061Y-68217128D01*
X120554513Y-68218500D01*
X120745487Y-68218500D01*
X120751939Y-68217128D01*
X120751944Y-68217128D01*
X120838888Y-68198647D01*
X120932288Y-68178794D01*
X120952305Y-68169882D01*
X121100722Y-68103803D01*
X121100724Y-68103802D01*
X121106752Y-68101118D01*
X121119019Y-68092206D01*
X121173669Y-68052500D01*
X121261253Y-67988866D01*
X121389040Y-67846944D01*
X121484527Y-67681556D01*
X121543542Y-67499928D01*
X121563504Y-67310000D01*
X121543542Y-67120072D01*
X121484527Y-66938444D01*
X121389040Y-66773056D01*
X121261253Y-66631134D01*
X121106752Y-66518882D01*
X121100724Y-66516198D01*
X121100722Y-66516197D01*
X120938319Y-66443891D01*
X120938318Y-66443891D01*
X120932288Y-66441206D01*
X120838888Y-66421353D01*
X120751944Y-66402872D01*
X120751939Y-66402872D01*
X120745487Y-66401500D01*
X120554513Y-66401500D01*
X120548061Y-66402872D01*
X120548056Y-66402872D01*
X120461112Y-66421353D01*
X120367712Y-66441206D01*
X120361682Y-66443891D01*
X120361681Y-66443891D01*
X120199278Y-66516197D01*
X120199276Y-66516198D01*
X120193248Y-66518882D01*
X120089060Y-66594579D01*
X120022194Y-66618437D01*
X119953042Y-66602357D01*
X119940944Y-66594582D01*
X119836752Y-66518882D01*
X119830724Y-66516198D01*
X119830722Y-66516197D01*
X119668319Y-66443891D01*
X119668318Y-66443891D01*
X119662288Y-66441206D01*
X119568888Y-66421353D01*
X119481944Y-66402872D01*
X119481939Y-66402872D01*
X119475487Y-66401500D01*
X119284513Y-66401500D01*
X119278061Y-66402872D01*
X119278056Y-66402872D01*
X119191112Y-66421353D01*
X119097712Y-66441206D01*
X119091682Y-66443891D01*
X119091681Y-66443891D01*
X118929278Y-66516197D01*
X118929276Y-66516198D01*
X118923248Y-66518882D01*
X118768747Y-66631134D01*
X118640960Y-66773056D01*
X118545473Y-66938444D01*
X118486458Y-67120072D01*
X118466496Y-67310000D01*
X105920115Y-67310000D01*
X105920643Y-64770000D01*
X117196496Y-64770000D01*
X117216458Y-64959928D01*
X117275473Y-65141556D01*
X117370960Y-65306944D01*
X117498747Y-65448866D01*
X117653248Y-65561118D01*
X117659276Y-65563802D01*
X117659278Y-65563803D01*
X117821681Y-65636109D01*
X117827712Y-65638794D01*
X117921112Y-65658647D01*
X118008056Y-65677128D01*
X118008061Y-65677128D01*
X118014513Y-65678500D01*
X118205487Y-65678500D01*
X118211939Y-65677128D01*
X118211944Y-65677128D01*
X118298888Y-65658647D01*
X118392288Y-65638794D01*
X118398319Y-65636109D01*
X118560722Y-65563803D01*
X118560724Y-65563802D01*
X118566752Y-65561118D01*
X118721253Y-65448866D01*
X118849040Y-65306944D01*
X118944527Y-65141556D01*
X119003542Y-64959928D01*
X119023504Y-64770000D01*
X119003542Y-64580072D01*
X118990254Y-64539176D01*
X118988226Y-64468209D01*
X119024889Y-64407411D01*
X119088601Y-64376085D01*
X119136284Y-64376993D01*
X119278056Y-64407128D01*
X119278061Y-64407128D01*
X119284513Y-64408500D01*
X119475487Y-64408500D01*
X119481939Y-64407128D01*
X119481944Y-64407128D01*
X119568887Y-64388647D01*
X119662288Y-64368794D01*
X119668319Y-64366109D01*
X119830722Y-64293803D01*
X119830724Y-64293802D01*
X119836752Y-64291118D01*
X119940940Y-64215421D01*
X120007806Y-64191563D01*
X120076958Y-64207643D01*
X120089056Y-64215418D01*
X120193248Y-64291118D01*
X120199276Y-64293802D01*
X120199278Y-64293803D01*
X120361681Y-64366109D01*
X120367712Y-64368794D01*
X120461113Y-64388647D01*
X120548056Y-64407128D01*
X120548061Y-64407128D01*
X120554513Y-64408500D01*
X120654781Y-64408500D01*
X120722902Y-64428502D01*
X120769395Y-64482158D01*
X120779499Y-64552432D01*
X120774615Y-64573433D01*
X120772458Y-64580072D01*
X120752496Y-64770000D01*
X120772458Y-64959928D01*
X120831473Y-65141556D01*
X120926960Y-65306944D01*
X121054747Y-65448866D01*
X121209248Y-65561118D01*
X121215276Y-65563802D01*
X121215278Y-65563803D01*
X121377681Y-65636109D01*
X121383712Y-65638794D01*
X121477112Y-65658647D01*
X121564056Y-65677128D01*
X121564061Y-65677128D01*
X121570513Y-65678500D01*
X121761487Y-65678500D01*
X121767939Y-65677128D01*
X121767944Y-65677128D01*
X121854888Y-65658647D01*
X121948288Y-65638794D01*
X121954319Y-65636109D01*
X122116722Y-65563803D01*
X122116724Y-65563802D01*
X122122752Y-65561118D01*
X122277253Y-65448866D01*
X122405040Y-65306944D01*
X122500527Y-65141556D01*
X122559542Y-64959928D01*
X122579504Y-64770000D01*
X122559542Y-64580072D01*
X122500527Y-64398444D01*
X122405040Y-64233056D01*
X122389162Y-64215421D01*
X122281675Y-64096045D01*
X122281674Y-64096044D01*
X122277253Y-64091134D01*
X122122752Y-63978882D01*
X122116724Y-63976198D01*
X122116722Y-63976197D01*
X121954319Y-63903891D01*
X121954318Y-63903891D01*
X121948288Y-63901206D01*
X121852883Y-63880927D01*
X121767944Y-63862872D01*
X121767939Y-63862872D01*
X121761487Y-63861500D01*
X121661219Y-63861500D01*
X121593098Y-63841498D01*
X121546605Y-63787842D01*
X121536501Y-63717568D01*
X121541385Y-63696567D01*
X121541502Y-63696207D01*
X121541502Y-63696205D01*
X121543542Y-63689928D01*
X121563504Y-63500000D01*
X121543542Y-63310072D01*
X121484527Y-63128444D01*
X121389040Y-62963056D01*
X121261253Y-62821134D01*
X121106752Y-62708882D01*
X121100724Y-62706198D01*
X121100722Y-62706197D01*
X120938319Y-62633891D01*
X120938318Y-62633891D01*
X120932288Y-62631206D01*
X120838887Y-62611353D01*
X120751944Y-62592872D01*
X120751939Y-62592872D01*
X120745487Y-62591500D01*
X120554513Y-62591500D01*
X120548061Y-62592872D01*
X120548056Y-62592872D01*
X120461113Y-62611353D01*
X120367712Y-62631206D01*
X120361682Y-62633891D01*
X120361681Y-62633891D01*
X120199278Y-62706197D01*
X120199276Y-62706198D01*
X120193248Y-62708882D01*
X120089060Y-62784579D01*
X120022194Y-62808437D01*
X119953042Y-62792357D01*
X119940944Y-62784582D01*
X119836752Y-62708882D01*
X119830724Y-62706198D01*
X119830722Y-62706197D01*
X119668319Y-62633891D01*
X119668318Y-62633891D01*
X119662288Y-62631206D01*
X119568887Y-62611353D01*
X119481944Y-62592872D01*
X119481939Y-62592872D01*
X119475487Y-62591500D01*
X119284513Y-62591500D01*
X119278061Y-62592872D01*
X119278056Y-62592872D01*
X119191113Y-62611353D01*
X119097712Y-62631206D01*
X119091682Y-62633891D01*
X119091681Y-62633891D01*
X118929278Y-62706197D01*
X118929276Y-62706198D01*
X118923248Y-62708882D01*
X118768747Y-62821134D01*
X118640960Y-62963056D01*
X118545473Y-63128444D01*
X118486458Y-63310072D01*
X118466496Y-63500000D01*
X118486458Y-63689928D01*
X118488498Y-63696206D01*
X118499746Y-63730824D01*
X118501774Y-63801791D01*
X118465111Y-63862589D01*
X118401399Y-63893915D01*
X118353716Y-63893007D01*
X118211944Y-63862872D01*
X118211939Y-63862872D01*
X118205487Y-63861500D01*
X118014513Y-63861500D01*
X118008061Y-63862872D01*
X118008056Y-63862872D01*
X117923117Y-63880927D01*
X117827712Y-63901206D01*
X117821682Y-63903891D01*
X117821681Y-63903891D01*
X117659278Y-63976197D01*
X117659276Y-63976198D01*
X117653248Y-63978882D01*
X117498747Y-64091134D01*
X117494326Y-64096044D01*
X117494325Y-64096045D01*
X117386839Y-64215421D01*
X117370960Y-64233056D01*
X117275473Y-64398444D01*
X117216458Y-64580072D01*
X117196496Y-64770000D01*
X105920643Y-64770000D01*
X105921221Y-61986442D01*
X105941237Y-61918325D01*
X105994903Y-61871843D01*
X106065179Y-61861754D01*
X106129753Y-61891261D01*
X106154654Y-61920633D01*
X106212291Y-62014688D01*
X106214987Y-62019088D01*
X106361250Y-62187938D01*
X106533126Y-62330632D01*
X106726000Y-62443338D01*
X106934692Y-62523030D01*
X106939760Y-62524061D01*
X106939763Y-62524062D01*
X107047017Y-62545883D01*
X107153597Y-62567567D01*
X107158772Y-62567757D01*
X107158774Y-62567757D01*
X107371673Y-62575564D01*
X107371677Y-62575564D01*
X107376837Y-62575753D01*
X107381957Y-62575097D01*
X107381959Y-62575097D01*
X107593288Y-62548025D01*
X107593289Y-62548025D01*
X107598416Y-62547368D01*
X107603366Y-62545883D01*
X107807429Y-62484661D01*
X107807434Y-62484659D01*
X107812384Y-62483174D01*
X108012994Y-62384896D01*
X108194860Y-62255173D01*
X108353096Y-62097489D01*
X108412594Y-62014689D01*
X108483453Y-61916077D01*
X108484776Y-61917028D01*
X108531645Y-61873857D01*
X108601580Y-61861625D01*
X108667026Y-61889144D01*
X108694875Y-61920994D01*
X108754987Y-62019088D01*
X108901250Y-62187938D01*
X109073126Y-62330632D01*
X109266000Y-62443338D01*
X109474692Y-62523030D01*
X109479760Y-62524061D01*
X109479763Y-62524062D01*
X109587017Y-62545883D01*
X109693597Y-62567567D01*
X109698772Y-62567757D01*
X109698774Y-62567757D01*
X109911673Y-62575564D01*
X109911677Y-62575564D01*
X109916837Y-62575753D01*
X109921957Y-62575097D01*
X109921959Y-62575097D01*
X110133288Y-62548025D01*
X110133289Y-62548025D01*
X110138416Y-62547368D01*
X110143366Y-62545883D01*
X110347429Y-62484661D01*
X110347434Y-62484659D01*
X110352384Y-62483174D01*
X110552994Y-62384896D01*
X110734860Y-62255173D01*
X110802331Y-62187938D01*
X110843479Y-62146933D01*
X110905851Y-62113017D01*
X110976658Y-62118205D01*
X111033419Y-62160851D01*
X111050401Y-62191954D01*
X111091676Y-62302054D01*
X111100214Y-62317649D01*
X111176715Y-62419724D01*
X111189276Y-62432285D01*
X111291351Y-62508786D01*
X111306946Y-62517324D01*
X111427394Y-62562478D01*
X111442649Y-62566105D01*
X111493514Y-62571631D01*
X111500328Y-62572000D01*
X112122885Y-62572000D01*
X112138124Y-62567525D01*
X112139329Y-62566135D01*
X112141000Y-62558452D01*
X112141000Y-62553884D01*
X112649000Y-62553884D01*
X112653475Y-62569123D01*
X112654865Y-62570328D01*
X112662548Y-62571999D01*
X113289669Y-62571999D01*
X113296490Y-62571629D01*
X113347352Y-62566105D01*
X113362604Y-62562479D01*
X113483054Y-62517324D01*
X113498649Y-62508786D01*
X113600724Y-62432285D01*
X113613285Y-62419724D01*
X113689786Y-62317649D01*
X113698324Y-62302054D01*
X113743478Y-62181606D01*
X113747105Y-62166351D01*
X113752631Y-62115486D01*
X113753000Y-62108672D01*
X113753000Y-61486115D01*
X113748525Y-61470876D01*
X113747135Y-61469671D01*
X113739452Y-61468000D01*
X112667115Y-61468000D01*
X112651876Y-61472475D01*
X112650671Y-61473865D01*
X112649000Y-61481548D01*
X112649000Y-62553884D01*
X112141000Y-62553884D01*
X112141000Y-60941885D01*
X112649000Y-60941885D01*
X112653475Y-60957124D01*
X112654865Y-60958329D01*
X112662548Y-60960000D01*
X113734884Y-60960000D01*
X113750123Y-60955525D01*
X113751328Y-60954135D01*
X113752999Y-60946452D01*
X113752999Y-60319331D01*
X113752629Y-60312510D01*
X113747105Y-60261648D01*
X113743479Y-60246396D01*
X113725336Y-60198000D01*
X125578496Y-60198000D01*
X125579186Y-60204565D01*
X125597463Y-60378457D01*
X125598458Y-60387928D01*
X125657473Y-60569556D01*
X125752960Y-60734944D01*
X125880747Y-60876866D01*
X126035248Y-60989118D01*
X126041276Y-60991802D01*
X126041278Y-60991803D01*
X126203681Y-61064109D01*
X126209712Y-61066794D01*
X126303113Y-61086647D01*
X126390056Y-61105128D01*
X126390061Y-61105128D01*
X126396513Y-61106500D01*
X126587487Y-61106500D01*
X126593939Y-61105128D01*
X126593944Y-61105128D01*
X126680887Y-61086647D01*
X126774288Y-61066794D01*
X126780319Y-61064109D01*
X126942722Y-60991803D01*
X126942724Y-60991802D01*
X126948752Y-60989118D01*
X127052940Y-60913421D01*
X127119806Y-60889563D01*
X127188958Y-60905643D01*
X127201056Y-60913418D01*
X127305248Y-60989118D01*
X127311276Y-60991802D01*
X127311278Y-60991803D01*
X127473681Y-61064109D01*
X127479712Y-61066794D01*
X127573113Y-61086647D01*
X127660056Y-61105128D01*
X127660061Y-61105128D01*
X127666513Y-61106500D01*
X127857487Y-61106500D01*
X127863939Y-61105128D01*
X127863944Y-61105128D01*
X127950887Y-61086647D01*
X128044288Y-61066794D01*
X128050319Y-61064109D01*
X128212722Y-60991803D01*
X128212724Y-60991802D01*
X128218752Y-60989118D01*
X128373253Y-60876866D01*
X128501040Y-60734944D01*
X128596527Y-60569556D01*
X128655542Y-60387928D01*
X128656538Y-60378457D01*
X128674814Y-60204565D01*
X128675504Y-60198000D01*
X128663291Y-60081800D01*
X128656232Y-60014635D01*
X128656232Y-60014633D01*
X128655542Y-60008072D01*
X128596527Y-59826444D01*
X128501040Y-59661056D01*
X128373253Y-59519134D01*
X128218752Y-59406882D01*
X128212724Y-59404198D01*
X128212722Y-59404197D01*
X128050319Y-59331891D01*
X128050318Y-59331891D01*
X128044288Y-59329206D01*
X127950887Y-59309353D01*
X127863944Y-59290872D01*
X127863939Y-59290872D01*
X127857487Y-59289500D01*
X127666513Y-59289500D01*
X127660061Y-59290872D01*
X127660056Y-59290872D01*
X127573113Y-59309353D01*
X127479712Y-59329206D01*
X127473682Y-59331891D01*
X127473681Y-59331891D01*
X127311278Y-59404197D01*
X127311276Y-59404198D01*
X127305248Y-59406882D01*
X127201060Y-59482579D01*
X127134194Y-59506437D01*
X127065042Y-59490357D01*
X127052944Y-59482582D01*
X126948752Y-59406882D01*
X126942724Y-59404198D01*
X126942722Y-59404197D01*
X126780319Y-59331891D01*
X126780318Y-59331891D01*
X126774288Y-59329206D01*
X126680887Y-59309353D01*
X126593944Y-59290872D01*
X126593939Y-59290872D01*
X126587487Y-59289500D01*
X126396513Y-59289500D01*
X126390061Y-59290872D01*
X126390056Y-59290872D01*
X126303113Y-59309353D01*
X126209712Y-59329206D01*
X126203682Y-59331891D01*
X126203681Y-59331891D01*
X126041278Y-59404197D01*
X126041276Y-59404198D01*
X126035248Y-59406882D01*
X125880747Y-59519134D01*
X125752960Y-59661056D01*
X125657473Y-59826444D01*
X125598458Y-60008072D01*
X125597768Y-60014633D01*
X125597768Y-60014635D01*
X125590709Y-60081800D01*
X125578496Y-60198000D01*
X113725336Y-60198000D01*
X113698324Y-60125946D01*
X113689786Y-60110351D01*
X113613285Y-60008276D01*
X113600724Y-59995715D01*
X113498649Y-59919214D01*
X113483054Y-59910676D01*
X113362606Y-59865522D01*
X113347351Y-59861895D01*
X113296486Y-59856369D01*
X113289672Y-59856000D01*
X112667115Y-59856000D01*
X112651876Y-59860475D01*
X112650671Y-59861865D01*
X112649000Y-59869548D01*
X112649000Y-60941885D01*
X112141000Y-60941885D01*
X112141000Y-59874116D01*
X112136525Y-59858877D01*
X112135135Y-59857672D01*
X112127452Y-59856001D01*
X111500331Y-59856001D01*
X111493510Y-59856371D01*
X111442648Y-59861895D01*
X111427396Y-59865521D01*
X111306946Y-59910676D01*
X111291351Y-59919214D01*
X111189276Y-59995715D01*
X111176715Y-60008276D01*
X111100214Y-60110351D01*
X111091676Y-60125946D01*
X111050297Y-60236322D01*
X111007655Y-60293087D01*
X110941093Y-60317786D01*
X110871744Y-60302578D01*
X110839121Y-60276891D01*
X110788151Y-60220876D01*
X110788145Y-60220870D01*
X110784670Y-60217051D01*
X110780619Y-60213852D01*
X110780615Y-60213848D01*
X110613414Y-60081800D01*
X110613410Y-60081798D01*
X110609359Y-60078598D01*
X110413789Y-59970638D01*
X110408920Y-59968914D01*
X110408916Y-59968912D01*
X110208087Y-59897795D01*
X110208083Y-59897794D01*
X110203212Y-59896069D01*
X110198119Y-59895162D01*
X110198116Y-59895161D01*
X109988373Y-59857800D01*
X109988367Y-59857799D01*
X109983284Y-59856894D01*
X109909452Y-59855992D01*
X109765081Y-59854228D01*
X109765079Y-59854228D01*
X109759911Y-59854165D01*
X109539091Y-59887955D01*
X109326756Y-59957357D01*
X109128607Y-60060507D01*
X109124474Y-60063610D01*
X109124471Y-60063612D01*
X109041450Y-60125946D01*
X108949965Y-60194635D01*
X108795629Y-60356138D01*
X108688201Y-60513621D01*
X108633293Y-60558621D01*
X108562768Y-60566792D01*
X108499021Y-60535538D01*
X108478324Y-60511054D01*
X108397822Y-60386617D01*
X108397820Y-60386614D01*
X108395014Y-60382277D01*
X108244670Y-60217051D01*
X108240619Y-60213852D01*
X108240615Y-60213848D01*
X108073414Y-60081800D01*
X108073410Y-60081798D01*
X108069359Y-60078598D01*
X107873789Y-59970638D01*
X107868920Y-59968914D01*
X107868916Y-59968912D01*
X107668087Y-59897795D01*
X107668083Y-59897794D01*
X107663212Y-59896069D01*
X107658119Y-59895162D01*
X107658116Y-59895161D01*
X107448373Y-59857800D01*
X107448367Y-59857799D01*
X107443284Y-59856894D01*
X107369452Y-59855992D01*
X107225081Y-59854228D01*
X107225079Y-59854228D01*
X107219911Y-59854165D01*
X106999091Y-59887955D01*
X106786756Y-59957357D01*
X106588607Y-60060507D01*
X106584474Y-60063610D01*
X106584471Y-60063612D01*
X106501450Y-60125946D01*
X106409965Y-60194635D01*
X106255629Y-60356138D01*
X106151629Y-60508597D01*
X106096720Y-60553597D01*
X106026195Y-60561768D01*
X105962448Y-60530514D01*
X105925718Y-60469757D01*
X105921543Y-60437564D01*
X105921922Y-58610181D01*
X105922022Y-58128271D01*
X105942038Y-58060155D01*
X105995703Y-58013674D01*
X106065980Y-58003584D01*
X106130554Y-58033091D01*
X106155455Y-58062463D01*
X106229987Y-58184088D01*
X106376250Y-58352938D01*
X106548126Y-58495632D01*
X106741000Y-58608338D01*
X106949692Y-58688030D01*
X106954760Y-58689061D01*
X106954763Y-58689062D01*
X107062017Y-58710883D01*
X107168597Y-58732567D01*
X107173772Y-58732757D01*
X107173774Y-58732757D01*
X107386673Y-58740564D01*
X107386677Y-58740564D01*
X107391837Y-58740753D01*
X107396957Y-58740097D01*
X107396959Y-58740097D01*
X107608288Y-58713025D01*
X107608289Y-58713025D01*
X107613416Y-58712368D01*
X107618366Y-58710883D01*
X107822429Y-58649661D01*
X107822434Y-58649659D01*
X107827384Y-58648174D01*
X108027994Y-58549896D01*
X108209860Y-58420173D01*
X108368096Y-58262489D01*
X108498453Y-58081077D01*
X108499776Y-58082028D01*
X108546645Y-58038857D01*
X108616580Y-58026625D01*
X108682026Y-58054144D01*
X108709875Y-58085994D01*
X108769987Y-58184088D01*
X108916250Y-58352938D01*
X109088126Y-58495632D01*
X109281000Y-58608338D01*
X109489692Y-58688030D01*
X109494760Y-58689061D01*
X109494763Y-58689062D01*
X109602017Y-58710883D01*
X109708597Y-58732567D01*
X109713772Y-58732757D01*
X109713774Y-58732757D01*
X109926673Y-58740564D01*
X109926677Y-58740564D01*
X109931837Y-58740753D01*
X109936957Y-58740097D01*
X109936959Y-58740097D01*
X110148288Y-58713025D01*
X110148289Y-58713025D01*
X110153416Y-58712368D01*
X110158366Y-58710883D01*
X110362429Y-58649661D01*
X110362434Y-58649659D01*
X110367384Y-58648174D01*
X110567994Y-58549896D01*
X110749860Y-58420173D01*
X110858091Y-58312319D01*
X110920462Y-58278404D01*
X110991268Y-58283592D01*
X111048030Y-58326238D01*
X111065012Y-58357341D01*
X111109385Y-58475705D01*
X111196739Y-58592261D01*
X111313295Y-58679615D01*
X111449684Y-58730745D01*
X111511866Y-58737500D01*
X113308134Y-58737500D01*
X113370316Y-58730745D01*
X113506705Y-58679615D01*
X113623261Y-58592261D01*
X113710615Y-58475705D01*
X113761745Y-58339316D01*
X113768500Y-58277134D01*
X113768500Y-57658000D01*
X124308496Y-57658000D01*
X124309186Y-57664565D01*
X124313061Y-57701429D01*
X124328458Y-57847928D01*
X124387473Y-58029556D01*
X124482960Y-58194944D01*
X124487378Y-58199851D01*
X124487379Y-58199852D01*
X124605879Y-58331460D01*
X124610747Y-58336866D01*
X124765248Y-58449118D01*
X124771276Y-58451802D01*
X124771278Y-58451803D01*
X124933681Y-58524109D01*
X124939712Y-58526794D01*
X125033112Y-58546647D01*
X125120056Y-58565128D01*
X125120061Y-58565128D01*
X125126513Y-58566500D01*
X125317487Y-58566500D01*
X125323939Y-58565128D01*
X125323944Y-58565128D01*
X125410888Y-58546647D01*
X125504288Y-58526794D01*
X125510319Y-58524109D01*
X125672722Y-58451803D01*
X125672724Y-58451802D01*
X125678752Y-58449118D01*
X125833253Y-58336866D01*
X125838121Y-58331460D01*
X125956621Y-58199852D01*
X125956622Y-58199851D01*
X125961040Y-58194944D01*
X126056527Y-58029556D01*
X126115542Y-57847928D01*
X126130940Y-57701429D01*
X126134814Y-57664565D01*
X126135504Y-57658000D01*
X126128236Y-57588851D01*
X126116232Y-57474635D01*
X126116232Y-57474633D01*
X126115542Y-57468072D01*
X126102254Y-57427176D01*
X126100226Y-57356209D01*
X126136889Y-57295411D01*
X126200601Y-57264085D01*
X126248284Y-57264993D01*
X126390056Y-57295128D01*
X126390061Y-57295128D01*
X126396513Y-57296500D01*
X126587487Y-57296500D01*
X126593939Y-57295128D01*
X126593944Y-57295128D01*
X126680887Y-57276647D01*
X126774288Y-57256794D01*
X126785440Y-57251829D01*
X126942722Y-57181803D01*
X126942724Y-57181802D01*
X126948752Y-57179118D01*
X127052940Y-57103421D01*
X127119806Y-57079563D01*
X127188958Y-57095643D01*
X127201056Y-57103418D01*
X127305248Y-57179118D01*
X127311276Y-57181802D01*
X127311278Y-57181803D01*
X127468560Y-57251829D01*
X127479712Y-57256794D01*
X127573113Y-57276647D01*
X127660056Y-57295128D01*
X127660061Y-57295128D01*
X127666513Y-57296500D01*
X127766781Y-57296500D01*
X127834902Y-57316502D01*
X127881395Y-57370158D01*
X127891499Y-57440432D01*
X127886615Y-57461433D01*
X127884458Y-57468072D01*
X127883768Y-57474633D01*
X127883768Y-57474635D01*
X127871764Y-57588851D01*
X127864496Y-57658000D01*
X127865186Y-57664565D01*
X127869061Y-57701429D01*
X127884458Y-57847928D01*
X127943473Y-58029556D01*
X128038960Y-58194944D01*
X128043378Y-58199851D01*
X128043379Y-58199852D01*
X128161879Y-58331460D01*
X128166747Y-58336866D01*
X128321248Y-58449118D01*
X128327276Y-58451802D01*
X128327278Y-58451803D01*
X128489681Y-58524109D01*
X128495712Y-58526794D01*
X128589112Y-58546647D01*
X128676056Y-58565128D01*
X128676061Y-58565128D01*
X128682513Y-58566500D01*
X128873487Y-58566500D01*
X128879939Y-58565128D01*
X128879944Y-58565128D01*
X128966888Y-58546647D01*
X129060288Y-58526794D01*
X129066319Y-58524109D01*
X129228722Y-58451803D01*
X129228724Y-58451802D01*
X129234752Y-58449118D01*
X129389253Y-58336866D01*
X129394121Y-58331460D01*
X129512621Y-58199852D01*
X129512622Y-58199851D01*
X129517040Y-58194944D01*
X129612527Y-58029556D01*
X129671542Y-57847928D01*
X129686940Y-57701429D01*
X129690814Y-57664565D01*
X129691504Y-57658000D01*
X129684236Y-57588851D01*
X129672232Y-57474635D01*
X129672232Y-57474633D01*
X129671542Y-57468072D01*
X129612527Y-57286444D01*
X129597849Y-57261020D01*
X129548321Y-57175237D01*
X129517040Y-57121056D01*
X129501162Y-57103421D01*
X129393675Y-56984045D01*
X129393674Y-56984044D01*
X129389253Y-56979134D01*
X129234752Y-56866882D01*
X129228724Y-56864198D01*
X129228722Y-56864197D01*
X129066319Y-56791891D01*
X129066318Y-56791891D01*
X129060288Y-56789206D01*
X128964883Y-56768927D01*
X128879944Y-56750872D01*
X128879939Y-56750872D01*
X128873487Y-56749500D01*
X128773219Y-56749500D01*
X128705098Y-56729498D01*
X128658605Y-56675842D01*
X128648951Y-56608695D01*
X132495251Y-56608695D01*
X132495548Y-56613848D01*
X132495548Y-56613851D01*
X132503432Y-56750589D01*
X132508110Y-56831715D01*
X132509247Y-56836761D01*
X132509248Y-56836767D01*
X132530275Y-56930069D01*
X132557222Y-57049639D01*
X132641266Y-57256616D01*
X132757987Y-57447088D01*
X132904250Y-57615938D01*
X133076126Y-57758632D01*
X133269000Y-57871338D01*
X133477692Y-57951030D01*
X133482760Y-57952061D01*
X133482763Y-57952062D01*
X133590017Y-57973883D01*
X133696597Y-57995567D01*
X133701772Y-57995757D01*
X133701774Y-57995757D01*
X133914673Y-58003564D01*
X133914677Y-58003564D01*
X133919837Y-58003753D01*
X133924957Y-58003097D01*
X133924959Y-58003097D01*
X134136288Y-57976025D01*
X134136289Y-57976025D01*
X134141416Y-57975368D01*
X134146366Y-57973883D01*
X134350429Y-57912661D01*
X134350434Y-57912659D01*
X134355384Y-57911174D01*
X134555994Y-57812896D01*
X134737860Y-57683173D01*
X134805331Y-57615938D01*
X134846479Y-57574933D01*
X134908851Y-57541017D01*
X134979658Y-57546205D01*
X135036419Y-57588851D01*
X135053401Y-57619954D01*
X135094676Y-57730054D01*
X135103214Y-57745649D01*
X135179715Y-57847724D01*
X135192276Y-57860285D01*
X135294351Y-57936786D01*
X135309946Y-57945324D01*
X135430394Y-57990478D01*
X135445649Y-57994105D01*
X135496514Y-57999631D01*
X135503328Y-58000000D01*
X136125885Y-58000000D01*
X136141124Y-57995525D01*
X136142329Y-57994135D01*
X136144000Y-57986452D01*
X136144000Y-55302116D01*
X136139525Y-55286877D01*
X136138135Y-55285672D01*
X136130452Y-55284001D01*
X135503331Y-55284001D01*
X135496510Y-55284371D01*
X135445648Y-55289895D01*
X135430396Y-55293521D01*
X135309946Y-55338676D01*
X135294351Y-55347214D01*
X135192276Y-55423715D01*
X135179715Y-55436276D01*
X135103214Y-55538351D01*
X135094676Y-55553946D01*
X135053297Y-55664322D01*
X135010655Y-55721087D01*
X134944093Y-55745786D01*
X134874744Y-55730578D01*
X134842121Y-55704891D01*
X134791151Y-55648876D01*
X134791148Y-55648873D01*
X134787670Y-55645051D01*
X134783619Y-55641852D01*
X134783615Y-55641848D01*
X134616414Y-55509800D01*
X134616410Y-55509798D01*
X134612359Y-55506598D01*
X134416789Y-55398638D01*
X134411920Y-55396914D01*
X134411916Y-55396912D01*
X134211087Y-55325795D01*
X134211083Y-55325794D01*
X134206212Y-55324069D01*
X134201119Y-55323162D01*
X134201116Y-55323161D01*
X133991373Y-55285800D01*
X133991367Y-55285799D01*
X133986284Y-55284894D01*
X133912452Y-55283992D01*
X133768081Y-55282228D01*
X133768079Y-55282228D01*
X133762911Y-55282165D01*
X133542091Y-55315955D01*
X133329756Y-55385357D01*
X133299443Y-55401137D01*
X133146274Y-55480872D01*
X133131607Y-55488507D01*
X133127474Y-55491610D01*
X133127471Y-55491612D01*
X132969391Y-55610302D01*
X132952965Y-55622635D01*
X132798629Y-55784138D01*
X132672743Y-55968680D01*
X132645554Y-56027255D01*
X132581272Y-56165739D01*
X132578688Y-56171305D01*
X132518989Y-56386570D01*
X132495251Y-56608695D01*
X128648951Y-56608695D01*
X128648501Y-56605568D01*
X128653385Y-56584567D01*
X128653502Y-56584207D01*
X128653502Y-56584205D01*
X128655542Y-56577928D01*
X128658308Y-56551617D01*
X128674814Y-56394565D01*
X128675504Y-56388000D01*
X128663639Y-56275109D01*
X128656232Y-56204635D01*
X128656232Y-56204633D01*
X128655542Y-56198072D01*
X128596527Y-56016444D01*
X128501040Y-55851056D01*
X128464323Y-55810277D01*
X128377675Y-55714045D01*
X128377674Y-55714044D01*
X128373253Y-55709134D01*
X128218752Y-55596882D01*
X128212724Y-55594198D01*
X128212722Y-55594197D01*
X128050319Y-55521891D01*
X128050318Y-55521891D01*
X128044288Y-55519206D01*
X127950887Y-55499353D01*
X127863944Y-55480872D01*
X127863939Y-55480872D01*
X127857487Y-55479500D01*
X127666513Y-55479500D01*
X127660061Y-55480872D01*
X127660056Y-55480872D01*
X127573113Y-55499353D01*
X127479712Y-55519206D01*
X127473682Y-55521891D01*
X127473681Y-55521891D01*
X127311278Y-55594197D01*
X127311276Y-55594198D01*
X127305248Y-55596882D01*
X127201060Y-55672579D01*
X127134194Y-55696437D01*
X127065042Y-55680357D01*
X127052944Y-55672582D01*
X126948752Y-55596882D01*
X126942724Y-55594198D01*
X126942722Y-55594197D01*
X126780319Y-55521891D01*
X126780318Y-55521891D01*
X126774288Y-55519206D01*
X126680887Y-55499353D01*
X126593944Y-55480872D01*
X126593939Y-55480872D01*
X126587487Y-55479500D01*
X126396513Y-55479500D01*
X126390061Y-55480872D01*
X126390056Y-55480872D01*
X126303113Y-55499353D01*
X126209712Y-55519206D01*
X126203682Y-55521891D01*
X126203681Y-55521891D01*
X126041278Y-55594197D01*
X126041276Y-55594198D01*
X126035248Y-55596882D01*
X125880747Y-55709134D01*
X125876326Y-55714044D01*
X125876325Y-55714045D01*
X125789678Y-55810277D01*
X125752960Y-55851056D01*
X125657473Y-56016444D01*
X125598458Y-56198072D01*
X125597768Y-56204633D01*
X125597768Y-56204635D01*
X125590361Y-56275109D01*
X125578496Y-56388000D01*
X125579186Y-56394565D01*
X125595693Y-56551617D01*
X125598458Y-56577928D01*
X125600498Y-56584206D01*
X125611746Y-56618824D01*
X125613774Y-56689791D01*
X125577111Y-56750589D01*
X125513399Y-56781915D01*
X125465716Y-56781007D01*
X125323944Y-56750872D01*
X125323939Y-56750872D01*
X125317487Y-56749500D01*
X125126513Y-56749500D01*
X125120061Y-56750872D01*
X125120056Y-56750872D01*
X125035117Y-56768927D01*
X124939712Y-56789206D01*
X124933682Y-56791891D01*
X124933681Y-56791891D01*
X124771278Y-56864197D01*
X124771276Y-56864198D01*
X124765248Y-56866882D01*
X124610747Y-56979134D01*
X124606326Y-56984044D01*
X124606325Y-56984045D01*
X124498839Y-57103421D01*
X124482960Y-57121056D01*
X124451679Y-57175237D01*
X124402152Y-57261020D01*
X124387473Y-57286444D01*
X124328458Y-57468072D01*
X124327768Y-57474633D01*
X124327768Y-57474635D01*
X124315764Y-57588851D01*
X124308496Y-57658000D01*
X113768500Y-57658000D01*
X113768500Y-56480866D01*
X113761745Y-56418684D01*
X113710615Y-56282295D01*
X113623261Y-56165739D01*
X113506705Y-56078385D01*
X113370316Y-56027255D01*
X113308134Y-56020500D01*
X111511866Y-56020500D01*
X111449684Y-56027255D01*
X111313295Y-56078385D01*
X111196739Y-56165739D01*
X111109385Y-56282295D01*
X111106233Y-56290703D01*
X111064919Y-56400907D01*
X111022277Y-56457671D01*
X110955716Y-56482371D01*
X110886367Y-56467163D01*
X110853743Y-56441476D01*
X110803151Y-56385875D01*
X110803142Y-56385866D01*
X110799670Y-56382051D01*
X110795619Y-56378852D01*
X110795615Y-56378848D01*
X110628414Y-56246800D01*
X110628410Y-56246798D01*
X110624359Y-56243598D01*
X110428789Y-56135638D01*
X110423920Y-56133914D01*
X110423916Y-56133912D01*
X110223087Y-56062795D01*
X110223083Y-56062794D01*
X110218212Y-56061069D01*
X110213119Y-56060162D01*
X110213116Y-56060161D01*
X110003373Y-56022800D01*
X110003367Y-56022799D01*
X109998284Y-56021894D01*
X109924452Y-56020992D01*
X109780081Y-56019228D01*
X109780079Y-56019228D01*
X109774911Y-56019165D01*
X109554091Y-56052955D01*
X109341756Y-56122357D01*
X109143607Y-56225507D01*
X109139474Y-56228610D01*
X109139471Y-56228612D01*
X108969100Y-56356530D01*
X108964965Y-56359635D01*
X108939225Y-56386570D01*
X108871280Y-56457671D01*
X108810629Y-56521138D01*
X108703201Y-56678621D01*
X108648293Y-56723621D01*
X108577768Y-56731792D01*
X108514021Y-56700538D01*
X108493324Y-56676054D01*
X108412822Y-56551617D01*
X108412820Y-56551614D01*
X108410014Y-56547277D01*
X108259670Y-56382051D01*
X108255619Y-56378852D01*
X108255615Y-56378848D01*
X108088414Y-56246800D01*
X108088410Y-56246798D01*
X108084359Y-56243598D01*
X107888789Y-56135638D01*
X107883920Y-56133914D01*
X107883916Y-56133912D01*
X107683087Y-56062795D01*
X107683083Y-56062794D01*
X107678212Y-56061069D01*
X107673119Y-56060162D01*
X107673116Y-56060161D01*
X107463373Y-56022800D01*
X107463367Y-56022799D01*
X107458284Y-56021894D01*
X107384452Y-56020992D01*
X107240081Y-56019228D01*
X107240079Y-56019228D01*
X107234911Y-56019165D01*
X107014091Y-56052955D01*
X106801756Y-56122357D01*
X106603607Y-56225507D01*
X106599474Y-56228610D01*
X106599471Y-56228612D01*
X106429100Y-56356530D01*
X106424965Y-56359635D01*
X106399225Y-56386570D01*
X106331280Y-56457671D01*
X106270629Y-56521138D01*
X106163204Y-56678618D01*
X106152423Y-56694422D01*
X106097512Y-56739425D01*
X106026987Y-56747596D01*
X105963240Y-56716342D01*
X105926510Y-56655585D01*
X105922335Y-56623392D01*
X105923608Y-50495200D01*
X107073126Y-50495200D01*
X107092991Y-50747603D01*
X107094145Y-50752410D01*
X107094146Y-50752416D01*
X107104002Y-50793469D01*
X107152095Y-50993791D01*
X107153988Y-50998362D01*
X107153989Y-50998364D01*
X107220530Y-51159007D01*
X107248984Y-51227702D01*
X107381272Y-51443576D01*
X107545702Y-51636098D01*
X107738224Y-51800528D01*
X107954098Y-51932816D01*
X107958668Y-51934709D01*
X107958672Y-51934711D01*
X108183436Y-52027811D01*
X108188009Y-52029705D01*
X108272632Y-52050021D01*
X108429384Y-52087654D01*
X108429390Y-52087655D01*
X108434197Y-52088809D01*
X108534016Y-52096665D01*
X108620945Y-52103507D01*
X108620952Y-52103507D01*
X108623401Y-52103700D01*
X108749799Y-52103700D01*
X108752248Y-52103507D01*
X108752255Y-52103507D01*
X108839184Y-52096665D01*
X108939003Y-52088809D01*
X108943810Y-52087655D01*
X108943816Y-52087654D01*
X109100568Y-52050021D01*
X109185191Y-52029705D01*
X109189764Y-52027811D01*
X109414528Y-51934711D01*
X109414532Y-51934709D01*
X109419102Y-51932816D01*
X109634976Y-51800528D01*
X109827498Y-51636098D01*
X109991928Y-51443576D01*
X110124216Y-51227702D01*
X110152671Y-51159007D01*
X110219211Y-50998364D01*
X110219212Y-50998362D01*
X110221105Y-50993791D01*
X110269198Y-50793469D01*
X110279054Y-50752416D01*
X110279055Y-50752410D01*
X110280209Y-50747603D01*
X110300074Y-50495200D01*
X110280209Y-50242797D01*
X110270886Y-50203960D01*
X110232203Y-50042836D01*
X110221105Y-49996609D01*
X110188385Y-49917615D01*
X110126111Y-49767272D01*
X110126109Y-49767268D01*
X110124216Y-49762698D01*
X109991928Y-49546824D01*
X109827498Y-49354302D01*
X109634976Y-49189872D01*
X109419102Y-49057584D01*
X109414532Y-49055691D01*
X109414528Y-49055689D01*
X109189764Y-48962589D01*
X109189762Y-48962588D01*
X109185191Y-48960695D01*
X109088576Y-48937500D01*
X108943816Y-48902746D01*
X108943810Y-48902745D01*
X108939003Y-48901591D01*
X108839184Y-48893735D01*
X108752255Y-48886893D01*
X108752248Y-48886893D01*
X108749799Y-48886700D01*
X108623401Y-48886700D01*
X108620952Y-48886893D01*
X108620945Y-48886893D01*
X108534016Y-48893735D01*
X108434197Y-48901591D01*
X108429390Y-48902745D01*
X108429384Y-48902746D01*
X108284624Y-48937500D01*
X108188009Y-48960695D01*
X108183438Y-48962588D01*
X108183436Y-48962589D01*
X107958672Y-49055689D01*
X107958668Y-49055691D01*
X107954098Y-49057584D01*
X107738224Y-49189872D01*
X107545702Y-49354302D01*
X107381272Y-49546824D01*
X107248984Y-49762698D01*
X107247091Y-49767268D01*
X107247089Y-49767272D01*
X107184815Y-49917615D01*
X107152095Y-49996609D01*
X107140997Y-50042836D01*
X107102315Y-50203960D01*
X107092991Y-50242797D01*
X107073126Y-50495200D01*
X105923608Y-50495200D01*
X105923843Y-49364323D01*
X105925308Y-49345189D01*
X105926783Y-49335601D01*
X105929050Y-49320867D01*
X105927190Y-49306840D01*
X105926468Y-49280616D01*
X105939654Y-49109286D01*
X105942718Y-49089730D01*
X105988181Y-48899066D01*
X105994271Y-48880232D01*
X106069030Y-48699050D01*
X106077993Y-48681402D01*
X106180209Y-48514156D01*
X106191822Y-48498135D01*
X106318973Y-48348958D01*
X106332952Y-48334954D01*
X106481891Y-48207537D01*
X106497897Y-48195890D01*
X106664953Y-48093372D01*
X106682585Y-48084376D01*
X106789115Y-48040193D01*
X106863637Y-48009285D01*
X106882450Y-48003165D01*
X107073035Y-47957354D01*
X107092583Y-47954254D01*
X107256900Y-47941307D01*
X107273762Y-47941947D01*
X107273764Y-47941773D01*
X107282733Y-47941882D01*
X107291608Y-47943264D01*
X107323130Y-47939142D01*
X107339467Y-47938078D01*
X113975789Y-47938078D01*
X114043910Y-47958080D01*
G37*
%TD.AperFunction*%
%TD*%
M02*
