%FSLAX45Y45*%
G04 Gerber Fmt 4.5, Leading zero omitted, Abs format (unit mm)*
G04 Created by KiCad (PCBNEW (6.0.2)) date 2022-12-08 21:30:06*
%MOMM*%
%LPD*%
G01*
G04 APERTURE LIST*
%TA.AperFunction,Profile*%
%ADD10C,0.100000*%
%TD*%
%ADD11C,0.200000*%
%ADD12C,0.020000*%
%ADD13C,0.030000*%
%ADD14C,0.040000*%
%ADD15C,0.060000*%
%ADD16C,0.085000*%
%ADD17C,0.100000*%
G04 APERTURE END LIST*
D10*
X13654212Y-7936672D02*
X10728960Y-7936672D01*
X13654212Y-7936672D02*
G75*
G03*
X13842172Y-7748712I0J187960D01*
G01*
X13844712Y-4930968D02*
G75*
G03*
X13656752Y-4743008I-187960J0D01*
G01*
X10729788Y-4743008D02*
G75*
G03*
X10541585Y-4931553I0J-188203D01*
G01*
X10729788Y-4743008D02*
X13656752Y-4743008D01*
X13844712Y-4930968D02*
X13842172Y-7748712D01*
X10541000Y-7748712D02*
G75*
G03*
X10728960Y-7936672I187960J0D01*
G01*
X10541000Y-7748712D02*
X10541585Y-4931553D01*
D11*
D12*
X12039760Y-7630320D02*
X12059760Y-7650320D01*
X12059760Y-7630320D02*
X12039760Y-7650320D01*
D13*
X10870960Y-7198360D02*
G75*
G03*
X10870960Y-7198360I-15000J0D01*
G01*
X12537200Y-7670800D02*
G75*
G03*
X12537200Y-7670800I-15000J0D01*
G01*
X12621020Y-7200900D02*
G75*
G03*
X12621020Y-7200900I-15000J0D01*
G01*
X12659120Y-7874000D02*
G75*
G03*
X12659120Y-7874000I-15000J0D01*
G01*
D14*
X10699900Y-6869600D02*
X10699900Y-6909600D01*
X10679900Y-6889600D02*
X10719900Y-6889600D01*
X10731500Y-6761800D02*
X10731500Y-6801800D01*
X10711500Y-6781800D02*
X10751500Y-6781800D01*
X11010900Y-7168200D02*
X11010900Y-7208200D01*
X10990900Y-7188200D02*
X11030900Y-7188200D01*
X11010900Y-7338380D02*
X11010900Y-7378380D01*
X10990900Y-7358380D02*
X11030900Y-7358380D01*
X11176000Y-6876100D02*
X11176000Y-6916100D01*
X11156000Y-6896100D02*
X11196000Y-6896100D01*
X11389360Y-5468940D02*
X11389360Y-5508940D01*
X11369360Y-5488940D02*
X11409360Y-5488940D01*
X11617960Y-5301300D02*
X11617960Y-5341300D01*
X11597960Y-5321300D02*
X11637960Y-5321300D01*
X11731800Y-5336400D02*
X11731800Y-5376400D01*
X11711800Y-5356400D02*
X11751800Y-5356400D01*
X11811000Y-6457000D02*
X11811000Y-6497000D01*
X11791000Y-6477000D02*
X11831000Y-6477000D01*
X11912600Y-7854000D02*
X11912600Y-7894000D01*
X11892600Y-7874000D02*
X11932600Y-7874000D01*
X11938000Y-6330000D02*
X11938000Y-6370000D01*
X11918000Y-6350000D02*
X11958000Y-6350000D01*
X11938000Y-6711000D02*
X11938000Y-6751000D01*
X11918000Y-6731000D02*
X11958000Y-6731000D01*
X11991340Y-5341940D02*
X11991340Y-5381940D01*
X11971340Y-5361940D02*
X12011340Y-5361940D01*
X12065000Y-6330000D02*
X12065000Y-6370000D01*
X12045000Y-6350000D02*
X12085000Y-6350000D01*
X12065000Y-6711000D02*
X12065000Y-6751000D01*
X12045000Y-6731000D02*
X12085000Y-6731000D01*
X12098020Y-5291970D02*
X12098020Y-5331970D01*
X12078020Y-5311970D02*
X12118020Y-5311970D01*
X12166600Y-6457000D02*
X12166600Y-6497000D01*
X12146600Y-6477000D02*
X12186600Y-6477000D01*
X12293600Y-5331780D02*
X12293600Y-5371780D01*
X12273600Y-5351780D02*
X12313600Y-5351780D01*
X12382500Y-7460300D02*
X12382500Y-7500300D01*
X12362500Y-7480300D02*
X12402500Y-7480300D01*
X12382500Y-7841300D02*
X12382500Y-7881300D01*
X12362500Y-7861300D02*
X12402500Y-7861300D01*
X12522200Y-5745800D02*
X12522200Y-5785800D01*
X12502200Y-5765800D02*
X12542200Y-5765800D01*
X12596930Y-4862950D02*
X12596930Y-4902950D01*
X12576930Y-4882950D02*
X12616930Y-4882950D01*
X12644120Y-7447600D02*
X12644120Y-7487600D01*
X12624120Y-7467600D02*
X12664120Y-7467600D01*
X12649200Y-5618800D02*
X12649200Y-5658800D01*
X12629200Y-5638800D02*
X12669200Y-5638800D01*
X12649200Y-5999800D02*
X12649200Y-6039800D01*
X12629200Y-6019800D02*
X12669200Y-6019800D01*
X12711630Y-4862950D02*
X12711630Y-4902950D01*
X12691630Y-4882950D02*
X12731630Y-4882950D01*
X12776200Y-5618800D02*
X12776200Y-5658800D01*
X12756200Y-5638800D02*
X12796200Y-5638800D01*
X12776200Y-5999800D02*
X12776200Y-6039800D01*
X12756200Y-6019800D02*
X12796200Y-6019800D01*
X12877800Y-5745800D02*
X12877800Y-5785800D01*
X12857800Y-5765800D02*
X12897800Y-5765800D01*
X13665200Y-6965000D02*
X13665200Y-7005000D01*
X13645200Y-6985000D02*
X13685200Y-6985000D01*
X13666600Y-7344600D02*
X13666600Y-7384600D01*
X13646600Y-7364600D02*
X13686600Y-7364600D01*
D15*
X11533013Y-4909463D02*
X11533013Y-4867037D01*
X11490587Y-4867037D01*
X11490587Y-4909463D01*
X11533013Y-4909463D01*
D11*
X11531800Y-4923250D02*
X11531800Y-4853250D01*
X11491800Y-4923250D02*
X11491800Y-4853250D01*
X11531800Y-4853250D02*
G75*
G03*
X11491800Y-4853250I-20000J0D01*
G01*
X11491800Y-4923250D02*
G75*
G03*
X11531800Y-4923250I20000J0D01*
G01*
D15*
X12233013Y-4909463D02*
X12233013Y-4867037D01*
X12190587Y-4867037D01*
X12190587Y-4909463D01*
X12233013Y-4909463D01*
D11*
X12191800Y-4853250D02*
X12191800Y-4923250D01*
X12231800Y-4853250D02*
X12231800Y-4923250D01*
X12191800Y-4923250D02*
G75*
G03*
X12231800Y-4923250I20000J0D01*
G01*
X12231800Y-4853250D02*
G75*
G03*
X12191800Y-4853250I-20000J0D01*
G01*
D16*
X11611800Y-5200750D02*
X11654300Y-5158250D01*
X11611800Y-5115750D01*
X11569300Y-5158250D01*
X11611800Y-5200750D01*
X12111800Y-5200750D02*
X12154300Y-5158250D01*
X12111800Y-5115750D01*
X12069300Y-5158250D01*
X12111800Y-5200750D01*
D17*
X10681500Y-6071400D02*
X10781500Y-6171400D01*
X10781500Y-6071400D02*
X10681500Y-6171400D01*
X10781500Y-6121400D02*
G75*
G03*
X10781500Y-6121400I-50000J0D01*
G01*
X10683000Y-5687900D02*
X10783000Y-5787900D01*
X10783000Y-5687900D02*
X10683000Y-5787900D01*
X10783000Y-5737900D02*
G75*
G03*
X10783000Y-5737900I-50000J0D01*
G01*
X10935500Y-6071400D02*
X11035500Y-6171400D01*
X11035500Y-6071400D02*
X10935500Y-6171400D01*
X11035500Y-6121400D02*
G75*
G03*
X11035500Y-6121400I-50000J0D01*
G01*
X10937000Y-5687900D02*
X11037000Y-5787900D01*
X11037000Y-5687900D02*
X10937000Y-5787900D01*
X11037000Y-5737900D02*
G75*
G03*
X11037000Y-5737900I-50000J0D01*
G01*
X11189500Y-6071400D02*
X11289500Y-6171400D01*
X11289500Y-6071400D02*
X11189500Y-6171400D01*
X11289500Y-6121400D02*
G75*
G03*
X11289500Y-6121400I-50000J0D01*
G01*
X11191000Y-5687900D02*
X11291000Y-5787900D01*
X11291000Y-5687900D02*
X11191000Y-5787900D01*
X11291000Y-5737900D02*
G75*
G03*
X11291000Y-5737900I-50000J0D01*
G01*
X11507000Y-7519200D02*
X11607000Y-7619200D01*
X11607000Y-7519200D02*
X11507000Y-7619200D01*
X11607000Y-7569200D02*
G75*
G03*
X11607000Y-7569200I-50000J0D01*
G01*
X12904000Y-7519200D02*
X13004000Y-7619200D01*
X13004000Y-7519200D02*
X12904000Y-7619200D01*
X13004000Y-7569200D02*
G75*
G03*
X13004000Y-7569200I-50000J0D01*
G01*
X13335800Y-5614200D02*
X13435800Y-5714200D01*
X13435800Y-5614200D02*
X13335800Y-5714200D01*
X13435800Y-5664200D02*
G75*
G03*
X13435800Y-5664200I-50000J0D01*
G01*
X13589800Y-5614200D02*
X13689800Y-5714200D01*
X13689800Y-5614200D02*
X13589800Y-5714200D01*
X13689800Y-5664200D02*
G75*
G03*
X13689800Y-5664200I-50000J0D01*
G01*
D11*
X10793619Y-8252148D02*
X10793619Y-8052148D01*
X10841238Y-8052148D01*
X10869810Y-8061672D01*
X10888857Y-8080720D01*
X10898381Y-8099767D01*
X10907905Y-8137863D01*
X10907905Y-8166434D01*
X10898381Y-8204529D01*
X10888857Y-8223577D01*
X10869810Y-8242624D01*
X10841238Y-8252148D01*
X10793619Y-8252148D01*
X10993619Y-8252148D02*
X10993619Y-8118815D01*
X10993619Y-8156910D02*
X11003143Y-8137863D01*
X11012667Y-8128339D01*
X11031714Y-8118815D01*
X11050762Y-8118815D01*
X11117429Y-8252148D02*
X11117429Y-8118815D01*
X11117429Y-8052148D02*
X11107905Y-8061672D01*
X11117429Y-8071196D01*
X11126952Y-8061672D01*
X11117429Y-8052148D01*
X11117429Y-8071196D01*
X11241238Y-8252148D02*
X11222190Y-8242624D01*
X11212667Y-8223577D01*
X11212667Y-8052148D01*
X11346000Y-8252148D02*
X11326952Y-8242624D01*
X11317428Y-8223577D01*
X11317428Y-8052148D01*
X11574571Y-8252148D02*
X11574571Y-8052148D01*
X11641238Y-8195005D01*
X11707905Y-8052148D01*
X11707905Y-8252148D01*
X11888857Y-8252148D02*
X11888857Y-8147386D01*
X11879333Y-8128339D01*
X11860286Y-8118815D01*
X11822190Y-8118815D01*
X11803143Y-8128339D01*
X11888857Y-8242624D02*
X11869809Y-8252148D01*
X11822190Y-8252148D01*
X11803143Y-8242624D01*
X11793619Y-8223577D01*
X11793619Y-8204529D01*
X11803143Y-8185482D01*
X11822190Y-8175958D01*
X11869809Y-8175958D01*
X11888857Y-8166434D01*
X11984095Y-8118815D02*
X11984095Y-8318815D01*
X11984095Y-8128339D02*
X12003143Y-8118815D01*
X12041238Y-8118815D01*
X12060286Y-8128339D01*
X12069809Y-8137863D01*
X12079333Y-8156910D01*
X12079333Y-8214053D01*
X12069809Y-8233101D01*
X12060286Y-8242624D01*
X12041238Y-8252148D01*
X12003143Y-8252148D01*
X11984095Y-8242624D01*
X12165048Y-8233101D02*
X12174571Y-8242624D01*
X12165048Y-8252148D01*
X12155524Y-8242624D01*
X12165048Y-8233101D01*
X12165048Y-8252148D01*
X12165048Y-8128339D02*
X12174571Y-8137863D01*
X12165048Y-8147386D01*
X12155524Y-8137863D01*
X12165048Y-8128339D01*
X12165048Y-8147386D01*
D12*
X10516000Y-8571672D02*
X10536000Y-8591672D01*
X10536000Y-8571672D02*
X10516000Y-8591672D01*
D11*
X10831714Y-8472148D02*
X10850762Y-8472148D01*
X10869810Y-8481672D01*
X10879333Y-8491196D01*
X10888857Y-8510244D01*
X10898381Y-8548339D01*
X10898381Y-8595958D01*
X10888857Y-8634053D01*
X10879333Y-8653101D01*
X10869810Y-8662625D01*
X10850762Y-8672148D01*
X10831714Y-8672148D01*
X10812667Y-8662625D01*
X10803143Y-8653101D01*
X10793619Y-8634053D01*
X10784095Y-8595958D01*
X10784095Y-8548339D01*
X10793619Y-8510244D01*
X10803143Y-8491196D01*
X10812667Y-8481672D01*
X10831714Y-8472148D01*
X10984095Y-8653101D02*
X10993619Y-8662625D01*
X10984095Y-8672148D01*
X10974571Y-8662625D01*
X10984095Y-8653101D01*
X10984095Y-8672148D01*
X11069810Y-8491196D02*
X11079333Y-8481672D01*
X11098381Y-8472148D01*
X11146000Y-8472148D01*
X11165048Y-8481672D01*
X11174571Y-8491196D01*
X11184095Y-8510244D01*
X11184095Y-8529291D01*
X11174571Y-8557863D01*
X11060286Y-8672148D01*
X11184095Y-8672148D01*
X11307905Y-8472148D02*
X11326952Y-8472148D01*
X11346000Y-8481672D01*
X11355524Y-8491196D01*
X11365048Y-8510244D01*
X11374571Y-8548339D01*
X11374571Y-8595958D01*
X11365048Y-8634053D01*
X11355524Y-8653101D01*
X11346000Y-8662625D01*
X11326952Y-8672148D01*
X11307905Y-8672148D01*
X11288857Y-8662625D01*
X11279333Y-8653101D01*
X11269809Y-8634053D01*
X11260286Y-8595958D01*
X11260286Y-8548339D01*
X11269809Y-8510244D01*
X11279333Y-8491196D01*
X11288857Y-8481672D01*
X11307905Y-8472148D01*
X11498381Y-8472148D02*
X11517428Y-8472148D01*
X11536476Y-8481672D01*
X11546000Y-8491196D01*
X11555524Y-8510244D01*
X11565048Y-8548339D01*
X11565048Y-8595958D01*
X11555524Y-8634053D01*
X11546000Y-8653101D01*
X11536476Y-8662625D01*
X11517428Y-8672148D01*
X11498381Y-8672148D01*
X11479333Y-8662625D01*
X11469809Y-8653101D01*
X11460286Y-8634053D01*
X11450762Y-8595958D01*
X11450762Y-8548339D01*
X11460286Y-8510244D01*
X11469809Y-8491196D01*
X11479333Y-8481672D01*
X11498381Y-8472148D01*
X11650762Y-8672148D02*
X11650762Y-8538815D01*
X11650762Y-8557863D02*
X11660286Y-8548339D01*
X11679333Y-8538815D01*
X11707905Y-8538815D01*
X11726952Y-8548339D01*
X11736476Y-8567386D01*
X11736476Y-8672148D01*
X11736476Y-8567386D02*
X11746000Y-8548339D01*
X11765048Y-8538815D01*
X11793619Y-8538815D01*
X11812667Y-8548339D01*
X11822190Y-8567386D01*
X11822190Y-8672148D01*
X11917428Y-8672148D02*
X11917428Y-8538815D01*
X11917428Y-8557863D02*
X11926952Y-8548339D01*
X11946000Y-8538815D01*
X11974571Y-8538815D01*
X11993619Y-8548339D01*
X12003143Y-8567386D01*
X12003143Y-8672148D01*
X12003143Y-8567386D02*
X12012667Y-8548339D01*
X12031714Y-8538815D01*
X12060286Y-8538815D01*
X12079333Y-8548339D01*
X12088857Y-8567386D01*
X12088857Y-8672148D01*
X12479333Y-8462625D02*
X12307905Y-8719767D01*
X12736476Y-8472148D02*
X12755524Y-8472148D01*
X12774571Y-8481672D01*
X12784095Y-8491196D01*
X12793619Y-8510244D01*
X12803143Y-8548339D01*
X12803143Y-8595958D01*
X12793619Y-8634053D01*
X12784095Y-8653101D01*
X12774571Y-8662625D01*
X12755524Y-8672148D01*
X12736476Y-8672148D01*
X12717428Y-8662625D01*
X12707905Y-8653101D01*
X12698381Y-8634053D01*
X12688857Y-8595958D01*
X12688857Y-8548339D01*
X12698381Y-8510244D01*
X12707905Y-8491196D01*
X12717428Y-8481672D01*
X12736476Y-8472148D01*
X12888857Y-8653101D02*
X12898381Y-8662625D01*
X12888857Y-8672148D01*
X12879333Y-8662625D01*
X12888857Y-8653101D01*
X12888857Y-8672148D01*
X13022190Y-8472148D02*
X13041238Y-8472148D01*
X13060286Y-8481672D01*
X13069809Y-8491196D01*
X13079333Y-8510244D01*
X13088857Y-8548339D01*
X13088857Y-8595958D01*
X13079333Y-8634053D01*
X13069809Y-8653101D01*
X13060286Y-8662625D01*
X13041238Y-8672148D01*
X13022190Y-8672148D01*
X13003143Y-8662625D01*
X12993619Y-8653101D01*
X12984095Y-8634053D01*
X12974571Y-8595958D01*
X12974571Y-8548339D01*
X12984095Y-8510244D01*
X12993619Y-8491196D01*
X13003143Y-8481672D01*
X13022190Y-8472148D01*
X13212667Y-8472148D02*
X13231714Y-8472148D01*
X13250762Y-8481672D01*
X13260286Y-8491196D01*
X13269809Y-8510244D01*
X13279333Y-8548339D01*
X13279333Y-8595958D01*
X13269809Y-8634053D01*
X13260286Y-8653101D01*
X13250762Y-8662625D01*
X13231714Y-8672148D01*
X13212667Y-8672148D01*
X13193619Y-8662625D01*
X13184095Y-8653101D01*
X13174571Y-8634053D01*
X13165048Y-8595958D01*
X13165048Y-8548339D01*
X13174571Y-8510244D01*
X13184095Y-8491196D01*
X13193619Y-8481672D01*
X13212667Y-8472148D01*
X13346000Y-8472148D02*
X13479333Y-8472148D01*
X13393619Y-8672148D01*
X13565048Y-8672148D02*
X13603143Y-8672148D01*
X13622190Y-8662625D01*
X13631714Y-8653101D01*
X13650762Y-8624529D01*
X13660286Y-8586434D01*
X13660286Y-8510244D01*
X13650762Y-8491196D01*
X13641238Y-8481672D01*
X13622190Y-8472148D01*
X13584095Y-8472148D01*
X13565048Y-8481672D01*
X13555524Y-8491196D01*
X13546000Y-8510244D01*
X13546000Y-8557863D01*
X13555524Y-8576910D01*
X13565048Y-8586434D01*
X13584095Y-8595958D01*
X13622190Y-8595958D01*
X13641238Y-8586434D01*
X13650762Y-8576910D01*
X13660286Y-8557863D01*
X13736476Y-8472148D02*
X13736476Y-8510244D01*
X13812667Y-8472148D02*
X13812667Y-8510244D01*
X14107905Y-8748339D02*
X14098381Y-8738815D01*
X14079333Y-8710244D01*
X14069809Y-8691196D01*
X14060286Y-8662625D01*
X14050762Y-8615006D01*
X14050762Y-8576910D01*
X14060286Y-8529291D01*
X14069809Y-8500720D01*
X14079333Y-8481672D01*
X14098381Y-8453101D01*
X14107905Y-8443577D01*
X14288857Y-8672148D02*
X14174571Y-8672148D01*
X14231714Y-8672148D02*
X14231714Y-8472148D01*
X14212667Y-8500720D01*
X14193619Y-8519767D01*
X14174571Y-8529291D01*
X14526952Y-8672148D02*
X14526952Y-8472148D01*
X14612667Y-8672148D02*
X14612667Y-8567386D01*
X14603143Y-8548339D01*
X14584095Y-8538815D01*
X14555524Y-8538815D01*
X14536476Y-8548339D01*
X14526952Y-8557863D01*
X14736476Y-8672148D02*
X14717428Y-8662625D01*
X14707905Y-8653101D01*
X14698381Y-8634053D01*
X14698381Y-8576910D01*
X14707905Y-8557863D01*
X14717428Y-8548339D01*
X14736476Y-8538815D01*
X14765048Y-8538815D01*
X14784095Y-8548339D01*
X14793619Y-8557863D01*
X14803143Y-8576910D01*
X14803143Y-8634053D01*
X14793619Y-8653101D01*
X14784095Y-8662625D01*
X14765048Y-8672148D01*
X14736476Y-8672148D01*
X14917428Y-8672148D02*
X14898381Y-8662625D01*
X14888857Y-8643577D01*
X14888857Y-8472148D01*
X15069809Y-8662625D02*
X15050762Y-8672148D01*
X15012667Y-8672148D01*
X14993619Y-8662625D01*
X14984095Y-8643577D01*
X14984095Y-8567386D01*
X14993619Y-8548339D01*
X15012667Y-8538815D01*
X15050762Y-8538815D01*
X15069809Y-8548339D01*
X15079333Y-8567386D01*
X15079333Y-8586434D01*
X14984095Y-8605482D01*
X15146000Y-8748339D02*
X15155524Y-8738815D01*
X15174571Y-8710244D01*
X15184095Y-8691196D01*
X15193619Y-8662625D01*
X15203143Y-8615006D01*
X15203143Y-8576910D01*
X15193619Y-8529291D01*
X15184095Y-8500720D01*
X15174571Y-8481672D01*
X15155524Y-8453101D01*
X15146000Y-8443577D01*
D13*
X10536000Y-8845672D02*
G75*
G03*
X10536000Y-8845672I-15000J0D01*
G01*
D11*
X10831714Y-8736148D02*
X10850762Y-8736148D01*
X10869810Y-8745672D01*
X10879333Y-8755196D01*
X10888857Y-8774244D01*
X10898381Y-8812339D01*
X10898381Y-8859958D01*
X10888857Y-8898053D01*
X10879333Y-8917101D01*
X10869810Y-8926625D01*
X10850762Y-8936148D01*
X10831714Y-8936148D01*
X10812667Y-8926625D01*
X10803143Y-8917101D01*
X10793619Y-8898053D01*
X10784095Y-8859958D01*
X10784095Y-8812339D01*
X10793619Y-8774244D01*
X10803143Y-8755196D01*
X10812667Y-8745672D01*
X10831714Y-8736148D01*
X10984095Y-8917101D02*
X10993619Y-8926625D01*
X10984095Y-8936148D01*
X10974571Y-8926625D01*
X10984095Y-8917101D01*
X10984095Y-8936148D01*
X11060286Y-8736148D02*
X11184095Y-8736148D01*
X11117429Y-8812339D01*
X11146000Y-8812339D01*
X11165048Y-8821863D01*
X11174571Y-8831386D01*
X11184095Y-8850434D01*
X11184095Y-8898053D01*
X11174571Y-8917101D01*
X11165048Y-8926625D01*
X11146000Y-8936148D01*
X11088857Y-8936148D01*
X11069810Y-8926625D01*
X11060286Y-8917101D01*
X11307905Y-8736148D02*
X11326952Y-8736148D01*
X11346000Y-8745672D01*
X11355524Y-8755196D01*
X11365048Y-8774244D01*
X11374571Y-8812339D01*
X11374571Y-8859958D01*
X11365048Y-8898053D01*
X11355524Y-8917101D01*
X11346000Y-8926625D01*
X11326952Y-8936148D01*
X11307905Y-8936148D01*
X11288857Y-8926625D01*
X11279333Y-8917101D01*
X11269809Y-8898053D01*
X11260286Y-8859958D01*
X11260286Y-8812339D01*
X11269809Y-8774244D01*
X11279333Y-8755196D01*
X11288857Y-8745672D01*
X11307905Y-8736148D01*
X11498381Y-8736148D02*
X11517428Y-8736148D01*
X11536476Y-8745672D01*
X11546000Y-8755196D01*
X11555524Y-8774244D01*
X11565048Y-8812339D01*
X11565048Y-8859958D01*
X11555524Y-8898053D01*
X11546000Y-8917101D01*
X11536476Y-8926625D01*
X11517428Y-8936148D01*
X11498381Y-8936148D01*
X11479333Y-8926625D01*
X11469809Y-8917101D01*
X11460286Y-8898053D01*
X11450762Y-8859958D01*
X11450762Y-8812339D01*
X11460286Y-8774244D01*
X11469809Y-8755196D01*
X11479333Y-8745672D01*
X11498381Y-8736148D01*
X11650762Y-8936148D02*
X11650762Y-8802815D01*
X11650762Y-8821863D02*
X11660286Y-8812339D01*
X11679333Y-8802815D01*
X11707905Y-8802815D01*
X11726952Y-8812339D01*
X11736476Y-8831386D01*
X11736476Y-8936148D01*
X11736476Y-8831386D02*
X11746000Y-8812339D01*
X11765048Y-8802815D01*
X11793619Y-8802815D01*
X11812667Y-8812339D01*
X11822190Y-8831386D01*
X11822190Y-8936148D01*
X11917428Y-8936148D02*
X11917428Y-8802815D01*
X11917428Y-8821863D02*
X11926952Y-8812339D01*
X11946000Y-8802815D01*
X11974571Y-8802815D01*
X11993619Y-8812339D01*
X12003143Y-8831386D01*
X12003143Y-8936148D01*
X12003143Y-8831386D02*
X12012667Y-8812339D01*
X12031714Y-8802815D01*
X12060286Y-8802815D01*
X12079333Y-8812339D01*
X12088857Y-8831386D01*
X12088857Y-8936148D01*
X12479333Y-8726625D02*
X12307905Y-8983767D01*
X12736476Y-8736148D02*
X12755524Y-8736148D01*
X12774571Y-8745672D01*
X12784095Y-8755196D01*
X12793619Y-8774244D01*
X12803143Y-8812339D01*
X12803143Y-8859958D01*
X12793619Y-8898053D01*
X12784095Y-8917101D01*
X12774571Y-8926625D01*
X12755524Y-8936148D01*
X12736476Y-8936148D01*
X12717428Y-8926625D01*
X12707905Y-8917101D01*
X12698381Y-8898053D01*
X12688857Y-8859958D01*
X12688857Y-8812339D01*
X12698381Y-8774244D01*
X12707905Y-8755196D01*
X12717428Y-8745672D01*
X12736476Y-8736148D01*
X12888857Y-8917101D02*
X12898381Y-8926625D01*
X12888857Y-8936148D01*
X12879333Y-8926625D01*
X12888857Y-8917101D01*
X12888857Y-8936148D01*
X13022190Y-8736148D02*
X13041238Y-8736148D01*
X13060286Y-8745672D01*
X13069809Y-8755196D01*
X13079333Y-8774244D01*
X13088857Y-8812339D01*
X13088857Y-8859958D01*
X13079333Y-8898053D01*
X13069809Y-8917101D01*
X13060286Y-8926625D01*
X13041238Y-8936148D01*
X13022190Y-8936148D01*
X13003143Y-8926625D01*
X12993619Y-8917101D01*
X12984095Y-8898053D01*
X12974571Y-8859958D01*
X12974571Y-8812339D01*
X12984095Y-8774244D01*
X12993619Y-8755196D01*
X13003143Y-8745672D01*
X13022190Y-8736148D01*
X13279333Y-8936148D02*
X13165048Y-8936148D01*
X13222190Y-8936148D02*
X13222190Y-8736148D01*
X13203143Y-8764720D01*
X13184095Y-8783767D01*
X13165048Y-8793291D01*
X13469809Y-8936148D02*
X13355524Y-8936148D01*
X13412667Y-8936148D02*
X13412667Y-8736148D01*
X13393619Y-8764720D01*
X13374571Y-8783767D01*
X13355524Y-8793291D01*
X13584095Y-8821863D02*
X13565048Y-8812339D01*
X13555524Y-8802815D01*
X13546000Y-8783767D01*
X13546000Y-8774244D01*
X13555524Y-8755196D01*
X13565048Y-8745672D01*
X13584095Y-8736148D01*
X13622190Y-8736148D01*
X13641238Y-8745672D01*
X13650762Y-8755196D01*
X13660286Y-8774244D01*
X13660286Y-8783767D01*
X13650762Y-8802815D01*
X13641238Y-8812339D01*
X13622190Y-8821863D01*
X13584095Y-8821863D01*
X13565048Y-8831386D01*
X13555524Y-8840910D01*
X13546000Y-8859958D01*
X13546000Y-8898053D01*
X13555524Y-8917101D01*
X13565048Y-8926625D01*
X13584095Y-8936148D01*
X13622190Y-8936148D01*
X13641238Y-8926625D01*
X13650762Y-8917101D01*
X13660286Y-8898053D01*
X13660286Y-8859958D01*
X13650762Y-8840910D01*
X13641238Y-8831386D01*
X13622190Y-8821863D01*
X13736476Y-8736148D02*
X13736476Y-8774244D01*
X13812667Y-8736148D02*
X13812667Y-8774244D01*
X14107905Y-9012339D02*
X14098381Y-9002815D01*
X14079333Y-8974244D01*
X14069809Y-8955196D01*
X14060286Y-8926625D01*
X14050762Y-8879006D01*
X14050762Y-8840910D01*
X14060286Y-8793291D01*
X14069809Y-8764720D01*
X14079333Y-8745672D01*
X14098381Y-8717101D01*
X14107905Y-8707577D01*
X14269809Y-8802815D02*
X14269809Y-8936148D01*
X14222190Y-8726625D02*
X14174571Y-8869482D01*
X14298381Y-8869482D01*
X14526952Y-8936148D02*
X14526952Y-8736148D01*
X14612667Y-8936148D02*
X14612667Y-8831386D01*
X14603143Y-8812339D01*
X14584095Y-8802815D01*
X14555524Y-8802815D01*
X14536476Y-8812339D01*
X14526952Y-8821863D01*
X14736476Y-8936148D02*
X14717428Y-8926625D01*
X14707905Y-8917101D01*
X14698381Y-8898053D01*
X14698381Y-8840910D01*
X14707905Y-8821863D01*
X14717428Y-8812339D01*
X14736476Y-8802815D01*
X14765048Y-8802815D01*
X14784095Y-8812339D01*
X14793619Y-8821863D01*
X14803143Y-8840910D01*
X14803143Y-8898053D01*
X14793619Y-8917101D01*
X14784095Y-8926625D01*
X14765048Y-8936148D01*
X14736476Y-8936148D01*
X14917428Y-8936148D02*
X14898381Y-8926625D01*
X14888857Y-8907577D01*
X14888857Y-8736148D01*
X15069809Y-8926625D02*
X15050762Y-8936148D01*
X15012667Y-8936148D01*
X14993619Y-8926625D01*
X14984095Y-8907577D01*
X14984095Y-8831386D01*
X14993619Y-8812339D01*
X15012667Y-8802815D01*
X15050762Y-8802815D01*
X15069809Y-8812339D01*
X15079333Y-8831386D01*
X15079333Y-8850434D01*
X14984095Y-8869482D01*
X15155524Y-8926625D02*
X15174571Y-8936148D01*
X15212667Y-8936148D01*
X15231714Y-8926625D01*
X15241238Y-8907577D01*
X15241238Y-8898053D01*
X15231714Y-8879006D01*
X15212667Y-8869482D01*
X15184095Y-8869482D01*
X15165048Y-8859958D01*
X15155524Y-8840910D01*
X15155524Y-8831386D01*
X15165048Y-8812339D01*
X15184095Y-8802815D01*
X15212667Y-8802815D01*
X15231714Y-8812339D01*
X15307905Y-9012339D02*
X15317428Y-9002815D01*
X15336476Y-8974244D01*
X15346000Y-8955196D01*
X15355524Y-8926625D01*
X15365048Y-8879006D01*
X15365048Y-8840910D01*
X15355524Y-8793291D01*
X15346000Y-8764720D01*
X15336476Y-8745672D01*
X15317428Y-8717101D01*
X15307905Y-8707577D01*
D14*
X10516000Y-9089672D02*
X10516000Y-9129672D01*
X10496000Y-9109672D02*
X10536000Y-9109672D01*
D11*
X10831714Y-9000148D02*
X10850762Y-9000148D01*
X10869810Y-9009672D01*
X10879333Y-9019196D01*
X10888857Y-9038244D01*
X10898381Y-9076339D01*
X10898381Y-9123958D01*
X10888857Y-9162053D01*
X10879333Y-9181101D01*
X10869810Y-9190625D01*
X10850762Y-9200148D01*
X10831714Y-9200148D01*
X10812667Y-9190625D01*
X10803143Y-9181101D01*
X10793619Y-9162053D01*
X10784095Y-9123958D01*
X10784095Y-9076339D01*
X10793619Y-9038244D01*
X10803143Y-9019196D01*
X10812667Y-9009672D01*
X10831714Y-9000148D01*
X10984095Y-9181101D02*
X10993619Y-9190625D01*
X10984095Y-9200148D01*
X10974571Y-9190625D01*
X10984095Y-9181101D01*
X10984095Y-9200148D01*
X11165048Y-9066815D02*
X11165048Y-9200148D01*
X11117429Y-8990625D02*
X11069810Y-9133482D01*
X11193619Y-9133482D01*
X11307905Y-9000148D02*
X11326952Y-9000148D01*
X11346000Y-9009672D01*
X11355524Y-9019196D01*
X11365048Y-9038244D01*
X11374571Y-9076339D01*
X11374571Y-9123958D01*
X11365048Y-9162053D01*
X11355524Y-9181101D01*
X11346000Y-9190625D01*
X11326952Y-9200148D01*
X11307905Y-9200148D01*
X11288857Y-9190625D01*
X11279333Y-9181101D01*
X11269809Y-9162053D01*
X11260286Y-9123958D01*
X11260286Y-9076339D01*
X11269809Y-9038244D01*
X11279333Y-9019196D01*
X11288857Y-9009672D01*
X11307905Y-9000148D01*
X11498381Y-9000148D02*
X11517428Y-9000148D01*
X11536476Y-9009672D01*
X11546000Y-9019196D01*
X11555524Y-9038244D01*
X11565048Y-9076339D01*
X11565048Y-9123958D01*
X11555524Y-9162053D01*
X11546000Y-9181101D01*
X11536476Y-9190625D01*
X11517428Y-9200148D01*
X11498381Y-9200148D01*
X11479333Y-9190625D01*
X11469809Y-9181101D01*
X11460286Y-9162053D01*
X11450762Y-9123958D01*
X11450762Y-9076339D01*
X11460286Y-9038244D01*
X11469809Y-9019196D01*
X11479333Y-9009672D01*
X11498381Y-9000148D01*
X11650762Y-9200148D02*
X11650762Y-9066815D01*
X11650762Y-9085863D02*
X11660286Y-9076339D01*
X11679333Y-9066815D01*
X11707905Y-9066815D01*
X11726952Y-9076339D01*
X11736476Y-9095386D01*
X11736476Y-9200148D01*
X11736476Y-9095386D02*
X11746000Y-9076339D01*
X11765048Y-9066815D01*
X11793619Y-9066815D01*
X11812667Y-9076339D01*
X11822190Y-9095386D01*
X11822190Y-9200148D01*
X11917428Y-9200148D02*
X11917428Y-9066815D01*
X11917428Y-9085863D02*
X11926952Y-9076339D01*
X11946000Y-9066815D01*
X11974571Y-9066815D01*
X11993619Y-9076339D01*
X12003143Y-9095386D01*
X12003143Y-9200148D01*
X12003143Y-9095386D02*
X12012667Y-9076339D01*
X12031714Y-9066815D01*
X12060286Y-9066815D01*
X12079333Y-9076339D01*
X12088857Y-9095386D01*
X12088857Y-9200148D01*
X12479333Y-8990625D02*
X12307905Y-9247767D01*
X12736476Y-9000148D02*
X12755524Y-9000148D01*
X12774571Y-9009672D01*
X12784095Y-9019196D01*
X12793619Y-9038244D01*
X12803143Y-9076339D01*
X12803143Y-9123958D01*
X12793619Y-9162053D01*
X12784095Y-9181101D01*
X12774571Y-9190625D01*
X12755524Y-9200148D01*
X12736476Y-9200148D01*
X12717428Y-9190625D01*
X12707905Y-9181101D01*
X12698381Y-9162053D01*
X12688857Y-9123958D01*
X12688857Y-9076339D01*
X12698381Y-9038244D01*
X12707905Y-9019196D01*
X12717428Y-9009672D01*
X12736476Y-9000148D01*
X12888857Y-9181101D02*
X12898381Y-9190625D01*
X12888857Y-9200148D01*
X12879333Y-9190625D01*
X12888857Y-9181101D01*
X12888857Y-9200148D01*
X13022190Y-9000148D02*
X13041238Y-9000148D01*
X13060286Y-9009672D01*
X13069809Y-9019196D01*
X13079333Y-9038244D01*
X13088857Y-9076339D01*
X13088857Y-9123958D01*
X13079333Y-9162053D01*
X13069809Y-9181101D01*
X13060286Y-9190625D01*
X13041238Y-9200148D01*
X13022190Y-9200148D01*
X13003143Y-9190625D01*
X12993619Y-9181101D01*
X12984095Y-9162053D01*
X12974571Y-9123958D01*
X12974571Y-9076339D01*
X12984095Y-9038244D01*
X12993619Y-9019196D01*
X13003143Y-9009672D01*
X13022190Y-9000148D01*
X13279333Y-9200148D02*
X13165048Y-9200148D01*
X13222190Y-9200148D02*
X13222190Y-9000148D01*
X13203143Y-9028720D01*
X13184095Y-9047767D01*
X13165048Y-9057291D01*
X13460286Y-9000148D02*
X13365048Y-9000148D01*
X13355524Y-9095386D01*
X13365048Y-9085863D01*
X13384095Y-9076339D01*
X13431714Y-9076339D01*
X13450762Y-9085863D01*
X13460286Y-9095386D01*
X13469809Y-9114434D01*
X13469809Y-9162053D01*
X13460286Y-9181101D01*
X13450762Y-9190625D01*
X13431714Y-9200148D01*
X13384095Y-9200148D01*
X13365048Y-9190625D01*
X13355524Y-9181101D01*
X13536476Y-9000148D02*
X13669809Y-9000148D01*
X13584095Y-9200148D01*
X13736476Y-9000148D02*
X13736476Y-9038244D01*
X13812667Y-9000148D02*
X13812667Y-9038244D01*
X14107905Y-9276339D02*
X14098381Y-9266815D01*
X14079333Y-9238244D01*
X14069809Y-9219196D01*
X14060286Y-9190625D01*
X14050762Y-9143006D01*
X14050762Y-9104910D01*
X14060286Y-9057291D01*
X14069809Y-9028720D01*
X14079333Y-9009672D01*
X14098381Y-8981101D01*
X14107905Y-8971577D01*
X14165048Y-9000148D02*
X14288857Y-9000148D01*
X14222190Y-9076339D01*
X14250762Y-9076339D01*
X14269809Y-9085863D01*
X14279333Y-9095386D01*
X14288857Y-9114434D01*
X14288857Y-9162053D01*
X14279333Y-9181101D01*
X14269809Y-9190625D01*
X14250762Y-9200148D01*
X14193619Y-9200148D01*
X14174571Y-9190625D01*
X14165048Y-9181101D01*
X14479333Y-9200148D02*
X14365048Y-9200148D01*
X14422190Y-9200148D02*
X14422190Y-9000148D01*
X14403143Y-9028720D01*
X14384095Y-9047767D01*
X14365048Y-9057291D01*
X14717428Y-9200148D02*
X14717428Y-9000148D01*
X14803143Y-9200148D02*
X14803143Y-9095386D01*
X14793619Y-9076339D01*
X14774571Y-9066815D01*
X14746000Y-9066815D01*
X14726952Y-9076339D01*
X14717428Y-9085863D01*
X14926952Y-9200148D02*
X14907905Y-9190625D01*
X14898381Y-9181101D01*
X14888857Y-9162053D01*
X14888857Y-9104910D01*
X14898381Y-9085863D01*
X14907905Y-9076339D01*
X14926952Y-9066815D01*
X14955524Y-9066815D01*
X14974571Y-9076339D01*
X14984095Y-9085863D01*
X14993619Y-9104910D01*
X14993619Y-9162053D01*
X14984095Y-9181101D01*
X14974571Y-9190625D01*
X14955524Y-9200148D01*
X14926952Y-9200148D01*
X15107905Y-9200148D02*
X15088857Y-9190625D01*
X15079333Y-9171577D01*
X15079333Y-9000148D01*
X15260286Y-9190625D02*
X15241238Y-9200148D01*
X15203143Y-9200148D01*
X15184095Y-9190625D01*
X15174571Y-9171577D01*
X15174571Y-9095386D01*
X15184095Y-9076339D01*
X15203143Y-9066815D01*
X15241238Y-9066815D01*
X15260286Y-9076339D01*
X15269809Y-9095386D01*
X15269809Y-9114434D01*
X15174571Y-9133482D01*
X15346000Y-9190625D02*
X15365048Y-9200148D01*
X15403143Y-9200148D01*
X15422190Y-9190625D01*
X15431714Y-9171577D01*
X15431714Y-9162053D01*
X15422190Y-9143006D01*
X15403143Y-9133482D01*
X15374571Y-9133482D01*
X15355524Y-9123958D01*
X15346000Y-9104910D01*
X15346000Y-9095386D01*
X15355524Y-9076339D01*
X15374571Y-9066815D01*
X15403143Y-9066815D01*
X15422190Y-9076339D01*
X15498381Y-9276339D02*
X15507905Y-9266815D01*
X15526952Y-9238244D01*
X15536476Y-9219196D01*
X15546000Y-9190625D01*
X15555524Y-9143006D01*
X15555524Y-9104910D01*
X15546000Y-9057291D01*
X15536476Y-9028720D01*
X15526952Y-9009672D01*
X15507905Y-8981101D01*
X15498381Y-8971577D01*
D15*
X10527213Y-9394886D02*
X10527213Y-9352459D01*
X10484787Y-9352459D01*
X10484787Y-9394886D01*
X10527213Y-9394886D01*
D11*
X10831714Y-9264148D02*
X10850762Y-9264148D01*
X10869810Y-9273672D01*
X10879333Y-9283196D01*
X10888857Y-9302244D01*
X10898381Y-9340339D01*
X10898381Y-9387958D01*
X10888857Y-9426053D01*
X10879333Y-9445101D01*
X10869810Y-9454625D01*
X10850762Y-9464148D01*
X10831714Y-9464148D01*
X10812667Y-9454625D01*
X10803143Y-9445101D01*
X10793619Y-9426053D01*
X10784095Y-9387958D01*
X10784095Y-9340339D01*
X10793619Y-9302244D01*
X10803143Y-9283196D01*
X10812667Y-9273672D01*
X10831714Y-9264148D01*
X10984095Y-9445101D02*
X10993619Y-9454625D01*
X10984095Y-9464148D01*
X10974571Y-9454625D01*
X10984095Y-9445101D01*
X10984095Y-9464148D01*
X11165048Y-9264148D02*
X11126952Y-9264148D01*
X11107905Y-9273672D01*
X11098381Y-9283196D01*
X11079333Y-9311767D01*
X11069810Y-9349863D01*
X11069810Y-9426053D01*
X11079333Y-9445101D01*
X11088857Y-9454625D01*
X11107905Y-9464148D01*
X11146000Y-9464148D01*
X11165048Y-9454625D01*
X11174571Y-9445101D01*
X11184095Y-9426053D01*
X11184095Y-9378434D01*
X11174571Y-9359386D01*
X11165048Y-9349863D01*
X11146000Y-9340339D01*
X11107905Y-9340339D01*
X11088857Y-9349863D01*
X11079333Y-9359386D01*
X11069810Y-9378434D01*
X11307905Y-9264148D02*
X11326952Y-9264148D01*
X11346000Y-9273672D01*
X11355524Y-9283196D01*
X11365048Y-9302244D01*
X11374571Y-9340339D01*
X11374571Y-9387958D01*
X11365048Y-9426053D01*
X11355524Y-9445101D01*
X11346000Y-9454625D01*
X11326952Y-9464148D01*
X11307905Y-9464148D01*
X11288857Y-9454625D01*
X11279333Y-9445101D01*
X11269809Y-9426053D01*
X11260286Y-9387958D01*
X11260286Y-9340339D01*
X11269809Y-9302244D01*
X11279333Y-9283196D01*
X11288857Y-9273672D01*
X11307905Y-9264148D01*
X11498381Y-9264148D02*
X11517428Y-9264148D01*
X11536476Y-9273672D01*
X11546000Y-9283196D01*
X11555524Y-9302244D01*
X11565048Y-9340339D01*
X11565048Y-9387958D01*
X11555524Y-9426053D01*
X11546000Y-9445101D01*
X11536476Y-9454625D01*
X11517428Y-9464148D01*
X11498381Y-9464148D01*
X11479333Y-9454625D01*
X11469809Y-9445101D01*
X11460286Y-9426053D01*
X11450762Y-9387958D01*
X11450762Y-9340339D01*
X11460286Y-9302244D01*
X11469809Y-9283196D01*
X11479333Y-9273672D01*
X11498381Y-9264148D01*
X11650762Y-9464148D02*
X11650762Y-9330815D01*
X11650762Y-9349863D02*
X11660286Y-9340339D01*
X11679333Y-9330815D01*
X11707905Y-9330815D01*
X11726952Y-9340339D01*
X11736476Y-9359386D01*
X11736476Y-9464148D01*
X11736476Y-9359386D02*
X11746000Y-9340339D01*
X11765048Y-9330815D01*
X11793619Y-9330815D01*
X11812667Y-9340339D01*
X11822190Y-9359386D01*
X11822190Y-9464148D01*
X11917428Y-9464148D02*
X11917428Y-9330815D01*
X11917428Y-9349863D02*
X11926952Y-9340339D01*
X11946000Y-9330815D01*
X11974571Y-9330815D01*
X11993619Y-9340339D01*
X12003143Y-9359386D01*
X12003143Y-9464148D01*
X12003143Y-9359386D02*
X12012667Y-9340339D01*
X12031714Y-9330815D01*
X12060286Y-9330815D01*
X12079333Y-9340339D01*
X12088857Y-9359386D01*
X12088857Y-9464148D01*
X12479333Y-9254625D02*
X12307905Y-9511767D01*
X12736476Y-9264148D02*
X12755524Y-9264148D01*
X12774571Y-9273672D01*
X12784095Y-9283196D01*
X12793619Y-9302244D01*
X12803143Y-9340339D01*
X12803143Y-9387958D01*
X12793619Y-9426053D01*
X12784095Y-9445101D01*
X12774571Y-9454625D01*
X12755524Y-9464148D01*
X12736476Y-9464148D01*
X12717428Y-9454625D01*
X12707905Y-9445101D01*
X12698381Y-9426053D01*
X12688857Y-9387958D01*
X12688857Y-9340339D01*
X12698381Y-9302244D01*
X12707905Y-9283196D01*
X12717428Y-9273672D01*
X12736476Y-9264148D01*
X12888857Y-9445101D02*
X12898381Y-9454625D01*
X12888857Y-9464148D01*
X12879333Y-9454625D01*
X12888857Y-9445101D01*
X12888857Y-9464148D01*
X13022190Y-9264148D02*
X13041238Y-9264148D01*
X13060286Y-9273672D01*
X13069809Y-9283196D01*
X13079333Y-9302244D01*
X13088857Y-9340339D01*
X13088857Y-9387958D01*
X13079333Y-9426053D01*
X13069809Y-9445101D01*
X13060286Y-9454625D01*
X13041238Y-9464148D01*
X13022190Y-9464148D01*
X13003143Y-9454625D01*
X12993619Y-9445101D01*
X12984095Y-9426053D01*
X12974571Y-9387958D01*
X12974571Y-9340339D01*
X12984095Y-9302244D01*
X12993619Y-9283196D01*
X13003143Y-9273672D01*
X13022190Y-9264148D01*
X13165048Y-9283196D02*
X13174571Y-9273672D01*
X13193619Y-9264148D01*
X13241238Y-9264148D01*
X13260286Y-9273672D01*
X13269809Y-9283196D01*
X13279333Y-9302244D01*
X13279333Y-9321291D01*
X13269809Y-9349863D01*
X13155524Y-9464148D01*
X13279333Y-9464148D01*
X13346000Y-9264148D02*
X13469809Y-9264148D01*
X13403143Y-9340339D01*
X13431714Y-9340339D01*
X13450762Y-9349863D01*
X13460286Y-9359386D01*
X13469809Y-9378434D01*
X13469809Y-9426053D01*
X13460286Y-9445101D01*
X13450762Y-9454625D01*
X13431714Y-9464148D01*
X13374571Y-9464148D01*
X13355524Y-9454625D01*
X13346000Y-9445101D01*
X13641238Y-9264148D02*
X13603143Y-9264148D01*
X13584095Y-9273672D01*
X13574571Y-9283196D01*
X13555524Y-9311767D01*
X13546000Y-9349863D01*
X13546000Y-9426053D01*
X13555524Y-9445101D01*
X13565048Y-9454625D01*
X13584095Y-9464148D01*
X13622190Y-9464148D01*
X13641238Y-9454625D01*
X13650762Y-9445101D01*
X13660286Y-9426053D01*
X13660286Y-9378434D01*
X13650762Y-9359386D01*
X13641238Y-9349863D01*
X13622190Y-9340339D01*
X13584095Y-9340339D01*
X13565048Y-9349863D01*
X13555524Y-9359386D01*
X13546000Y-9378434D01*
X13736476Y-9264148D02*
X13736476Y-9302244D01*
X13812667Y-9264148D02*
X13812667Y-9302244D01*
X14107905Y-9540339D02*
X14098381Y-9530815D01*
X14079333Y-9502244D01*
X14069809Y-9483196D01*
X14060286Y-9454625D01*
X14050762Y-9407006D01*
X14050762Y-9368910D01*
X14060286Y-9321291D01*
X14069809Y-9292720D01*
X14079333Y-9273672D01*
X14098381Y-9245101D01*
X14107905Y-9235577D01*
X14222190Y-9264148D02*
X14241238Y-9264148D01*
X14260286Y-9273672D01*
X14269809Y-9283196D01*
X14279333Y-9302244D01*
X14288857Y-9340339D01*
X14288857Y-9387958D01*
X14279333Y-9426053D01*
X14269809Y-9445101D01*
X14260286Y-9454625D01*
X14241238Y-9464148D01*
X14222190Y-9464148D01*
X14203143Y-9454625D01*
X14193619Y-9445101D01*
X14184095Y-9426053D01*
X14174571Y-9387958D01*
X14174571Y-9340339D01*
X14184095Y-9302244D01*
X14193619Y-9283196D01*
X14203143Y-9273672D01*
X14222190Y-9264148D01*
X14526952Y-9464148D02*
X14526952Y-9264148D01*
X14612667Y-9464148D02*
X14612667Y-9359386D01*
X14603143Y-9340339D01*
X14584095Y-9330815D01*
X14555524Y-9330815D01*
X14536476Y-9340339D01*
X14526952Y-9349863D01*
X14736476Y-9464148D02*
X14717428Y-9454625D01*
X14707905Y-9445101D01*
X14698381Y-9426053D01*
X14698381Y-9368910D01*
X14707905Y-9349863D01*
X14717428Y-9340339D01*
X14736476Y-9330815D01*
X14765048Y-9330815D01*
X14784095Y-9340339D01*
X14793619Y-9349863D01*
X14803143Y-9368910D01*
X14803143Y-9426053D01*
X14793619Y-9445101D01*
X14784095Y-9454625D01*
X14765048Y-9464148D01*
X14736476Y-9464148D01*
X14917428Y-9464148D02*
X14898381Y-9454625D01*
X14888857Y-9435577D01*
X14888857Y-9264148D01*
X15069809Y-9454625D02*
X15050762Y-9464148D01*
X15012667Y-9464148D01*
X14993619Y-9454625D01*
X14984095Y-9435577D01*
X14984095Y-9359386D01*
X14993619Y-9340339D01*
X15012667Y-9330815D01*
X15050762Y-9330815D01*
X15069809Y-9340339D01*
X15079333Y-9359386D01*
X15079333Y-9378434D01*
X14984095Y-9397482D01*
X15155524Y-9454625D02*
X15174571Y-9464148D01*
X15212667Y-9464148D01*
X15231714Y-9454625D01*
X15241238Y-9435577D01*
X15241238Y-9426053D01*
X15231714Y-9407006D01*
X15212667Y-9397482D01*
X15184095Y-9397482D01*
X15165048Y-9387958D01*
X15155524Y-9368910D01*
X15155524Y-9359386D01*
X15165048Y-9340339D01*
X15184095Y-9330815D01*
X15212667Y-9330815D01*
X15231714Y-9340339D01*
X15479333Y-9387958D02*
X15631714Y-9387958D01*
X15555524Y-9464148D02*
X15555524Y-9311767D01*
X15869809Y-9283196D02*
X15879333Y-9273672D01*
X15898381Y-9264148D01*
X15946000Y-9264148D01*
X15965048Y-9273672D01*
X15974571Y-9283196D01*
X15984095Y-9302244D01*
X15984095Y-9321291D01*
X15974571Y-9349863D01*
X15860286Y-9464148D01*
X15984095Y-9464148D01*
X16212667Y-9454625D02*
X16231714Y-9464148D01*
X16269809Y-9464148D01*
X16288857Y-9454625D01*
X16298381Y-9435577D01*
X16298381Y-9426053D01*
X16288857Y-9407006D01*
X16269809Y-9397482D01*
X16241238Y-9397482D01*
X16222190Y-9387958D01*
X16212667Y-9368910D01*
X16212667Y-9359386D01*
X16222190Y-9340339D01*
X16241238Y-9330815D01*
X16269809Y-9330815D01*
X16288857Y-9340339D01*
X16412667Y-9464148D02*
X16393619Y-9454625D01*
X16384095Y-9435577D01*
X16384095Y-9264148D01*
X16517428Y-9464148D02*
X16498381Y-9454625D01*
X16488857Y-9445101D01*
X16479333Y-9426053D01*
X16479333Y-9368910D01*
X16488857Y-9349863D01*
X16498381Y-9340339D01*
X16517428Y-9330815D01*
X16546000Y-9330815D01*
X16565048Y-9340339D01*
X16574571Y-9349863D01*
X16584095Y-9368910D01*
X16584095Y-9426053D01*
X16574571Y-9445101D01*
X16565048Y-9454625D01*
X16546000Y-9464148D01*
X16517428Y-9464148D01*
X16641238Y-9330815D02*
X16717428Y-9330815D01*
X16669809Y-9264148D02*
X16669809Y-9435577D01*
X16679333Y-9454625D01*
X16698381Y-9464148D01*
X16717428Y-9464148D01*
X16774571Y-9454625D02*
X16793619Y-9464148D01*
X16831714Y-9464148D01*
X16850762Y-9454625D01*
X16860286Y-9435577D01*
X16860286Y-9426053D01*
X16850762Y-9407006D01*
X16831714Y-9397482D01*
X16803143Y-9397482D01*
X16784095Y-9387958D01*
X16774571Y-9368910D01*
X16774571Y-9359386D01*
X16784095Y-9340339D01*
X16803143Y-9330815D01*
X16831714Y-9330815D01*
X16850762Y-9340339D01*
X16926952Y-9540339D02*
X16936476Y-9530815D01*
X16955524Y-9502244D01*
X16965048Y-9483196D01*
X16974571Y-9454625D01*
X16984095Y-9407006D01*
X16984095Y-9368910D01*
X16974571Y-9321291D01*
X16965048Y-9292720D01*
X16955524Y-9273672D01*
X16936476Y-9245101D01*
X16926952Y-9235577D01*
D16*
X10493500Y-9680172D02*
X10536000Y-9637672D01*
X10493500Y-9595172D01*
X10451000Y-9637672D01*
X10493500Y-9680172D01*
D11*
X10831714Y-9528148D02*
X10850762Y-9528148D01*
X10869810Y-9537672D01*
X10879333Y-9547196D01*
X10888857Y-9566244D01*
X10898381Y-9604339D01*
X10898381Y-9651958D01*
X10888857Y-9690053D01*
X10879333Y-9709101D01*
X10869810Y-9718625D01*
X10850762Y-9728148D01*
X10831714Y-9728148D01*
X10812667Y-9718625D01*
X10803143Y-9709101D01*
X10793619Y-9690053D01*
X10784095Y-9651958D01*
X10784095Y-9604339D01*
X10793619Y-9566244D01*
X10803143Y-9547196D01*
X10812667Y-9537672D01*
X10831714Y-9528148D01*
X10984095Y-9709101D02*
X10993619Y-9718625D01*
X10984095Y-9728148D01*
X10974571Y-9718625D01*
X10984095Y-9709101D01*
X10984095Y-9728148D01*
X11107905Y-9613863D02*
X11088857Y-9604339D01*
X11079333Y-9594815D01*
X11069810Y-9575767D01*
X11069810Y-9566244D01*
X11079333Y-9547196D01*
X11088857Y-9537672D01*
X11107905Y-9528148D01*
X11146000Y-9528148D01*
X11165048Y-9537672D01*
X11174571Y-9547196D01*
X11184095Y-9566244D01*
X11184095Y-9575767D01*
X11174571Y-9594815D01*
X11165048Y-9604339D01*
X11146000Y-9613863D01*
X11107905Y-9613863D01*
X11088857Y-9623386D01*
X11079333Y-9632910D01*
X11069810Y-9651958D01*
X11069810Y-9690053D01*
X11079333Y-9709101D01*
X11088857Y-9718625D01*
X11107905Y-9728148D01*
X11146000Y-9728148D01*
X11165048Y-9718625D01*
X11174571Y-9709101D01*
X11184095Y-9690053D01*
X11184095Y-9651958D01*
X11174571Y-9632910D01*
X11165048Y-9623386D01*
X11146000Y-9613863D01*
X11365048Y-9528148D02*
X11269809Y-9528148D01*
X11260286Y-9623386D01*
X11269809Y-9613863D01*
X11288857Y-9604339D01*
X11336476Y-9604339D01*
X11355524Y-9613863D01*
X11365048Y-9623386D01*
X11374571Y-9642434D01*
X11374571Y-9690053D01*
X11365048Y-9709101D01*
X11355524Y-9718625D01*
X11336476Y-9728148D01*
X11288857Y-9728148D01*
X11269809Y-9718625D01*
X11260286Y-9709101D01*
X11498381Y-9528148D02*
X11517428Y-9528148D01*
X11536476Y-9537672D01*
X11546000Y-9547196D01*
X11555524Y-9566244D01*
X11565048Y-9604339D01*
X11565048Y-9651958D01*
X11555524Y-9690053D01*
X11546000Y-9709101D01*
X11536476Y-9718625D01*
X11517428Y-9728148D01*
X11498381Y-9728148D01*
X11479333Y-9718625D01*
X11469809Y-9709101D01*
X11460286Y-9690053D01*
X11450762Y-9651958D01*
X11450762Y-9604339D01*
X11460286Y-9566244D01*
X11469809Y-9547196D01*
X11479333Y-9537672D01*
X11498381Y-9528148D01*
X11650762Y-9728148D02*
X11650762Y-9594815D01*
X11650762Y-9613863D02*
X11660286Y-9604339D01*
X11679333Y-9594815D01*
X11707905Y-9594815D01*
X11726952Y-9604339D01*
X11736476Y-9623386D01*
X11736476Y-9728148D01*
X11736476Y-9623386D02*
X11746000Y-9604339D01*
X11765048Y-9594815D01*
X11793619Y-9594815D01*
X11812667Y-9604339D01*
X11822190Y-9623386D01*
X11822190Y-9728148D01*
X11917428Y-9728148D02*
X11917428Y-9594815D01*
X11917428Y-9613863D02*
X11926952Y-9604339D01*
X11946000Y-9594815D01*
X11974571Y-9594815D01*
X11993619Y-9604339D01*
X12003143Y-9623386D01*
X12003143Y-9728148D01*
X12003143Y-9623386D02*
X12012667Y-9604339D01*
X12031714Y-9594815D01*
X12060286Y-9594815D01*
X12079333Y-9604339D01*
X12088857Y-9623386D01*
X12088857Y-9728148D01*
X12479333Y-9518625D02*
X12307905Y-9775767D01*
X12736476Y-9528148D02*
X12755524Y-9528148D01*
X12774571Y-9537672D01*
X12784095Y-9547196D01*
X12793619Y-9566244D01*
X12803143Y-9604339D01*
X12803143Y-9651958D01*
X12793619Y-9690053D01*
X12784095Y-9709101D01*
X12774571Y-9718625D01*
X12755524Y-9728148D01*
X12736476Y-9728148D01*
X12717428Y-9718625D01*
X12707905Y-9709101D01*
X12698381Y-9690053D01*
X12688857Y-9651958D01*
X12688857Y-9604339D01*
X12698381Y-9566244D01*
X12707905Y-9547196D01*
X12717428Y-9537672D01*
X12736476Y-9528148D01*
X12888857Y-9709101D02*
X12898381Y-9718625D01*
X12888857Y-9728148D01*
X12879333Y-9718625D01*
X12888857Y-9709101D01*
X12888857Y-9728148D01*
X13022190Y-9528148D02*
X13041238Y-9528148D01*
X13060286Y-9537672D01*
X13069809Y-9547196D01*
X13079333Y-9566244D01*
X13088857Y-9604339D01*
X13088857Y-9651958D01*
X13079333Y-9690053D01*
X13069809Y-9709101D01*
X13060286Y-9718625D01*
X13041238Y-9728148D01*
X13022190Y-9728148D01*
X13003143Y-9718625D01*
X12993619Y-9709101D01*
X12984095Y-9690053D01*
X12974571Y-9651958D01*
X12974571Y-9604339D01*
X12984095Y-9566244D01*
X12993619Y-9547196D01*
X13003143Y-9537672D01*
X13022190Y-9528148D01*
X13155524Y-9528148D02*
X13279333Y-9528148D01*
X13212667Y-9604339D01*
X13241238Y-9604339D01*
X13260286Y-9613863D01*
X13269809Y-9623386D01*
X13279333Y-9642434D01*
X13279333Y-9690053D01*
X13269809Y-9709101D01*
X13260286Y-9718625D01*
X13241238Y-9728148D01*
X13184095Y-9728148D01*
X13165048Y-9718625D01*
X13155524Y-9709101D01*
X13346000Y-9528148D02*
X13469809Y-9528148D01*
X13403143Y-9604339D01*
X13431714Y-9604339D01*
X13450762Y-9613863D01*
X13460286Y-9623386D01*
X13469809Y-9642434D01*
X13469809Y-9690053D01*
X13460286Y-9709101D01*
X13450762Y-9718625D01*
X13431714Y-9728148D01*
X13374571Y-9728148D01*
X13355524Y-9718625D01*
X13346000Y-9709101D01*
X13650762Y-9528148D02*
X13555524Y-9528148D01*
X13546000Y-9623386D01*
X13555524Y-9613863D01*
X13574571Y-9604339D01*
X13622190Y-9604339D01*
X13641238Y-9613863D01*
X13650762Y-9623386D01*
X13660286Y-9642434D01*
X13660286Y-9690053D01*
X13650762Y-9709101D01*
X13641238Y-9718625D01*
X13622190Y-9728148D01*
X13574571Y-9728148D01*
X13555524Y-9718625D01*
X13546000Y-9709101D01*
X13736476Y-9528148D02*
X13736476Y-9566244D01*
X13812667Y-9528148D02*
X13812667Y-9566244D01*
X14107905Y-9804339D02*
X14098381Y-9794815D01*
X14079333Y-9766244D01*
X14069809Y-9747196D01*
X14060286Y-9718625D01*
X14050762Y-9671006D01*
X14050762Y-9632910D01*
X14060286Y-9585291D01*
X14069809Y-9556720D01*
X14079333Y-9537672D01*
X14098381Y-9509101D01*
X14107905Y-9499577D01*
X14174571Y-9547196D02*
X14184095Y-9537672D01*
X14203143Y-9528148D01*
X14250762Y-9528148D01*
X14269809Y-9537672D01*
X14279333Y-9547196D01*
X14288857Y-9566244D01*
X14288857Y-9585291D01*
X14279333Y-9613863D01*
X14165048Y-9728148D01*
X14288857Y-9728148D01*
X14526952Y-9728148D02*
X14526952Y-9528148D01*
X14612667Y-9728148D02*
X14612667Y-9623386D01*
X14603143Y-9604339D01*
X14584095Y-9594815D01*
X14555524Y-9594815D01*
X14536476Y-9604339D01*
X14526952Y-9613863D01*
X14736476Y-9728148D02*
X14717428Y-9718625D01*
X14707905Y-9709101D01*
X14698381Y-9690053D01*
X14698381Y-9632910D01*
X14707905Y-9613863D01*
X14717428Y-9604339D01*
X14736476Y-9594815D01*
X14765048Y-9594815D01*
X14784095Y-9604339D01*
X14793619Y-9613863D01*
X14803143Y-9632910D01*
X14803143Y-9690053D01*
X14793619Y-9709101D01*
X14784095Y-9718625D01*
X14765048Y-9728148D01*
X14736476Y-9728148D01*
X14917428Y-9728148D02*
X14898381Y-9718625D01*
X14888857Y-9699577D01*
X14888857Y-9528148D01*
X15069809Y-9718625D02*
X15050762Y-9728148D01*
X15012667Y-9728148D01*
X14993619Y-9718625D01*
X14984095Y-9699577D01*
X14984095Y-9623386D01*
X14993619Y-9604339D01*
X15012667Y-9594815D01*
X15050762Y-9594815D01*
X15069809Y-9604339D01*
X15079333Y-9623386D01*
X15079333Y-9642434D01*
X14984095Y-9661482D01*
X15155524Y-9718625D02*
X15174571Y-9728148D01*
X15212667Y-9728148D01*
X15231714Y-9718625D01*
X15241238Y-9699577D01*
X15241238Y-9690053D01*
X15231714Y-9671006D01*
X15212667Y-9661482D01*
X15184095Y-9661482D01*
X15165048Y-9651958D01*
X15155524Y-9632910D01*
X15155524Y-9623386D01*
X15165048Y-9604339D01*
X15184095Y-9594815D01*
X15212667Y-9594815D01*
X15231714Y-9604339D01*
X15307905Y-9804339D02*
X15317428Y-9794815D01*
X15336476Y-9766244D01*
X15346000Y-9747196D01*
X15355524Y-9718625D01*
X15365048Y-9671006D01*
X15365048Y-9632910D01*
X15355524Y-9585291D01*
X15346000Y-9556720D01*
X15336476Y-9537672D01*
X15317428Y-9509101D01*
X15307905Y-9499577D01*
D17*
X10436000Y-9851672D02*
X10536000Y-9951672D01*
X10536000Y-9851672D02*
X10436000Y-9951672D01*
X10536000Y-9901672D02*
G75*
G03*
X10536000Y-9901672I-50000J0D01*
G01*
D11*
X10898381Y-9992148D02*
X10784095Y-9992148D01*
X10841238Y-9992148D02*
X10841238Y-9792148D01*
X10822190Y-9820720D01*
X10803143Y-9839767D01*
X10784095Y-9849291D01*
X10984095Y-9973101D02*
X10993619Y-9982625D01*
X10984095Y-9992148D01*
X10974571Y-9982625D01*
X10984095Y-9973101D01*
X10984095Y-9992148D01*
X11117429Y-9792148D02*
X11136476Y-9792148D01*
X11155524Y-9801672D01*
X11165048Y-9811196D01*
X11174571Y-9830244D01*
X11184095Y-9868339D01*
X11184095Y-9915958D01*
X11174571Y-9954053D01*
X11165048Y-9973101D01*
X11155524Y-9982625D01*
X11136476Y-9992148D01*
X11117429Y-9992148D01*
X11098381Y-9982625D01*
X11088857Y-9973101D01*
X11079333Y-9954053D01*
X11069810Y-9915958D01*
X11069810Y-9868339D01*
X11079333Y-9830244D01*
X11088857Y-9811196D01*
X11098381Y-9801672D01*
X11117429Y-9792148D01*
X11307905Y-9792148D02*
X11326952Y-9792148D01*
X11346000Y-9801672D01*
X11355524Y-9811196D01*
X11365048Y-9830244D01*
X11374571Y-9868339D01*
X11374571Y-9915958D01*
X11365048Y-9954053D01*
X11355524Y-9973101D01*
X11346000Y-9982625D01*
X11326952Y-9992148D01*
X11307905Y-9992148D01*
X11288857Y-9982625D01*
X11279333Y-9973101D01*
X11269809Y-9954053D01*
X11260286Y-9915958D01*
X11260286Y-9868339D01*
X11269809Y-9830244D01*
X11279333Y-9811196D01*
X11288857Y-9801672D01*
X11307905Y-9792148D01*
X11498381Y-9792148D02*
X11517428Y-9792148D01*
X11536476Y-9801672D01*
X11546000Y-9811196D01*
X11555524Y-9830244D01*
X11565048Y-9868339D01*
X11565048Y-9915958D01*
X11555524Y-9954053D01*
X11546000Y-9973101D01*
X11536476Y-9982625D01*
X11517428Y-9992148D01*
X11498381Y-9992148D01*
X11479333Y-9982625D01*
X11469809Y-9973101D01*
X11460286Y-9954053D01*
X11450762Y-9915958D01*
X11450762Y-9868339D01*
X11460286Y-9830244D01*
X11469809Y-9811196D01*
X11479333Y-9801672D01*
X11498381Y-9792148D01*
X11650762Y-9992148D02*
X11650762Y-9858815D01*
X11650762Y-9877863D02*
X11660286Y-9868339D01*
X11679333Y-9858815D01*
X11707905Y-9858815D01*
X11726952Y-9868339D01*
X11736476Y-9887386D01*
X11736476Y-9992148D01*
X11736476Y-9887386D02*
X11746000Y-9868339D01*
X11765048Y-9858815D01*
X11793619Y-9858815D01*
X11812667Y-9868339D01*
X11822190Y-9887386D01*
X11822190Y-9992148D01*
X11917428Y-9992148D02*
X11917428Y-9858815D01*
X11917428Y-9877863D02*
X11926952Y-9868339D01*
X11946000Y-9858815D01*
X11974571Y-9858815D01*
X11993619Y-9868339D01*
X12003143Y-9887386D01*
X12003143Y-9992148D01*
X12003143Y-9887386D02*
X12012667Y-9868339D01*
X12031714Y-9858815D01*
X12060286Y-9858815D01*
X12079333Y-9868339D01*
X12088857Y-9887386D01*
X12088857Y-9992148D01*
X12479333Y-9782625D02*
X12307905Y-10039767D01*
X12736476Y-9792148D02*
X12755524Y-9792148D01*
X12774571Y-9801672D01*
X12784095Y-9811196D01*
X12793619Y-9830244D01*
X12803143Y-9868339D01*
X12803143Y-9915958D01*
X12793619Y-9954053D01*
X12784095Y-9973101D01*
X12774571Y-9982625D01*
X12755524Y-9992148D01*
X12736476Y-9992148D01*
X12717428Y-9982625D01*
X12707905Y-9973101D01*
X12698381Y-9954053D01*
X12688857Y-9915958D01*
X12688857Y-9868339D01*
X12698381Y-9830244D01*
X12707905Y-9811196D01*
X12717428Y-9801672D01*
X12736476Y-9792148D01*
X12888857Y-9973101D02*
X12898381Y-9982625D01*
X12888857Y-9992148D01*
X12879333Y-9982625D01*
X12888857Y-9973101D01*
X12888857Y-9992148D01*
X13022190Y-9792148D02*
X13041238Y-9792148D01*
X13060286Y-9801672D01*
X13069809Y-9811196D01*
X13079333Y-9830244D01*
X13088857Y-9868339D01*
X13088857Y-9915958D01*
X13079333Y-9954053D01*
X13069809Y-9973101D01*
X13060286Y-9982625D01*
X13041238Y-9992148D01*
X13022190Y-9992148D01*
X13003143Y-9982625D01*
X12993619Y-9973101D01*
X12984095Y-9954053D01*
X12974571Y-9915958D01*
X12974571Y-9868339D01*
X12984095Y-9830244D01*
X12993619Y-9811196D01*
X13003143Y-9801672D01*
X13022190Y-9792148D01*
X13155524Y-9792148D02*
X13279333Y-9792148D01*
X13212667Y-9868339D01*
X13241238Y-9868339D01*
X13260286Y-9877863D01*
X13269809Y-9887386D01*
X13279333Y-9906434D01*
X13279333Y-9954053D01*
X13269809Y-9973101D01*
X13260286Y-9982625D01*
X13241238Y-9992148D01*
X13184095Y-9992148D01*
X13165048Y-9982625D01*
X13155524Y-9973101D01*
X13374571Y-9992148D02*
X13412667Y-9992148D01*
X13431714Y-9982625D01*
X13441238Y-9973101D01*
X13460286Y-9944529D01*
X13469809Y-9906434D01*
X13469809Y-9830244D01*
X13460286Y-9811196D01*
X13450762Y-9801672D01*
X13431714Y-9792148D01*
X13393619Y-9792148D01*
X13374571Y-9801672D01*
X13365048Y-9811196D01*
X13355524Y-9830244D01*
X13355524Y-9877863D01*
X13365048Y-9896910D01*
X13374571Y-9906434D01*
X13393619Y-9915958D01*
X13431714Y-9915958D01*
X13450762Y-9906434D01*
X13460286Y-9896910D01*
X13469809Y-9877863D01*
X13641238Y-9858815D02*
X13641238Y-9992148D01*
X13593619Y-9782625D02*
X13546000Y-9925482D01*
X13669809Y-9925482D01*
X13736476Y-9792148D02*
X13736476Y-9830244D01*
X13812667Y-9792148D02*
X13812667Y-9830244D01*
X14107905Y-10068339D02*
X14098381Y-10058815D01*
X14079333Y-10030244D01*
X14069809Y-10011196D01*
X14060286Y-9982625D01*
X14050762Y-9935006D01*
X14050762Y-9896910D01*
X14060286Y-9849291D01*
X14069809Y-9820720D01*
X14079333Y-9801672D01*
X14098381Y-9773101D01*
X14107905Y-9763577D01*
X14288857Y-9992148D02*
X14174571Y-9992148D01*
X14231714Y-9992148D02*
X14231714Y-9792148D01*
X14212667Y-9820720D01*
X14193619Y-9839767D01*
X14174571Y-9849291D01*
X14412667Y-9792148D02*
X14431714Y-9792148D01*
X14450762Y-9801672D01*
X14460286Y-9811196D01*
X14469809Y-9830244D01*
X14479333Y-9868339D01*
X14479333Y-9915958D01*
X14469809Y-9954053D01*
X14460286Y-9973101D01*
X14450762Y-9982625D01*
X14431714Y-9992148D01*
X14412667Y-9992148D01*
X14393619Y-9982625D01*
X14384095Y-9973101D01*
X14374571Y-9954053D01*
X14365048Y-9915958D01*
X14365048Y-9868339D01*
X14374571Y-9830244D01*
X14384095Y-9811196D01*
X14393619Y-9801672D01*
X14412667Y-9792148D01*
X14717428Y-9992148D02*
X14717428Y-9792148D01*
X14803143Y-9992148D02*
X14803143Y-9887386D01*
X14793619Y-9868339D01*
X14774571Y-9858815D01*
X14746000Y-9858815D01*
X14726952Y-9868339D01*
X14717428Y-9877863D01*
X14926952Y-9992148D02*
X14907905Y-9982625D01*
X14898381Y-9973101D01*
X14888857Y-9954053D01*
X14888857Y-9896910D01*
X14898381Y-9877863D01*
X14907905Y-9868339D01*
X14926952Y-9858815D01*
X14955524Y-9858815D01*
X14974571Y-9868339D01*
X14984095Y-9877863D01*
X14993619Y-9896910D01*
X14993619Y-9954053D01*
X14984095Y-9973101D01*
X14974571Y-9982625D01*
X14955524Y-9992148D01*
X14926952Y-9992148D01*
X15107905Y-9992148D02*
X15088857Y-9982625D01*
X15079333Y-9963577D01*
X15079333Y-9792148D01*
X15260286Y-9982625D02*
X15241238Y-9992148D01*
X15203143Y-9992148D01*
X15184095Y-9982625D01*
X15174571Y-9963577D01*
X15174571Y-9887386D01*
X15184095Y-9868339D01*
X15203143Y-9858815D01*
X15241238Y-9858815D01*
X15260286Y-9868339D01*
X15269809Y-9887386D01*
X15269809Y-9906434D01*
X15174571Y-9925482D01*
X15346000Y-9982625D02*
X15365048Y-9992148D01*
X15403143Y-9992148D01*
X15422190Y-9982625D01*
X15431714Y-9963577D01*
X15431714Y-9954053D01*
X15422190Y-9935006D01*
X15403143Y-9925482D01*
X15374571Y-9925482D01*
X15355524Y-9915958D01*
X15346000Y-9896910D01*
X15346000Y-9887386D01*
X15355524Y-9868339D01*
X15374571Y-9858815D01*
X15403143Y-9858815D01*
X15422190Y-9868339D01*
X15498381Y-10068339D02*
X15507905Y-10058815D01*
X15526952Y-10030244D01*
X15536476Y-10011196D01*
X15546000Y-9982625D01*
X15555524Y-9935006D01*
X15555524Y-9896910D01*
X15546000Y-9849291D01*
X15536476Y-9820720D01*
X15526952Y-9801672D01*
X15507905Y-9773101D01*
X15498381Y-9763577D01*
M02*
