M48
; DRILL file {KiCad (6.0.2)} date Thu Dec  8 21:30:02 2022
; FORMAT={-:-/ absolute / metric / decimal}
; #@! TF.CreationDate,2022-12-08T21:30:02-08:00
; #@! TF.GenerationSoftware,Kicad,Pcbnew,(6.0.2)
; #@! TF.FileFunction,Plated,1,4,PTH
FMAT,2
METRIC
; #@! TA.AperFunction,Plated,PTH,ViaDrill
T1C0.200
; #@! TA.AperFunction,Plated,PTH,ViaDrill
T2C0.300
; #@! TA.AperFunction,Plated,PTH,ViaDrill
T3C0.400
; #@! TA.AperFunction,Plated,PTH,ComponentDrill
T4C0.600
; #@! TA.AperFunction,Plated,PTH,ComponentDrill
T5C0.850
; #@! TA.AperFunction,Plated,PTH,ComponentDrill
T6C1.000
%
G90
G05
T1
X120.498Y-76.403
T2
X108.56Y-71.984
X125.222Y-76.708
X126.06Y-72.009
X126.441Y-78.74
T3
X106.999Y-68.896
X107.315Y-67.818
X110.109Y-71.882
X110.109Y-73.584
X111.76Y-68.961
X113.894Y-54.889
X116.18Y-53.213
X117.318Y-53.564
X118.11Y-64.77
X119.126Y-78.74
X119.38Y-63.5
X119.38Y-67.31
X119.913Y-53.619
X120.65Y-63.5
X120.65Y-67.31
X120.98Y-53.12
X121.666Y-64.77
X122.936Y-53.518
X123.825Y-74.803
X123.825Y-78.613
X125.222Y-57.658
X125.969Y-48.829
X126.441Y-74.676
X126.492Y-56.388
X126.492Y-60.198
X127.116Y-48.829
X127.762Y-56.388
X127.762Y-60.198
X128.778Y-57.658
X136.652Y-69.85
X136.666Y-73.646
T5
X116.118Y-51.582
X121.118Y-51.582
T6
X107.315Y-61.214
X107.33Y-57.379
X109.855Y-61.214
X109.87Y-57.379
X112.395Y-61.214
X112.41Y-57.379
X115.57Y-75.692
X129.54Y-75.692
X133.858Y-56.642
X136.398Y-56.642
T4
X115.118Y-49.232G85X115.118Y-48.532
G05
X122.118Y-48.532G85X122.118Y-49.232
G05
T0
M30
