%FSLAX45Y45*%
G04 Gerber Fmt 4.5, Leading zero omitted, Abs format (unit mm)*
G04 Created by KiCad (PCBNEW (6.0.2)) date 2022-12-08 21:30:06*
%MOMM*%
%LPD*%
G01*
G04 APERTURE LIST*
%TA.AperFunction,Profile*%
%ADD10C,0.100000*%
%TD*%
%ADD11C,0.200000*%
%ADD12C,0.220000*%
G04 APERTURE END LIST*
D10*
X13654212Y-7936672D02*
X10728960Y-7936672D01*
X13654212Y-7936672D02*
G75*
G03*
X13842172Y-7748712I0J187960D01*
G01*
X13844712Y-4930968D02*
G75*
G03*
X13656752Y-4743008I-187960J0D01*
G01*
X10729788Y-4743008D02*
G75*
G03*
X10541585Y-4931553I0J-188203D01*
G01*
X10729788Y-4743008D02*
X13656752Y-4743008D01*
X13844712Y-4930968D02*
X13842172Y-7748712D01*
X10541000Y-7748712D02*
G75*
G03*
X10728960Y-7936672I187960J0D01*
G01*
X10541000Y-7748712D02*
X10541585Y-4931553D01*
D11*
D12*
X10758660Y-4939520D02*
X10978660Y-5159520D01*
X10978660Y-4939520D02*
X10758660Y-5159520D01*
X10758660Y-7581120D02*
X10978660Y-7801120D01*
X10978660Y-7581120D02*
X10758660Y-7801120D01*
X13453600Y-4944600D02*
X13673600Y-5164600D01*
X13673600Y-4944600D02*
X13453600Y-5164600D01*
X13453600Y-7586200D02*
X13673600Y-7806200D01*
X13673600Y-7586200D02*
X13453600Y-7806200D01*
D11*
X10793619Y-8252148D02*
X10793619Y-8052148D01*
X10841238Y-8052148D01*
X10869810Y-8061672D01*
X10888857Y-8080720D01*
X10898381Y-8099767D01*
X10907905Y-8137863D01*
X10907905Y-8166434D01*
X10898381Y-8204529D01*
X10888857Y-8223577D01*
X10869810Y-8242624D01*
X10841238Y-8252148D01*
X10793619Y-8252148D01*
X10993619Y-8252148D02*
X10993619Y-8118815D01*
X10993619Y-8156910D02*
X11003143Y-8137863D01*
X11012667Y-8128339D01*
X11031714Y-8118815D01*
X11050762Y-8118815D01*
X11117429Y-8252148D02*
X11117429Y-8118815D01*
X11117429Y-8052148D02*
X11107905Y-8061672D01*
X11117429Y-8071196D01*
X11126952Y-8061672D01*
X11117429Y-8052148D01*
X11117429Y-8071196D01*
X11241238Y-8252148D02*
X11222190Y-8242624D01*
X11212667Y-8223577D01*
X11212667Y-8052148D01*
X11346000Y-8252148D02*
X11326952Y-8242624D01*
X11317428Y-8223577D01*
X11317428Y-8052148D01*
X11574571Y-8252148D02*
X11574571Y-8052148D01*
X11641238Y-8195005D01*
X11707905Y-8052148D01*
X11707905Y-8252148D01*
X11888857Y-8252148D02*
X11888857Y-8147386D01*
X11879333Y-8128339D01*
X11860286Y-8118815D01*
X11822190Y-8118815D01*
X11803143Y-8128339D01*
X11888857Y-8242624D02*
X11869809Y-8252148D01*
X11822190Y-8252148D01*
X11803143Y-8242624D01*
X11793619Y-8223577D01*
X11793619Y-8204529D01*
X11803143Y-8185482D01*
X11822190Y-8175958D01*
X11869809Y-8175958D01*
X11888857Y-8166434D01*
X11984095Y-8118815D02*
X11984095Y-8318815D01*
X11984095Y-8128339D02*
X12003143Y-8118815D01*
X12041238Y-8118815D01*
X12060286Y-8128339D01*
X12069809Y-8137863D01*
X12079333Y-8156910D01*
X12079333Y-8214053D01*
X12069809Y-8233101D01*
X12060286Y-8242624D01*
X12041238Y-8252148D01*
X12003143Y-8252148D01*
X11984095Y-8242624D01*
X12165048Y-8233101D02*
X12174571Y-8242624D01*
X12165048Y-8252148D01*
X12155524Y-8242624D01*
X12165048Y-8233101D01*
X12165048Y-8252148D01*
X12165048Y-8128339D02*
X12174571Y-8137863D01*
X12165048Y-8147386D01*
X12155524Y-8137863D01*
X12165048Y-8128339D01*
X12165048Y-8147386D01*
X10336000Y-8481672D02*
X10536000Y-8681672D01*
X10536000Y-8481672D02*
X10336000Y-8681672D01*
X10784095Y-8491196D02*
X10793619Y-8481672D01*
X10812667Y-8472148D01*
X10860286Y-8472148D01*
X10879333Y-8481672D01*
X10888857Y-8491196D01*
X10898381Y-8510244D01*
X10898381Y-8529291D01*
X10888857Y-8557863D01*
X10774571Y-8672148D01*
X10898381Y-8672148D01*
X10984095Y-8653101D02*
X10993619Y-8662625D01*
X10984095Y-8672148D01*
X10974571Y-8662625D01*
X10984095Y-8653101D01*
X10984095Y-8672148D01*
X11069810Y-8491196D02*
X11079333Y-8481672D01*
X11098381Y-8472148D01*
X11146000Y-8472148D01*
X11165048Y-8481672D01*
X11174571Y-8491196D01*
X11184095Y-8510244D01*
X11184095Y-8529291D01*
X11174571Y-8557863D01*
X11060286Y-8672148D01*
X11184095Y-8672148D01*
X11307905Y-8472148D02*
X11326952Y-8472148D01*
X11346000Y-8481672D01*
X11355524Y-8491196D01*
X11365048Y-8510244D01*
X11374571Y-8548339D01*
X11374571Y-8595958D01*
X11365048Y-8634053D01*
X11355524Y-8653101D01*
X11346000Y-8662625D01*
X11326952Y-8672148D01*
X11307905Y-8672148D01*
X11288857Y-8662625D01*
X11279333Y-8653101D01*
X11269809Y-8634053D01*
X11260286Y-8595958D01*
X11260286Y-8548339D01*
X11269809Y-8510244D01*
X11279333Y-8491196D01*
X11288857Y-8481672D01*
X11307905Y-8472148D01*
X11498381Y-8472148D02*
X11517428Y-8472148D01*
X11536476Y-8481672D01*
X11546000Y-8491196D01*
X11555524Y-8510244D01*
X11565048Y-8548339D01*
X11565048Y-8595958D01*
X11555524Y-8634053D01*
X11546000Y-8653101D01*
X11536476Y-8662625D01*
X11517428Y-8672148D01*
X11498381Y-8672148D01*
X11479333Y-8662625D01*
X11469809Y-8653101D01*
X11460286Y-8634053D01*
X11450762Y-8595958D01*
X11450762Y-8548339D01*
X11460286Y-8510244D01*
X11469809Y-8491196D01*
X11479333Y-8481672D01*
X11498381Y-8472148D01*
X11650762Y-8672148D02*
X11650762Y-8538815D01*
X11650762Y-8557863D02*
X11660286Y-8548339D01*
X11679333Y-8538815D01*
X11707905Y-8538815D01*
X11726952Y-8548339D01*
X11736476Y-8567386D01*
X11736476Y-8672148D01*
X11736476Y-8567386D02*
X11746000Y-8548339D01*
X11765048Y-8538815D01*
X11793619Y-8538815D01*
X11812667Y-8548339D01*
X11822190Y-8567386D01*
X11822190Y-8672148D01*
X11917428Y-8672148D02*
X11917428Y-8538815D01*
X11917428Y-8557863D02*
X11926952Y-8548339D01*
X11946000Y-8538815D01*
X11974571Y-8538815D01*
X11993619Y-8548339D01*
X12003143Y-8567386D01*
X12003143Y-8672148D01*
X12003143Y-8567386D02*
X12012667Y-8548339D01*
X12031714Y-8538815D01*
X12060286Y-8538815D01*
X12079333Y-8548339D01*
X12088857Y-8567386D01*
X12088857Y-8672148D01*
X12479333Y-8462625D02*
X12307905Y-8719767D01*
X12736476Y-8472148D02*
X12755524Y-8472148D01*
X12774571Y-8481672D01*
X12784095Y-8491196D01*
X12793619Y-8510244D01*
X12803143Y-8548339D01*
X12803143Y-8595958D01*
X12793619Y-8634053D01*
X12784095Y-8653101D01*
X12774571Y-8662625D01*
X12755524Y-8672148D01*
X12736476Y-8672148D01*
X12717428Y-8662625D01*
X12707905Y-8653101D01*
X12698381Y-8634053D01*
X12688857Y-8595958D01*
X12688857Y-8548339D01*
X12698381Y-8510244D01*
X12707905Y-8491196D01*
X12717428Y-8481672D01*
X12736476Y-8472148D01*
X12888857Y-8653101D02*
X12898381Y-8662625D01*
X12888857Y-8672148D01*
X12879333Y-8662625D01*
X12888857Y-8653101D01*
X12888857Y-8672148D01*
X13022190Y-8472148D02*
X13041238Y-8472148D01*
X13060286Y-8481672D01*
X13069809Y-8491196D01*
X13079333Y-8510244D01*
X13088857Y-8548339D01*
X13088857Y-8595958D01*
X13079333Y-8634053D01*
X13069809Y-8653101D01*
X13060286Y-8662625D01*
X13041238Y-8672148D01*
X13022190Y-8672148D01*
X13003143Y-8662625D01*
X12993619Y-8653101D01*
X12984095Y-8634053D01*
X12974571Y-8595958D01*
X12974571Y-8548339D01*
X12984095Y-8510244D01*
X12993619Y-8491196D01*
X13003143Y-8481672D01*
X13022190Y-8472148D01*
X13203143Y-8557863D02*
X13184095Y-8548339D01*
X13174571Y-8538815D01*
X13165048Y-8519767D01*
X13165048Y-8510244D01*
X13174571Y-8491196D01*
X13184095Y-8481672D01*
X13203143Y-8472148D01*
X13241238Y-8472148D01*
X13260286Y-8481672D01*
X13269809Y-8491196D01*
X13279333Y-8510244D01*
X13279333Y-8519767D01*
X13269809Y-8538815D01*
X13260286Y-8548339D01*
X13241238Y-8557863D01*
X13203143Y-8557863D01*
X13184095Y-8567386D01*
X13174571Y-8576910D01*
X13165048Y-8595958D01*
X13165048Y-8634053D01*
X13174571Y-8653101D01*
X13184095Y-8662625D01*
X13203143Y-8672148D01*
X13241238Y-8672148D01*
X13260286Y-8662625D01*
X13269809Y-8653101D01*
X13279333Y-8634053D01*
X13279333Y-8595958D01*
X13269809Y-8576910D01*
X13260286Y-8567386D01*
X13241238Y-8557863D01*
X13450762Y-8472148D02*
X13412667Y-8472148D01*
X13393619Y-8481672D01*
X13384095Y-8491196D01*
X13365048Y-8519767D01*
X13355524Y-8557863D01*
X13355524Y-8634053D01*
X13365048Y-8653101D01*
X13374571Y-8662625D01*
X13393619Y-8672148D01*
X13431714Y-8672148D01*
X13450762Y-8662625D01*
X13460286Y-8653101D01*
X13469809Y-8634053D01*
X13469809Y-8586434D01*
X13460286Y-8567386D01*
X13450762Y-8557863D01*
X13431714Y-8548339D01*
X13393619Y-8548339D01*
X13374571Y-8557863D01*
X13365048Y-8567386D01*
X13355524Y-8586434D01*
X13641238Y-8472148D02*
X13603143Y-8472148D01*
X13584095Y-8481672D01*
X13574571Y-8491196D01*
X13555524Y-8519767D01*
X13546000Y-8557863D01*
X13546000Y-8634053D01*
X13555524Y-8653101D01*
X13565048Y-8662625D01*
X13584095Y-8672148D01*
X13622190Y-8672148D01*
X13641238Y-8662625D01*
X13650762Y-8653101D01*
X13660286Y-8634053D01*
X13660286Y-8586434D01*
X13650762Y-8567386D01*
X13641238Y-8557863D01*
X13622190Y-8548339D01*
X13584095Y-8548339D01*
X13565048Y-8557863D01*
X13555524Y-8567386D01*
X13546000Y-8586434D01*
X13736476Y-8472148D02*
X13736476Y-8510244D01*
X13812667Y-8472148D02*
X13812667Y-8510244D01*
X14107905Y-8748339D02*
X14098381Y-8738815D01*
X14079333Y-8710244D01*
X14069809Y-8691196D01*
X14060286Y-8662625D01*
X14050762Y-8615006D01*
X14050762Y-8576910D01*
X14060286Y-8529291D01*
X14069809Y-8500720D01*
X14079333Y-8481672D01*
X14098381Y-8453101D01*
X14107905Y-8443577D01*
X14269809Y-8538815D02*
X14269809Y-8672148D01*
X14222190Y-8462625D02*
X14174571Y-8605482D01*
X14298381Y-8605482D01*
X14526952Y-8672148D02*
X14526952Y-8472148D01*
X14612667Y-8672148D02*
X14612667Y-8567386D01*
X14603143Y-8548339D01*
X14584095Y-8538815D01*
X14555524Y-8538815D01*
X14536476Y-8548339D01*
X14526952Y-8557863D01*
X14736476Y-8672148D02*
X14717428Y-8662625D01*
X14707905Y-8653101D01*
X14698381Y-8634053D01*
X14698381Y-8576910D01*
X14707905Y-8557863D01*
X14717428Y-8548339D01*
X14736476Y-8538815D01*
X14765048Y-8538815D01*
X14784095Y-8548339D01*
X14793619Y-8557863D01*
X14803143Y-8576910D01*
X14803143Y-8634053D01*
X14793619Y-8653101D01*
X14784095Y-8662625D01*
X14765048Y-8672148D01*
X14736476Y-8672148D01*
X14917428Y-8672148D02*
X14898381Y-8662625D01*
X14888857Y-8643577D01*
X14888857Y-8472148D01*
X15069809Y-8662625D02*
X15050762Y-8672148D01*
X15012667Y-8672148D01*
X14993619Y-8662625D01*
X14984095Y-8643577D01*
X14984095Y-8567386D01*
X14993619Y-8548339D01*
X15012667Y-8538815D01*
X15050762Y-8538815D01*
X15069809Y-8548339D01*
X15079333Y-8567386D01*
X15079333Y-8586434D01*
X14984095Y-8605482D01*
X15155524Y-8662625D02*
X15174571Y-8672148D01*
X15212667Y-8672148D01*
X15231714Y-8662625D01*
X15241238Y-8643577D01*
X15241238Y-8634053D01*
X15231714Y-8615006D01*
X15212667Y-8605482D01*
X15184095Y-8605482D01*
X15165048Y-8595958D01*
X15155524Y-8576910D01*
X15155524Y-8567386D01*
X15165048Y-8548339D01*
X15184095Y-8538815D01*
X15212667Y-8538815D01*
X15231714Y-8548339D01*
X15307905Y-8748339D02*
X15317428Y-8738815D01*
X15336476Y-8710244D01*
X15346000Y-8691196D01*
X15355524Y-8662625D01*
X15365048Y-8615006D01*
X15365048Y-8576910D01*
X15355524Y-8529291D01*
X15346000Y-8500720D01*
X15336476Y-8481672D01*
X15317428Y-8453101D01*
X15307905Y-8443577D01*
X15669809Y-8748339D02*
X15660286Y-8738815D01*
X15641238Y-8710244D01*
X15631714Y-8691196D01*
X15622190Y-8662625D01*
X15612667Y-8615006D01*
X15612667Y-8576910D01*
X15622190Y-8529291D01*
X15631714Y-8500720D01*
X15641238Y-8481672D01*
X15660286Y-8453101D01*
X15669809Y-8443577D01*
X15746000Y-8538815D02*
X15746000Y-8672148D01*
X15746000Y-8557863D02*
X15755524Y-8548339D01*
X15774571Y-8538815D01*
X15803143Y-8538815D01*
X15822190Y-8548339D01*
X15831714Y-8567386D01*
X15831714Y-8672148D01*
X15955524Y-8672148D02*
X15936476Y-8662625D01*
X15926952Y-8653101D01*
X15917428Y-8634053D01*
X15917428Y-8576910D01*
X15926952Y-8557863D01*
X15936476Y-8548339D01*
X15955524Y-8538815D01*
X15984095Y-8538815D01*
X16003143Y-8548339D01*
X16012667Y-8557863D01*
X16022190Y-8576910D01*
X16022190Y-8634053D01*
X16012667Y-8653101D01*
X16003143Y-8662625D01*
X15984095Y-8672148D01*
X15955524Y-8672148D01*
X16079333Y-8538815D02*
X16155524Y-8538815D01*
X16107905Y-8472148D02*
X16107905Y-8643577D01*
X16117428Y-8662625D01*
X16136476Y-8672148D01*
X16155524Y-8672148D01*
X16374571Y-8538815D02*
X16374571Y-8738815D01*
X16374571Y-8548339D02*
X16393619Y-8538815D01*
X16431714Y-8538815D01*
X16450762Y-8548339D01*
X16460286Y-8557863D01*
X16469809Y-8576910D01*
X16469809Y-8634053D01*
X16460286Y-8653101D01*
X16450762Y-8662625D01*
X16431714Y-8672148D01*
X16393619Y-8672148D01*
X16374571Y-8662625D01*
X16584095Y-8672148D02*
X16565048Y-8662625D01*
X16555524Y-8643577D01*
X16555524Y-8472148D01*
X16746000Y-8672148D02*
X16746000Y-8567386D01*
X16736476Y-8548339D01*
X16717428Y-8538815D01*
X16679333Y-8538815D01*
X16660286Y-8548339D01*
X16746000Y-8662625D02*
X16726952Y-8672148D01*
X16679333Y-8672148D01*
X16660286Y-8662625D01*
X16650762Y-8643577D01*
X16650762Y-8624529D01*
X16660286Y-8605482D01*
X16679333Y-8595958D01*
X16726952Y-8595958D01*
X16746000Y-8586434D01*
X16812667Y-8538815D02*
X16888857Y-8538815D01*
X16841238Y-8472148D02*
X16841238Y-8643577D01*
X16850762Y-8662625D01*
X16869810Y-8672148D01*
X16888857Y-8672148D01*
X17031714Y-8662625D02*
X17012667Y-8672148D01*
X16974571Y-8672148D01*
X16955524Y-8662625D01*
X16946000Y-8643577D01*
X16946000Y-8567386D01*
X16955524Y-8548339D01*
X16974571Y-8538815D01*
X17012667Y-8538815D01*
X17031714Y-8548339D01*
X17041238Y-8567386D01*
X17041238Y-8586434D01*
X16946000Y-8605482D01*
X17212667Y-8672148D02*
X17212667Y-8472148D01*
X17212667Y-8662625D02*
X17193619Y-8672148D01*
X17155524Y-8672148D01*
X17136476Y-8662625D01*
X17126952Y-8653101D01*
X17117429Y-8634053D01*
X17117429Y-8576910D01*
X17126952Y-8557863D01*
X17136476Y-8548339D01*
X17155524Y-8538815D01*
X17193619Y-8538815D01*
X17212667Y-8548339D01*
X17288857Y-8748339D02*
X17298381Y-8738815D01*
X17317429Y-8710244D01*
X17326952Y-8691196D01*
X17336476Y-8662625D01*
X17346000Y-8615006D01*
X17346000Y-8576910D01*
X17336476Y-8529291D01*
X17326952Y-8500720D01*
X17317429Y-8481672D01*
X17298381Y-8453101D01*
X17288857Y-8443577D01*
M02*
